<svg width="70" height="70" viewBox="0 0 70 70" fill="none" xmlns="http://www.w3.org/2000/svg">
                  <path opacity="0.5" d="M29.237 5.83398C26.418 5.83398 24.1328 8.1192 24.1328 10.9382C24.1328 13.7571 26.418 16.0423 29.237 16.0423H40.9036C43.7226 16.0423 46.0078 13.7571 46.0078 10.9382C46.0078 8.1192 43.7226 5.83398 40.9036 5.83398H29.237Z" fill="#904CFC"></path>
                  <path opacity="0.5" d="M11.3362 47.2659C8.83389 37.2565 7.58271 32.2518 10.2101 28.8866C12.8376 25.5215 17.9963 25.5215 28.3137 25.5215H41.8199C52.1373 25.5215 57.2961 25.5215 59.9235 28.8866C62.5509 32.2518 61.2997 37.2565 58.7974 47.2659C57.2058 53.632 56.4101 56.8151 54.0365 58.6683C51.663 60.5215 48.382 60.5215 41.8199 60.5215H28.3137C21.7517 60.5215 18.4706 60.5215 16.0971 58.6683C13.7235 56.8151 12.9278 53.632 11.3362 47.2659Z" fill="#904CFC"></path>
                  <path d="M45.5118 13.1311C45.8288 12.4664 46.0062 11.7223 46.0062 10.9369C46.0062 10.1551 45.8304 9.41429 45.5162 8.75195C47.5098 8.76645 49.0637 8.85797 50.4507 9.40006C52.1079 10.0478 53.5494 11.1488 54.6102 12.5773C55.6804 14.0183 56.1828 15.8654 56.8742 18.4077L57.0096 18.9046L58.505 27.5467C57.3131 26.7244 55.7759 26.2357 53.7879 25.9454L52.7341 19.8554C51.9064 16.8229 51.6059 15.8699 51.0978 15.1857C50.5266 14.4165 49.7504 13.8237 48.8581 13.4749C48.217 13.2243 47.4423 13.1506 45.5118 13.1311Z" fill="#904CFC"></path>
                  <path d="M24.6211 8.75195C24.307 9.4143 24.1312 10.1551 24.1312 10.9369C24.1312 11.7223 24.3086 12.4664 24.6256 13.1311C22.6952 13.1506 21.9206 13.2243 21.2795 13.4749C20.3871 13.8237 19.611 14.4165 19.0397 15.1857C18.5316 15.8699 18.2312 16.8229 17.4035 19.8554L16.3497 25.9451C14.3619 26.2353 12.8248 26.7236 11.6328 27.5453L13.128 18.9046L13.2633 18.4078C13.9548 15.8654 14.4572 14.0183 15.5274 12.5773C16.5882 11.1488 18.0297 10.0478 19.6869 9.40006C21.0739 8.85799 22.6276 8.76645 24.6211 8.75195Z" fill="#904CFC"></path>
                </svg>