<svg xmlns="http://www.w3.org/2000/svg" width="80" height="50" viewBox="0 0 120 50" fill="none">
<path fill-rule="evenodd" clip-rule="evenodd" d="M28.707 23.5368H31.156V8.87178L28.6367 8.79297L28.707 23.5368ZM53.741 23.5368H56.19L56.2588 20.2474C56.3179 17.4311 56.3627 16.8931 56.5716 16.5066C57.0359 15.6469 58.1468 15.2626 58.8117 15.7316C59.4142 16.1567 59.4521 16.3868 59.5233 20.0418L59.5913 23.5368H62.0403L62.0765 19.707C62.1166 15.4628 62.0593 15.0611 61.2777 14.1058C60.6097 13.2894 59.9169 12.9966 58.6389 12.9911C57.7066 12.987 57.4579 13.0388 56.9042 13.3521L56.258 13.7179V8.80325H53.6706L53.741 23.5368ZM17.6866 23.5368L20.2717 23.5767C23.9532 23.6334 25.0488 23.3905 26.2356 22.2545C27.0148 21.5085 27.3137 20.8247 27.3848 19.6246C27.4357 18.7674 27.3942 18.4691 27.142 17.8784C26.8629 17.2249 25.9561 16.2043 25.6546 16.2043C25.5851 16.2043 25.7346 15.8952 25.987 15.5173C26.4993 14.7505 26.6718 13.9466 26.5594 12.8496C26.4187 11.4768 25.6495 10.4773 24.2172 9.80622C23.4185 9.43192 23.3387 9.42261 20.5085 9.37395L17.6162 9.3242L17.6866 23.5368ZM22.827 12.1422C23.5149 12.4355 23.7863 12.8317 23.7863 13.5422C23.7863 14.0606 23.7132 14.2399 23.3532 14.6026C22.9363 15.0229 22.8713 15.0411 21.6298 15.0869L20.3397 15.1343V11.9555H21.3644C21.9281 11.9555 22.5862 12.0396 22.827 12.1422ZM46.258 13.1076C43.9322 13.6866 42.5165 15.692 42.5165 18.4076C42.5165 20.3686 43.2871 21.9986 44.6413 22.9022C45.6266 23.5595 46.5501 23.7832 48.0123 23.7185C49.4041 23.6568 50.1058 23.3926 51.0585 22.5709C51.6468 22.0637 52.5464 20.4496 52.3864 20.1885C52.3334 20.102 51.7985 20.0418 51.0834 20.0418H49.8704L49.6538 20.4638C49.2596 21.2316 48.0017 21.5941 46.8496 21.2719C46.3862 21.1421 45.3737 20.2118 45.3737 19.9156C45.3737 19.8465 45.3365 19.6926 45.2911 19.5734C45.2171 19.379 45.5849 19.3566 48.8459 19.3566H52.4834L52.4232 17.8825C52.3736 16.672 52.3 16.2701 52.0113 15.6351C51.0487 13.5167 48.7213 12.4943 46.258 13.1076ZM67.0063 13.1254C65.4655 13.5596 64.1176 14.7145 63.5476 16.0889C62.9924 17.4275 63.0252 19.5225 63.6214 20.8004C64.0787 21.7801 65.0083 22.7196 66.0148 23.2188C66.7823 23.5993 67.0899 23.6708 68.1633 23.7181C69.6835 23.7851 70.7021 23.5317 71.7268 22.8316C74.6086 20.8627 74.6879 16.1515 71.8751 14.0134C71.5223 13.7454 70.9407 13.4159 70.5826 13.2813C69.6672 12.9373 67.9408 12.862 67.0063 13.1254ZM87.376 13.056C86.3099 13.3266 85.5658 13.9205 85.0651 14.9005C84.6779 15.6584 84.6681 16.9098 85.0438 17.6434C85.37 18.2805 86.3632 19.0121 87.189 19.2235C89.0858 19.7091 89.6032 19.9188 89.7295 20.253C89.8967 20.6963 89.6925 21.2245 89.3062 21.348C88.8144 21.5053 87.9582 21.4436 87.6304 21.2274C87.4623 21.1164 87.2661 20.8195 87.1947 20.5679L87.0647 20.1104L84.5573 20.0316V20.5894C84.5573 21.6809 85.2725 22.7668 86.394 23.3775C86.8619 23.6323 87.1575 23.6738 88.5028 23.6738C90.0015 23.6738 90.099 23.6559 90.8157 23.2484C91.8329 22.6702 92.3134 21.9616 92.4091 20.899C92.5144 19.7285 92.3706 19.1482 91.8245 18.5393C91.2489 17.8976 90.5285 17.5433 89.0406 17.1702C88.4179 17.0141 87.7974 16.785 87.6615 16.6611C87.168 16.2113 87.451 15.481 88.1913 15.2939C88.8803 15.1197 89.3862 15.4957 89.6476 16.3756C89.7085 16.581 89.8951 16.6154 90.9476 16.6154H92.1763V16.0628C92.1763 14.9828 91.419 13.8525 90.3442 13.3283C89.6592 12.9943 88.1604 12.8567 87.376 13.056ZM96.8504 13.0487C95.4751 13.3441 94.1383 14.4101 93.4828 15.7344C92.7623 17.19 92.7347 19.4746 93.4198 20.943C93.8502 21.8651 94.8054 22.8544 95.6862 23.2901C96.3993 23.6428 96.5884 23.6738 98.0266 23.6738C99.4292 23.6738 99.6697 23.6368 100.349 23.316C100.765 23.1192 101.338 22.7183 101.621 22.4251C102.188 21.8386 102.789 20.7562 102.789 20.3205C102.789 20.0616 102.704 20.0418 101.598 20.0418H100.408L100.016 20.5357C98.8434 22.0167 96.2225 21.5171 95.7766 19.7274L95.6854 19.3612L102.857 19.288L102.842 17.986C102.821 16.2081 102.481 15.3077 101.439 14.2737C100.926 13.7645 100.442 13.4289 99.9933 13.2715C99.1908 12.9899 97.6372 12.8798 96.8504 13.0487ZM32.9927 17.0017C32.9927 21.4765 33.0673 21.9058 34.0084 22.854C34.6882 23.5387 35.267 23.7418 36.5301 23.7385C37.4675 23.7362 38.3405 23.4356 38.707 22.9888C38.8992 22.7545 38.9152 22.7632 38.9805 23.1385L39.0499 23.5368H41.3601V13.2576H38.775L38.707 16.6154C38.6357 20.1378 38.6167 20.2455 37.9602 20.8642C37.4994 21.2985 36.5692 21.3404 36.1371 20.9464C35.6627 20.514 35.5793 19.8419 35.5786 16.4441L35.5778 13.189H32.9927V17.0017ZM74.9517 13.3813C74.9092 13.4928 74.8959 15.2682 74.9222 17.3268C74.9678 20.9086 74.9835 21.1007 75.2899 21.7882C75.6631 22.6252 76.416 23.3638 77.1424 23.6053C77.4548 23.7092 78.0684 23.7514 78.7175 23.7134C79.5804 23.6631 79.885 23.582 80.3344 23.2824L80.888 22.9133L81.0208 23.2651C81.1495 23.6063 81.1852 23.6157 82.2091 23.5768L83.2647 23.5368L83.336 13.189H80.769L80.7243 16.5126C80.6856 19.3985 80.6475 19.8957 80.4349 20.2877C80.1574 20.8 79.4713 21.2741 79.0062 21.2748C78.589 21.2755 77.9521 20.9332 77.805 20.6294C77.7399 20.4947 77.6559 18.7809 77.6185 16.821L77.5505 13.2576L76.2897 13.2181C75.2771 13.1864 75.0137 13.2186 74.9517 13.3813ZM48.815 15.6125C49.2278 15.8231 49.726 16.5395 49.7268 16.9238C49.7274 17.1426 49.5304 17.1637 47.4896 17.1637H45.2518L45.3928 16.7561C45.5666 16.2539 46.3387 15.5515 46.8387 15.4405C47.0432 15.3951 47.2716 15.3375 47.3464 15.3126C47.575 15.2362 48.413 15.4074 48.815 15.6125ZM98.7898 15.4469C99.3581 15.5616 100.203 16.501 100.203 17.0176C100.203 17.1151 99.4568 17.1637 97.9586 17.1637C96.7239 17.1637 95.714 17.1175 95.7142 17.0609C95.7152 16.8573 96.301 15.9943 96.5746 15.7931C96.9146 15.5433 97.8819 15.2524 98.1627 15.3156C98.2749 15.3408 98.5571 15.3999 98.7898 15.4469ZM69.3872 15.5349C71.1884 16.0362 71.8464 18.8689 70.5161 20.3952C69.9388 21.0576 69.4242 21.2949 68.5659 21.2949C67.2444 21.2949 66.3738 20.6294 65.9893 19.3252C65.7416 18.4853 65.741 18.4653 65.9314 17.5707C66.1101 16.7317 66.701 15.9947 67.4812 15.6375C68.1113 15.3492 68.6212 15.3218 69.3872 15.5349ZM23.2745 17.7286C24.8786 18.1355 25.0397 20.172 23.5185 20.8122C23.2382 20.9302 22.5567 21.0012 21.7046 21.0012H20.3397V17.5748H21.5039C22.1443 17.5748 22.941 17.644 23.2745 17.7286Z" fill="white"/>
<path fill-rule="evenodd" clip-rule="evenodd" d="M37.5149 26.3515C37.4789 26.4458 37.4656 29.7607 37.4851 33.7181L37.5204 40.9134H39.9694L40.0397 26.1802H38.8098C37.9513 26.1802 37.5603 26.2318 37.5149 26.3515ZM20.7649 26.5891C18.3724 27.0994 16.9621 29.4807 17.647 31.8536C18.0655 33.3038 19.039 34.0506 22.1466 35.3053C23.4141 35.8171 23.9833 36.3821 23.9833 37.1285C23.9833 37.8752 23.4354 38.5126 22.683 38.6413C21.2624 38.8842 20.1494 38.1926 19.9646 36.9521L19.8709 36.3221H17.1434L17.2125 37.1787C17.3828 39.2908 18.8186 40.7585 21.0692 41.1208C23.4436 41.5029 25.5214 40.6053 26.3865 38.824C26.6974 38.1838 26.7661 37.8581 26.7689 37.0115C26.7763 34.7916 25.805 33.6873 22.8647 32.5725C21.5748 32.0833 20.6092 31.5585 20.4508 31.2603C20.3733 31.1145 20.3099 30.7395 20.3099 30.4273C20.3099 29.9824 20.396 29.7727 20.7076 29.4589C21.0507 29.1132 21.208 29.0583 21.8535 29.0583C22.8149 29.0583 23.3711 29.4789 23.5387 30.3325L23.6517 30.9085H26.3642L26.3343 30.3603C26.212 28.1266 24.7114 26.6852 22.3507 26.5339C21.7895 26.4978 21.0759 26.5228 20.7649 26.5891ZM30.487 30.4747C29.1315 30.8611 28.0955 31.8986 27.7918 33.174C27.542 34.2226 27.591 34.2663 29.013 34.2663C30.2253 34.2663 30.2417 34.2619 30.2417 33.9314C30.2417 33.747 30.3844 33.4292 30.5588 33.225C30.8125 32.9277 31.0231 32.8414 31.6146 32.7919C32.6049 32.7092 32.9981 33.0065 33.0173 33.8525L33.0307 34.4443L31.3981 34.7487C29.5554 35.0923 29.013 35.2885 28.3516 35.8502C27.1383 36.8807 27.0518 39.0055 28.1741 40.2111C28.7546 40.8347 29.498 41.1125 30.5955 41.116C31.6848 41.1194 32.2886 40.9549 32.9197 40.4833L33.3528 40.1596L33.4389 40.9134H35.7518L35.7882 37.35C35.8294 33.322 35.7424 32.6261 35.0895 31.7636C34.199 30.5877 32.1269 30.0074 30.487 30.4747ZM45.8876 30.4507C45.6257 30.5246 45.1859 30.7654 44.9102 30.9858L44.409 31.3865L44.323 30.6344H42.0101V40.9134H44.5951L44.6631 37.5556C44.7095 35.2683 44.7844 34.1042 44.8981 33.9042C45.1891 33.3927 45.8864 32.8958 46.3129 32.8958C46.8117 32.8958 47.4479 33.214 47.604 33.5417C47.6683 33.6764 47.7522 35.3901 47.7906 37.35L47.8604 40.9134H50.3093L50.3813 37.6926C50.4482 34.703 50.4751 34.4304 50.7568 33.8923C51.3834 32.6954 52.7952 32.5514 53.4034 33.6223C53.5231 33.8331 53.5949 34.9746 53.6426 37.4185L53.7106 40.9134H56.1595L56.1957 37.1529C56.2362 32.9569 56.1592 32.4068 55.4028 31.487C54.2172 30.0456 51.7527 29.9173 50.3871 31.2261L49.8475 31.743L49.3466 31.223C48.5673 30.4141 47.1442 30.0965 45.8876 30.4507ZM61.1934 30.4849C59.135 30.9987 57.6995 32.5531 57.3136 34.6861C56.8591 37.1984 57.9727 39.5235 60.1468 40.6017C61.0103 41.0299 61.1232 41.0504 62.6191 41.0504C64.0617 41.0504 64.2546 41.0188 65.0412 40.6529C66.1322 40.1453 67.2464 38.9693 67.6398 37.9099C68.6446 35.2048 67.6691 32.228 65.3795 31.0124C64.0642 30.314 62.6114 30.131 61.1934 30.4849ZM73.302 30.4118C72.7973 30.5456 72.0556 30.928 71.942 31.1131C71.7981 31.3479 71.6223 31.2659 71.5769 30.9428C71.5356 30.6506 71.4725 30.6344 70.3769 30.6344H69.2205V40.9134H71.8054L71.8735 37.5556C71.9448 34.0333 71.9638 33.9256 72.6203 33.3069C73.1203 32.8357 74.1711 32.8197 74.6247 33.2762C74.9288 33.5823 74.9354 33.6542 74.9753 37.1078C75.0021 39.4147 75.0678 40.6903 75.1662 40.8098C75.2749 40.9416 75.6395 40.9811 76.486 40.9527L77.6557 40.9134L77.692 37.2216C77.7321 33.1395 77.6573 32.5899 76.9232 31.569C76.6943 31.2507 76.2561 30.8829 75.8973 30.708C75.2228 30.3789 73.9669 30.2357 73.302 30.4118ZM64.1306 33.2302C65.7363 34.3006 65.6816 37.2453 64.0359 38.3316C63.5077 38.6802 62.6577 38.7829 61.9122 38.5881C60.6575 38.2602 59.9741 37.2419 59.9779 35.7054C59.9813 34.2763 60.5122 33.4399 61.7376 32.9324C62.3605 32.6744 63.5119 32.8176 64.1306 33.2302ZM33.0568 37.0773C32.8983 38.0613 32.0765 38.7891 31.1238 38.7891C30.3892 38.7891 30.1056 38.5838 30.1056 38.0517C30.1056 37.417 30.4551 37.157 31.697 36.8681C33.1876 36.5212 33.1475 36.5151 33.0568 37.0773Z" fill="white"/>
</svg>