<svg xmlns="http://www.w3.org/2000/svg" width="80" height="50" viewBox="0 0 120 50" fill="none">
<path d="M36.2773 24.9488H33.6748V20.1278H36.2773C37.5361 20.1278 38.5387 21.2038 38.5387 22.5278C38.5387 23.8728 37.5361 24.9488 36.2773 24.9488ZM38.1546 26.7075L38.1973 26.6868C38.4321 26.5831 38.6667 26.4385 38.8587 26.2936C40.0321 25.4453 40.7359 24.059 40.7359 22.5486C40.7359 20.0657 38.8374 18.038 36.5121 18.038H31.4773V31.901H33.6535V27.0387H35.7652L35.7866 27.0594L39.0932 31.901H41.6958L38.1546 26.7075ZM47.9041 29.9352H46.5813V20.0657H47.904C50.2506 20.0657 52.0214 22.2797 52.0214 25.0108C52.0214 27.7213 50.2507 29.9352 47.9041 29.9352V29.9352ZM47.968 18.0587H44.4267V31.9216H47.968C51.424 31.9216 54.1546 28.8179 54.1546 24.9902C54.1546 21.183 51.4026 18.0586 47.968 18.0586V18.0587ZM82.4852 24.9488H79.8828V20.1278H82.4852C83.744 20.1278 84.7467 21.2038 84.7467 22.5278C84.7467 23.8728 83.7439 24.9488 82.4852 24.9488ZM84.3627 26.7075L84.4053 26.6868C84.64 26.5831 84.8747 26.4385 85.0666 26.2936C86.24 25.4453 86.9439 24.059 86.9439 22.5486C86.9439 20.0657 85.0453 18.038 82.7199 18.038H77.6853V31.901H79.8615V27.0387H81.9734L81.9947 27.0594L85.3015 31.901H87.9254L84.3627 26.7075ZM74.8266 18.0587H65.6959V20.0036H69.1307V31.9216H71.392V20.0036H74.8266V18.0587ZM10.7627 32.2938V18.0587H8.58676V26.8936L0.0320435 17.7692V31.9217H2.20808V23.2315L2.29343 23.3142L10.7627 32.2938ZM96.8426 30.1834C93.8986 30.1834 91.5093 27.8662 91.5093 25.0108C91.5093 22.1554 93.8986 19.8381 96.8426 19.8381C99.7866 19.8381 102.176 22.1554 102.176 25.0108C102.176 27.8455 99.7867 30.1834 96.8426 30.1834V30.1834ZM96.8426 17.707C92.704 17.707 89.3334 20.9762 89.3334 24.9902C89.3334 29.0041 92.704 32.2731 96.8426 32.2731C100.981 32.2731 104.352 29.0041 104.352 24.9902C104.352 20.9762 100.981 17.707 96.8426 17.707V17.707ZM21.1307 30.1834C18.1867 30.1834 15.7974 27.8662 15.7974 25.0108C15.7974 22.1554 18.1867 19.8381 21.1307 19.8381C24.0746 19.8381 26.4641 22.1554 26.4641 25.0108C26.4854 27.8455 24.0747 30.1834 21.1307 30.1834V30.1834ZM21.1307 17.707C16.9921 17.707 13.6213 20.9762 13.6213 24.9902C13.6213 29.0041 16.992 32.2731 21.1307 32.2731C25.2694 32.2731 28.6401 29.0041 28.6401 24.9902C28.6614 20.9762 25.2906 17.707 21.1307 17.707V17.707ZM63.8401 28.2593C63.7973 27.5351 63.456 26.0869 61.5147 24.5763L59.808 23.1279C59.0827 22.5692 58.7414 21.9693 58.72 21.2658C58.72 20.4588 59.2747 19.9001 60.1068 19.8587C60.1282 19.8587 61.1733 19.7346 61.8133 20.6037L61.8346 20.645L63.5627 19.5071L63.5414 19.4658C63.2427 19.0104 61.8987 17.7691 60.0854 17.8518C59.0613 17.8931 58.1441 18.2862 57.5041 18.907C56.8427 19.5691 56.5227 20.4381 56.5867 21.4519C56.6508 22.6315 57.3547 23.728 58.8267 24.8867L60.4266 26.2523C61.3228 26.9558 61.7068 27.5556 61.7494 28.2593C61.7921 28.7766 61.6001 29.2732 61.2587 29.6455C60.9601 29.9766 60.6187 30.1214 60.1494 30.1628H60.0427C58.6987 30.1628 58.144 29.2316 57.824 28.6729L57.7386 28.5281L55.8827 29.3973C56.0532 29.8525 57.056 32.1491 60 32.1491H60.0427C61.1093 32.087 62.0907 31.6732 62.7947 30.9697C63.5201 30.2664 63.9041 29.2939 63.8401 28.2593V28.2593ZM113.568 26.211L119.968 17.7897V31.9422H117.792V24.328L113.547 29.8112L109.344 24.328V31.9422H107.168V17.7692L113.568 26.211Z" fill="white"/>
</svg>