<svg xmlns="http://www.w3.org/2000/svg" width="80" height="50" viewBox="0 0 120 50" fill="none">
<path d="M27.9734 17.3135C28.0327 17.1865 28.0818 17.053 28.1539 16.934C28.3492 16.6127 28.6497 16.4403 29.017 16.4371C29.808 16.4296 30.6002 16.4211 31.3896 16.4632C32.0819 16.5006 32.5762 16.8886 32.9077 17.4918C33.9469 19.384 34.9878 21.2752 36.0281 23.1669C36.8587 24.677 37.6892 26.187 38.5209 27.6971C38.5657 27.7787 38.6164 27.8567 38.721 27.925C38.721 27.8236 38.721 27.7227 38.721 27.6213C38.7034 24.3925 38.6869 21.1637 38.6671 17.9348C38.665 17.6135 38.6991 17.2895 38.9495 17.0771C39.1352 16.9196 39.384 16.8267 39.6172 16.7387C39.7352 16.6944 39.8814 16.7221 40.0144 16.7221C48.4731 16.7221 56.9324 16.7221 65.3911 16.7221C65.4979 16.7221 65.6046 16.721 65.7114 16.728C66.117 16.7552 66.3871 17.0296 66.3962 17.4331C66.4037 17.7801 66.4032 18.127 66.3967 18.474C66.3893 18.8876 66.1203 19.1727 65.7055 19.2116C65.6084 19.2207 65.5101 19.2154 65.4119 19.2154C57.7266 19.2154 50.0419 19.2154 42.3566 19.2154C42.2338 19.2154 42.111 19.2154 41.9477 19.2154V19.6045C41.9477 23.856 41.9466 28.1081 41.9498 32.3596C41.9498 32.7274 41.8698 33.0642 41.5559 33.2713C41.3803 33.3871 41.1508 33.4698 40.9426 33.4773C40.2498 33.5024 39.5553 33.4912 38.8614 33.4859C38.1808 33.4805 37.67 33.1773 37.338 32.5822C35.4623 29.2231 33.5882 25.8635 31.7125 22.5045C31.6271 22.3513 31.538 22.1997 31.4505 22.0471L31.38 22.0551C31.38 22.1533 31.38 22.252 31.38 22.3502C31.3976 25.6858 31.4142 29.0214 31.4355 32.3564C31.4377 32.7242 31.3592 33.0615 31.0453 33.2697C30.8702 33.386 30.6418 33.4629 30.432 33.4773C29.9804 33.5083 29.5251 33.4896 29.072 33.4869C28.5083 33.4832 28.2088 33.2611 28.0279 32.7215C28.0172 32.6895 27.9921 32.6622 27.9734 32.6334V17.3135Z" fill="white"/>
<path d="M84.9807 33.7004C84.7939 33.6545 84.607 33.6086 84.4202 33.5633C82.1687 33.0167 80.7163 31.5926 80.0198 29.4222C79.328 27.2658 79.5522 25.1824 80.8359 23.2854C81.9013 21.7113 83.4397 20.9138 85.3266 20.7937C86.6631 20.7089 87.9517 20.8962 89.1292 21.5832C90.6355 22.4623 91.4698 23.8176 91.8557 25.4824C91.9171 25.7477 91.9699 26.0146 92.0265 26.281V27.562C91.797 28.0846 91.3758 28.2095 90.8389 28.2063C88.3237 28.1913 85.8086 28.1993 83.2934 28.2004C83.1824 28.2004 83.0708 28.2106 82.9352 28.2175C83.0062 29.0155 83.3003 29.6726 83.8464 30.2085C85.0805 31.4207 87.2978 31.2504 88.328 29.8567C88.5724 29.5263 88.8596 29.364 89.2728 29.3779C89.8231 29.3961 90.3766 29.4116 90.9253 29.3737C91.4223 29.3395 91.7057 29.8444 91.5547 30.2122C91.4068 30.572 91.2899 30.9536 91.0849 31.2782C90.3643 32.4183 89.2664 33.0439 88.0072 33.4175C87.6106 33.5355 87.2001 33.607 86.7955 33.7004H84.9807ZM88.6792 25.8059C88.6877 24.7015 87.5529 23.2128 85.6132 23.3297C84.0359 23.4247 83.0089 24.7437 83.0207 25.8059H88.6792Z" fill="white"/>
<path d="M48.4704 33.7004C48.2735 33.6551 48.0754 33.6124 47.879 33.5638C45.5309 32.9836 44.0508 31.481 43.4124 29.1895C42.7569 26.8372 43.1124 24.6337 44.7249 22.7335C45.7727 21.4989 47.1611 20.8952 48.7677 20.7932C50.0018 20.7148 51.2028 20.861 52.3168 21.4348C54.0302 22.3177 54.9633 23.7808 55.338 25.6266C55.4399 26.1283 55.48 26.6477 55.4949 27.1606C55.5152 27.8513 55.1549 28.1945 54.4674 28.1983C53.7116 28.2026 52.9552 28.1994 52.1994 28.1994C50.3851 28.1994 48.5702 28.1994 46.7559 28.1994C46.6444 28.1994 46.5328 28.1994 46.4234 28.1994C46.3924 29.4463 47.4248 30.7017 48.6791 30.928C49.9629 31.1597 51.0817 30.8794 51.8749 29.7462C52.0489 29.4975 52.2976 29.379 52.6067 29.3817C53.2023 29.3859 53.7996 29.4068 54.3943 29.3737C54.8245 29.3496 55.1325 29.7382 55.0252 30.1749C54.8693 30.81 54.5635 31.3662 54.1204 31.844C53.2136 32.8218 52.0606 33.3305 50.7753 33.5835C50.5938 33.6193 50.4134 33.6609 50.2319 33.6999H48.4704V33.7004ZM46.4816 25.8043H52.1967C52.1332 24.6145 50.9375 23.2657 49.182 23.3238C47.7461 23.3714 46.465 24.5248 46.4816 25.8043Z" fill="white"/>
<path d="M60.5871 33.7004C60.2429 33.6246 59.8959 33.5606 59.5553 33.4709C58.4622 33.1832 57.4688 32.7103 56.6986 31.8541C56.2299 31.3331 55.9534 30.7342 55.9967 30.0131C56.0196 29.6304 56.2534 29.3881 56.642 29.3843C57.1934 29.379 57.7453 29.3875 58.2967 29.3817C58.696 29.3774 58.9751 29.5343 59.1257 29.9181C59.3034 30.3691 59.6669 30.6419 60.0939 30.8223C60.9981 31.205 61.928 31.204 62.8583 30.9323C63.2694 30.8122 63.5854 30.5666 63.7023 30.1231C63.825 29.6582 63.7071 29.2829 63.2662 29.102C62.6865 28.8639 62.079 28.6878 61.4753 28.5153C60.5386 28.2485 59.5762 28.0595 58.6581 27.7398C57.796 27.4398 57.0696 26.8959 56.6249 26.0621C55.8093 24.5328 56.3938 22.6048 57.9615 21.6376C58.942 21.0329 60.0283 20.8124 61.1652 20.7804C62.6374 20.7388 64.0348 20.9896 65.271 21.8437C65.9313 22.3001 66.4427 22.8803 66.6252 23.6911C66.6599 23.8453 66.6732 24.0081 66.6722 24.1667C66.67 24.4725 66.4448 24.7117 66.1368 24.717C65.5496 24.7271 64.9625 24.7266 64.3759 24.7143C64.1602 24.7095 63.9451 24.6513 63.8432 24.425C63.4871 23.635 62.806 23.3116 62.0107 23.247C61.4881 23.2043 60.948 23.2641 60.427 23.3484C60.0379 23.4114 59.7368 23.6617 59.6077 24.0685C59.4555 24.5473 59.5692 24.9049 60.0208 25.1168C60.403 25.2956 60.8124 25.4253 61.2207 25.5395C62.3395 25.8529 63.4807 26.0952 64.5814 26.4614C65.6831 26.8281 66.5281 27.5455 66.8675 28.7075C67.3239 30.2704 66.8254 31.9454 65.1093 32.8886C64.3679 33.2958 63.5699 33.5232 62.7361 33.638C62.6587 33.6487 62.5845 33.6786 62.5082 33.6994H60.5866L60.5871 33.7004Z" fill="white"/>
<path d="M91.0657 16.2994C91.544 16.5017 91.7388 16.8636 91.702 17.3771C91.6806 17.6776 91.7004 17.9813 91.6972 18.2834C91.6918 18.7723 91.3625 19.1209 90.8757 19.1556C90.8138 19.1599 90.7513 19.1572 90.6889 19.1572C87.5246 19.1572 84.3604 19.1572 81.1962 19.1561C81.0814 19.1561 80.9651 19.1492 80.8525 19.1278C80.6016 19.0798 80.4655 18.9159 80.4553 18.6645C80.4446 18.4072 80.4452 18.1489 80.4543 17.8916C80.4655 17.5778 80.6454 17.3706 80.9571 17.336C81.9979 17.2201 83.0393 17.1139 84.0813 17.0066C85.0522 16.9068 86.0242 16.8113 86.9957 16.7136C87.9848 16.6143 88.9738 16.5182 89.9624 16.4152C90.2421 16.3858 90.5202 16.3383 90.7994 16.2988C90.8885 16.2988 90.9771 16.2988 91.0662 16.2988L91.0657 16.2994Z" fill="white"/>
<path d="M71.6422 23.579C71.6374 23.6655 71.6293 23.7445 71.6288 23.8229C71.6283 25.5839 71.6224 27.3453 71.631 29.1062C71.6347 29.8493 71.8925 30.4807 72.6067 30.8047C72.8875 30.9317 73.2211 30.975 73.5344 30.991C74.2123 31.0268 74.4509 31.2477 74.4514 31.9171C74.4514 32.184 74.4568 32.4509 74.4498 32.7178C74.4381 33.1955 74.1541 33.4965 73.6838 33.4832C72.8955 33.4608 72.0884 33.5067 71.324 33.3524C69.6955 33.0231 68.5068 31.6048 68.448 29.9437C68.3867 28.2116 68.4166 26.4758 68.4069 24.7421C68.4048 24.3535 68.4069 23.9649 68.4069 23.5454C68.1641 23.5454 67.9527 23.5486 67.7419 23.5448C67.301 23.5363 67.0111 23.2454 67.0058 22.804C67.002 22.5018 66.9988 22.1992 67.0069 21.8965C67.0175 21.4973 67.2844 21.2357 67.681 21.2202C67.91 21.2112 68.2532 21.2838 68.3397 21.1669C68.4614 21.0019 68.4037 20.6966 68.4053 20.4511C68.4101 19.526 68.4053 18.601 68.408 17.676C68.4101 16.8876 68.7427 16.5545 69.5268 16.5497C69.909 16.5476 70.2917 16.5428 70.6739 16.5518C71.276 16.5668 71.6256 16.9249 71.6272 17.5292C71.6304 18.641 71.6283 19.7529 71.6283 20.8647C71.6283 21.101 71.751 21.2193 71.9966 21.2197C72.5923 21.2197 73.1885 21.2176 73.7842 21.2208C74.2486 21.2234 74.4936 21.4626 74.5032 21.9238C74.5096 22.2259 74.5101 22.5285 74.5032 22.8312C74.4925 23.2699 74.2182 23.54 73.7762 23.5438C73.0914 23.5502 72.4065 23.5486 71.7217 23.5518C71.7051 23.5518 71.6886 23.563 71.6422 23.5795V23.579Z" fill="white"/>
<path d="M75.2206 25.0196C75.2206 22.5557 75.2339 20.0913 75.2115 17.6274C75.2062 17.0103 75.6391 16.547 76.2369 16.5513C76.6815 16.5545 77.1267 16.5396 77.5713 16.5534C78.2439 16.5743 78.6106 16.9644 78.6106 17.6423C78.6111 22.5616 78.6111 27.4814 78.6106 32.4007C78.6106 33.1058 78.2289 33.4848 77.5212 33.4869C77.0941 33.4885 76.6671 33.4901 76.2401 33.4864C75.6465 33.4816 75.2772 33.1143 75.2766 32.5187C75.274 30.019 75.2756 27.5193 75.2756 25.0196C75.2574 25.0196 75.2393 25.0196 75.2211 25.0196H75.2206Z" fill="white"/>
</svg>