<svg xmlns="http://www.w3.org/2000/svg" width="80" height="50" viewBox="0 0 120 50" fill="none">
<path fill-rule="evenodd" clip-rule="evenodd" d="M87.2396 9.01336C86.6132 9.04325 85.9443 9.15641 85.1767 9.36237C84.9007 9.43641 84.273 9.6674 83.9742 9.8049C82.9649 10.2693 82.1672 10.8205 81.4094 11.5773C80.9467 12.0393 80.6005 12.4675 80.2902 12.9613C80.2347 13.0499 80.1892 13.1191 80.1892 13.1151C80.1892 13.1112 80.2335 13.0091 80.2877 12.8883C80.3887 12.6631 80.7379 11.8803 81.4289 10.3302C81.6445 9.84671 81.8454 9.39697 81.8753 9.33079C81.9053 9.26461 81.9298 9.20327 81.9298 9.19448C81.9298 9.18491 80.8493 9.18027 79.2451 9.18293L76.5603 9.18737L76.4715 9.38145C76.4226 9.48819 76.3616 9.62269 76.336 9.68034C76.3104 9.738 76.2049 9.9711 76.1017 10.1984C75.906 10.6289 75.7244 11.0297 75.4281 11.6841C75.3318 11.8968 75.1758 12.241 75.0814 12.4489C74.987 12.6568 74.8919 12.8665 74.8701 12.9148C74.8483 12.9632 74.7712 13.1333 74.6988 13.2928C74.6264 13.4524 74.5511 13.6185 74.5315 13.6621C74.5119 13.7056 74.338 14.0893 74.1451 14.5148C73.9522 14.9403 73.7644 15.3557 73.7277 15.4379C73.6911 15.5201 73.6359 15.6427 73.6051 15.7104C73.5743 15.7781 73.5225 15.8928 73.4901 15.9653C73.4577 16.0379 73.4155 16.1149 73.3964 16.1365C73.3244 16.2179 73.1894 16.2023 73.1169 16.1044L73.0832 16.0588L73.2092 15.6384C73.2785 15.4072 73.3457 15.1825 73.3586 15.139C73.3714 15.0954 73.4071 14.9765 73.4379 14.8746L73.4939 14.6894L73.2708 14.1641C73.1481 13.8752 73.0295 13.5986 73.0072 13.5494C72.9849 13.5001 72.5631 12.5183 72.0698 11.3676C71.5765 10.2168 71.1629 9.25352 71.1508 9.2269L71.1286 9.17853L65.7381 9.18294L60.3476 9.18737V12.7742V16.3609L60.4042 16.6686C60.4708 17.0305 60.4898 17.1389 60.5835 17.6884C60.6223 17.9156 60.666 18.1688 60.6807 18.251C60.7817 18.8152 60.8006 18.9566 60.7808 19C60.7551 19.0563 60.6499 19.1012 60.5761 19.0873C60.4809 19.0695 60.4519 19.0183 60.4014 18.7785C60.376 18.6576 60.3438 18.5073 60.33 18.4444C60.3162 18.3816 60.2854 18.2352 60.2615 18.1192C59.9743 16.7228 59.9459 16.5968 59.7525 15.8598C59.5613 15.1308 59.5105 14.9375 59.478 14.8154C59.4597 14.7468 59.4205 14.5976 59.3907 14.484C59.361 14.3704 59.3123 14.1845 59.2825 14.0708C59.2527 13.9572 59.2097 13.793 59.1869 13.706C59.1642 13.619 59.1206 13.4528 59.0902 13.3368C59.0599 13.2207 59.0163 13.0546 58.9935 12.9676C58.9708 12.8805 58.9272 12.7144 58.8968 12.5983C58.8665 12.4823 58.8224 12.3142 58.799 12.2247C58.7756 12.1352 58.7372 11.9889 58.7138 11.8994C58.6904 11.81 58.6469 11.6438 58.6171 11.5302C58.5874 11.4166 58.5386 11.2307 58.5089 11.117C58.4791 11.0034 58.4356 10.8373 58.4122 10.7478C58.3888 10.6584 58.3504 10.512 58.327 10.4225C58.2251 10.0333 58.1729 9.8341 58.1243 9.64891C58.0957 9.54011 58.0601 9.40385 58.0451 9.34611C58.0301 9.28835 58.0134 9.22702 58.0079 9.20984C57.9985 9.18001 57.8058 9.17858 53.7619 9.17858H49.5257V16.8796V24.5806H52.1104H54.6952L54.6906 20.9015L54.6861 17.2225L54.6282 16.9675C54.5964 16.8273 54.5512 16.6176 54.5277 16.5016C54.5043 16.3855 54.4607 16.1759 54.4309 16.0357C54.401 15.8954 54.3574 15.6858 54.334 15.5697C54.3105 15.4537 54.2786 15.2994 54.2631 15.2269C54.0923 14.4273 54.0864 14.3736 54.1654 14.3313C54.2174 14.3034 54.3562 14.3087 54.4045 14.3404C54.4563 14.3743 54.4534 14.3652 54.6075 14.9719C54.6762 15.2427 54.7907 15.6937 54.862 15.9741C55.187 17.2541 55.2855 17.6416 55.4006 18.0928C55.4684 18.3587 55.59 18.8374 55.6708 19.1565C55.8719 19.9503 56.0735 20.7443 56.2311 21.3631C56.3037 21.6483 56.4354 22.1666 56.5237 22.5147C56.892 23.9664 57.0287 24.5014 57.0437 24.5499C57.0528 24.579 57.2704 24.5806 61.2894 24.5806H65.5256L65.5266 16.9367L65.5277 9.29287L65.5839 9.40715C65.6148 9.47001 65.7028 9.65594 65.7794 9.82033C65.856 9.98473 65.9687 10.2249 66.0298 10.3541C66.091 10.4833 66.1409 10.5914 66.1409 10.5944C66.1409 10.5973 66.1796 10.6815 66.2267 10.7815C66.2739 10.8814 66.3897 11.1293 66.4841 11.3324C66.5785 11.5355 66.7021 11.7995 66.7587 11.9191C66.8154 12.0387 66.8618 12.1386 66.8618 12.1411C66.8618 12.1436 66.9044 12.2356 66.9565 12.3456C67.0085 12.4556 67.1066 12.6643 67.1744 12.8093C67.2422 12.9544 67.3349 13.1522 67.3805 13.2489C67.4261 13.3456 67.4774 13.4563 67.4944 13.495C67.5209 13.5551 67.8693 14.3023 68.097 14.7873C68.1356 14.8695 68.189 14.9842 68.2156 15.0423C68.2423 15.1003 68.2957 15.215 68.3343 15.2972C68.3729 15.3794 68.46 15.5653 68.5279 15.7104C68.5959 15.8554 68.6888 16.0532 68.7344 16.1499C68.7799 16.2466 68.8312 16.3574 68.8482 16.3961C68.8747 16.4562 69.2231 17.2034 69.4508 17.6884C69.4894 17.7706 69.5428 17.8853 69.5695 17.9433C69.5961 18.0014 69.6495 18.1161 69.6881 18.1983C69.976 18.8115 70.0912 19.0587 70.165 19.2215C70.1856 19.2669 70.2539 19.412 70.3167 19.544C70.3796 19.676 70.431 19.7864 70.431 19.7894C70.431 19.7924 70.4864 19.9111 70.5541 20.0532C70.6218 20.1953 70.6772 20.3137 70.6772 20.3165C70.6772 20.3193 70.7245 20.4215 70.7824 20.5436C70.8404 20.6658 70.9238 20.8444 70.9679 20.9406L71.048 21.1154L71.0123 21.1997C70.9927 21.246 70.9144 21.4462 70.8383 21.6444C70.7622 21.8426 70.6265 22.1947 70.5366 22.4268C70.4468 22.6589 70.3596 22.8844 70.3428 22.9279C70.2554 23.1543 70.0279 23.7433 69.8788 24.1287C69.786 24.3685 69.7101 24.5683 69.7101 24.5727C69.7101 24.577 70.9188 24.5806 72.396 24.5806H75.0819L75.1688 24.3828C75.2166 24.274 75.2772 24.1376 75.3035 24.0795C75.3297 24.0215 75.3825 23.9028 75.4207 23.8158C75.4856 23.6681 75.6825 23.2269 75.7571 23.0623C75.7752 23.0222 75.8532 22.847 75.9304 22.673C76.0903 22.3122 76.5674 21.242 77.0512 20.1587C77.2326 19.7525 77.4121 19.349 77.4502 19.262C77.4883 19.175 77.5426 19.0538 77.5708 18.9926C77.599 18.9315 77.6221 18.8786 77.6221 18.875C77.6221 18.8714 77.6538 18.8003 77.6925 18.7169C77.7312 18.6336 77.7628 18.5625 77.7628 18.559C77.7628 18.5554 77.7895 18.4945 77.8221 18.4237C77.8547 18.3529 77.9903 18.0497 78.1234 17.7499C78.2565 17.4501 78.3834 17.1653 78.4055 17.117C78.4275 17.0686 78.4768 16.9578 78.515 16.8708C78.6135 16.6466 79.3064 15.0953 79.3553 14.9895C79.4091 14.8732 79.4077 14.8927 79.3459 15.1267C79.0018 16.429 79.0521 17.9522 79.4808 19.218C79.6608 19.7496 79.9274 20.3182 80.2043 20.7616C81.3637 22.6177 83.3899 23.9441 85.7803 24.4119C87.0361 24.6576 88.4131 24.6637 89.5781 24.4287C89.8462 24.3746 89.9463 24.3508 90.3147 24.2532C90.5277 24.1968 91.0544 24.0099 91.3313 23.8924C92.8813 23.2348 94.1622 22.1799 95.0423 20.8362C95.115 20.7252 95.1752 20.6242 95.1762 20.6116C95.1772 20.5989 95.1028 20.5484 95.011 20.4993C94.8033 20.3882 93.9257 19.9158 93.8066 19.8509C93.6529 19.7673 93.039 19.4373 92.8747 19.35C92.7877 19.3038 92.6928 19.2523 92.6637 19.2356C92.6347 19.2189 92.5437 19.1695 92.4616 19.1258C92.3794 19.0821 92.1103 18.9376 91.8638 18.8048C91.6172 18.6719 91.3561 18.5315 91.2835 18.4926C91.211 18.4538 91.1037 18.3956 91.0451 18.3632L90.9384 18.3044L90.8394 18.4579C90.5496 18.9071 90.107 19.3277 89.6484 19.5898C89.0569 19.9277 88.4648 20.0798 87.7415 20.0794C87.0241 20.079 86.4125 19.9463 85.84 19.6668C85.1104 19.3105 84.6027 18.7821 84.3302 18.0953C84.1832 17.7248 84.1385 17.4699 84.1401 17.0115C84.1417 16.5238 84.1934 16.2083 84.342 15.7807C84.4186 15.56 84.6157 15.1792 84.756 14.9807C84.8949 14.7842 85.2725 14.3993 85.4725 14.2503C85.9418 13.9007 86.4706 13.6817 87.1341 13.5623C87.3792 13.5182 88.1114 13.5184 88.3561 13.5627C89.0374 13.6861 89.6099 13.9381 90.088 14.3252C90.3502 14.5375 90.6458 14.8631 90.8226 15.1343C90.8682 15.2043 90.9126 15.2617 90.9212 15.2618C90.9298 15.2619 91.1711 15.1343 91.4575 14.9782C91.7438 14.8221 92.0295 14.6667 92.0923 14.6328C92.1552 14.5989 92.3332 14.5023 92.4879 14.418C93.0836 14.0936 93.3889 13.9276 93.4989 13.868C94.2151 13.4802 95.1455 12.971 95.1555 12.9614C95.1697 12.9478 94.9226 12.5736 94.7474 12.3434C93.9822 11.3376 93.0051 10.532 91.8462 9.95122C90.8803 9.4672 89.9242 9.18871 88.7693 9.05494C88.4702 9.02033 87.5935 8.99648 87.2396 9.01336ZM46.1773 25.2936C45.4585 25.3456 44.615 25.4972 44.0143 25.6822C42.5118 26.1449 41.3144 26.8457 40.3112 27.8494C39.7146 28.4462 39.2947 29.0242 38.9179 29.7674C38.8222 29.956 38.7484 30.0944 38.7537 30.0751C38.7689 30.0202 38.8836 29.5844 38.9342 29.3894C38.9593 29.2927 38.9902 29.1779 39.0028 29.1344C39.0154 29.0909 39.0471 28.9722 39.0733 28.8707C39.0995 28.7692 39.132 28.6465 39.1456 28.5982C39.1822 28.4681 39.2954 28.0436 39.3893 27.6839C39.4703 27.3741 39.5303 27.1479 39.583 26.9542C39.5974 26.901 39.6291 26.7824 39.6533 26.6905C39.6775 26.5986 39.7094 26.4799 39.7242 26.4268C39.7677 26.2699 39.9962 25.4047 39.9962 25.3967C39.9962 25.3927 38.7757 25.3894 37.2841 25.3894H34.572L34.3542 26.3432C34.2344 26.8678 34.1213 27.3604 34.103 27.4377C34.0595 27.621 34.0423 27.6947 34.0104 27.8333C33.996 27.8962 33.9636 28.0347 33.9384 28.141C33.9133 28.2474 33.886 28.3661 33.8779 28.4048C33.8577 28.5005 33.8243 28.6467 33.7372 29.0201C33.6966 29.1942 33.653 29.3841 33.6404 29.4421C33.6277 29.5001 33.4733 30.1727 33.2973 30.9366C33.1212 31.7006 32.966 32.375 32.9524 32.4354C32.9387 32.4958 32.9151 32.5987 32.8999 32.664C32.8847 32.7293 32.8651 32.8144 32.8563 32.8531C32.7969 33.1143 32.6728 33.6522 32.6291 33.8377C32.6109 33.915 32.5092 34.3581 32.4031 34.8223L32.2103 35.6662L32.1908 36.053C32.1525 36.814 32.1367 36.9812 32.0994 37.0201C32.053 37.0684 31.8759 37.0702 31.8236 37.023C31.782 36.9853 31.7815 36.9796 31.7416 36.2113C31.7265 35.9212 31.7067 35.6482 31.6975 35.6047C31.6676 35.4625 31.4883 34.6626 31.4513 34.5058C31.4421 34.4671 31.3987 34.2733 31.3547 34.075C31.3107 33.8768 31.2672 33.6829 31.258 33.6443C31.2488 33.6056 31.1973 33.3761 31.1436 33.1344C31.0899 32.8926 31.0346 32.6474 31.0207 32.5893C31.0069 32.5313 30.963 32.3375 30.9232 32.1586C30.8834 31.9797 30.84 31.7858 30.8267 31.7278C30.8134 31.6698 30.7582 31.4245 30.704 31.1828C30.593 30.6872 30.5609 30.5456 30.537 30.4443C30.5278 30.4056 30.4844 30.2118 30.4404 30.0135C30.3965 29.8153 30.3528 29.6215 30.3433 29.5828C30.3339 29.5441 30.2903 29.3502 30.2465 29.152C30.1713 28.8118 30.136 28.656 30.0974 28.4927C30.0883 28.454 30.0448 28.2601 30.0009 28.0619C29.9569 27.8637 29.9134 27.6698 29.9042 27.6311C29.895 27.5925 29.8435 27.363 29.7898 27.1213C29.736 26.8795 29.6808 26.6342 29.6669 26.5762C29.6531 26.5182 29.5976 26.2729 29.5436 26.0312C29.4897 25.7894 29.4356 25.5481 29.4234 25.4949L29.4013 25.3982L26.7006 25.3938L24 25.3893L24.0134 25.4465C24.0208 25.478 24.0561 25.6145 24.0918 25.7498C24.1275 25.8852 24.1806 26.087 24.2097 26.1982C24.2389 26.3094 24.2786 26.4597 24.298 26.5323C24.3174 26.6048 24.3642 26.7828 24.4021 26.9279C24.44 27.0729 24.5135 27.3538 24.5656 27.552C24.6176 27.7503 24.6934 28.0391 24.734 28.1938C24.8121 28.4912 24.8339 28.5737 24.938 28.9674C24.9739 29.1028 25.033 29.3283 25.0694 29.4685C25.1058 29.6087 25.1516 29.7828 25.1713 29.8553C25.1909 29.9278 25.2357 30.0979 25.2709 30.2333C25.3061 30.3687 25.3496 30.5348 25.3676 30.6025C25.3856 30.6702 25.4291 30.8364 25.4643 30.9718C25.4995 31.1072 25.5429 31.2733 25.5609 31.341C25.5789 31.4087 25.618 31.557 25.6477 31.6707C25.8554 32.4641 25.8851 32.5769 25.9772 32.9234C26.0208 33.0878 26.0905 33.3528 26.1319 33.5124C26.1733 33.672 26.2325 33.8975 26.2633 34.0135C26.2941 34.1295 26.3471 34.3313 26.3811 34.4618C26.415 34.5924 26.4576 34.7546 26.4756 34.8223C26.4936 34.89 26.5361 35.0522 26.5701 35.1827C26.6041 35.3133 26.6435 35.4636 26.6576 35.5168C26.6717 35.57 26.7077 35.7064 26.7376 35.8201C26.7675 35.9337 26.8163 36.1196 26.8462 36.2333C26.8761 36.3469 26.9121 36.4834 26.9262 36.5365C26.9403 36.5897 26.9797 36.7401 27.0137 36.8706C27.0477 37.0012 27.0902 37.1634 27.1082 37.231C27.1262 37.2987 27.1652 37.4471 27.195 37.5607C27.2247 37.6743 27.2734 37.8603 27.3031 37.9739C27.3329 38.0875 27.3731 38.2398 27.3925 38.3124C27.4119 38.3849 27.4586 38.5629 27.4963 38.708C27.5341 38.853 27.5881 39.0587 27.6165 39.1651C27.6448 39.2715 27.6969 39.4693 27.7323 39.6046C27.7677 39.74 27.8154 39.922 27.8382 40.009C27.861 40.0961 27.9043 40.2622 27.9344 40.3783C27.9646 40.4943 27.996 40.613 28.0044 40.642C28.0127 40.671 28.0243 40.7165 28.0302 40.7431L28.0409 40.7915L31.9731 40.7871L35.9054 40.7827L35.9183 40.7387C35.9254 40.7145 35.9526 40.6117 35.9786 40.5101C36.0047 40.4086 36.0365 40.2899 36.0493 40.2464C36.0621 40.2029 36.1295 39.9497 36.1991 39.6838C36.2687 39.4178 36.3553 39.0895 36.3916 38.9541C36.428 38.8187 36.4913 38.5814 36.5325 38.4266C36.5736 38.2719 36.6369 38.0346 36.6732 37.8992C36.7094 37.7638 36.7647 37.5541 36.796 37.4332C36.8273 37.3124 36.8632 37.1779 36.8756 37.1343C36.8881 37.0908 36.9317 36.9286 36.9726 36.7739C37.0134 36.6192 37.0766 36.3818 37.113 36.2464C37.1494 36.1111 37.2164 35.8579 37.2619 35.6838C37.3428 35.374 37.4029 35.1478 37.4555 34.9541C37.47 34.901 37.5016 34.7823 37.5259 34.6904C37.5501 34.5985 37.5818 34.4799 37.5963 34.4267C37.6466 34.2428 37.7592 33.8192 37.816 33.6003C37.8856 33.332 38 32.9021 38.0335 32.7827C38.0471 32.7344 38.0797 32.6118 38.1058 32.5102C38.132 32.4087 38.1644 32.294 38.1779 32.2553C38.2012 32.1881 38.2018 32.1917 38.191 32.3344C38.1692 32.6239 38.1806 33.4746 38.21 33.7498C38.363 35.1793 38.8364 36.429 39.652 37.5563C40.1166 38.1985 40.7386 38.8243 41.3852 39.2999C42.5335 40.1448 43.8772 40.6912 45.3324 40.9049C45.8907 40.9869 45.9911 40.9926 46.8532 40.992C47.7233 40.9914 47.8912 40.9808 48.4708 40.89C49.9689 40.6553 51.4274 40.0286 52.5411 39.1411C53.5943 38.3018 54.3995 37.2527 54.9111 36.053C54.9647 35.9273 55.0213 35.7889 55.037 35.7453C55.1693 35.3772 55.2788 35.0098 55.3437 34.7168C55.5795 33.6508 55.597 32.4523 55.3903 31.5221C55.2707 30.9838 55.1027 30.4662 54.9168 30.063C54.8915 30.008 54.8707 29.9586 54.8707 29.9531C54.8707 29.9337 59.1487 29.9425 59.2192 29.9621C59.301 29.9848 59.4214 30.0899 59.4536 30.1668C59.4733 30.2138 59.4773 31.1153 59.4773 35.4986V40.7739H62.0707H64.664V35.4876V30.2012L64.7085 30.1254C64.7359 30.0786 64.7847 30.0309 64.8359 30.0008L64.919 29.952L67.1212 29.9473L69.3233 29.9427V35.3671V40.7914H75.3101H81.2968L81.299 38.7387C81.3004 37.4834 81.3072 36.7338 81.3166 36.8091C81.4262 37.6931 81.7075 38.4091 82.1763 38.9981C82.3096 39.1655 82.5789 39.4323 82.7649 39.5811C83.5042 40.1726 84.5798 40.5838 85.9473 40.7978C86.893 40.9458 87.4873 40.9894 88.5847 40.9913C89.4308 40.9928 89.5946 40.984 90.2022 40.9053C91.2061 40.7752 92.1149 40.5407 92.8956 40.2102C94.5439 39.5125 95.5931 38.4139 95.907 37.057C95.9795 36.7437 96.0009 36.5249 96 36.1058C95.9989 35.608 95.9576 35.3005 95.8376 34.8973C95.3868 33.3829 94.0566 32.2689 91.7615 31.4837C91.3666 31.3486 90.4625 31.08 89.5077 30.8142C89.3095 30.759 89.0326 30.6819 88.8924 30.6429C88.0834 30.4178 87.9994 30.3879 87.8502 30.2723C87.6963 30.1531 87.6168 29.9539 87.6606 29.7972C87.7449 29.4964 88.1659 29.3821 88.3957 29.5976C88.4644 29.662 88.5231 29.8096 88.5231 29.9175V29.996L91.9297 29.9916L95.3362 29.9872L95.3315 29.741C95.2968 27.9306 94.1006 26.5726 91.9429 25.894C91.7936 25.8471 91.4451 25.751 91.3715 25.7364C91.3473 25.7317 91.2365 25.7077 91.1253 25.6832C89.8987 25.4128 88.0073 25.3442 86.7034 25.5226C86.434 25.5595 86.0252 25.6308 85.8594 25.6697C85.3981 25.7781 85.2399 25.8217 84.9012 25.9339C84.1067 26.197 83.472 26.5216 82.8617 26.9771C82.6655 27.1235 82.175 27.6091 82.0324 27.7982C81.6619 28.2892 81.4193 28.8415 81.3232 29.4127C81.3039 29.527 81.3002 29.2296 81.2986 27.4685L81.2968 25.3895L75.3233 25.385C72.0378 25.3826 66.0445 25.3826 62.0047 25.385L54.6597 25.3895V27.4678V29.5461L54.5698 29.3886C53.9289 28.2658 52.8409 27.2037 51.6268 26.516C50.0066 25.5981 48.0456 25.1583 46.1773 25.2936ZM47.3105 29.9517C48.7663 30.1243 49.9066 30.995 50.3159 32.2465C50.5037 32.8211 50.5037 33.5356 50.3159 34.1102C49.9565 35.2091 49.0385 36.0261 47.829 36.3235C47.163 36.4872 46.4473 36.4822 45.7649 36.3091C44.6221 36.0193 43.7494 35.2507 43.4079 34.2333C43.2805 33.8538 43.2416 33.6121 43.2423 33.2047C43.2432 32.6264 43.3428 32.1926 43.5788 31.7377C43.742 31.4232 43.9054 31.2056 44.1748 30.944C44.3699 30.7546 44.4632 30.6792 44.673 30.5415C45.1589 30.2224 45.7261 30.023 46.3697 29.945C46.5741 29.9202 47.0752 29.9238 47.3105 29.9517ZM81.2793 30.1767C81.2793 30.3855 81.3171 30.7206 81.3685 30.9674C81.633 32.2374 82.4754 33.2336 83.9075 33.97C84.695 34.3749 85.4159 34.6213 86.8646 34.9806C87.9221 35.2429 88.295 35.3361 88.4001 35.3643C88.4532 35.3786 88.5583 35.407 88.6334 35.4274C89.055 35.5417 89.3218 35.6661 89.4819 35.8231C89.6379 35.976 89.6891 36.092 89.6808 36.2732C89.6696 36.5185 89.5428 36.6744 89.341 36.6911C89.0932 36.7116 88.8942 36.563 88.8297 36.3092L88.8094 36.2289L81.8223 36.2201L74.8354 36.2113L74.7341 36.1616C74.4014 35.9982 74.4288 35.5492 74.7805 35.4022C74.8349 35.3795 75.1932 35.3761 77.5337 35.3761H80.2243V33.0904V30.8047H77.5407C75.485 30.8047 74.8401 30.7997 74.7847 30.7834C74.6801 30.7524 74.5412 30.6089 74.5109 30.5004C74.4724 30.3622 74.5084 30.2414 74.6219 30.1283C74.6716 30.0788 74.74 30.0296 74.7738 30.0189C74.8177 30.0051 75.762 29.999 78.0573 29.9977L81.2793 29.996V30.1767ZM38.2144 32.163C38.2095 32.1751 38.2056 32.1652 38.2056 32.141C38.2056 32.1168 38.2095 32.1069 38.2144 32.119C38.2193 32.1311 38.2193 32.1509 38.2144 32.163Z" fill="white"/>
</svg>