<svg xmlns="http://www.w3.org/2000/svg" width="80" height="50" viewBox="0 0 120 50" fill="none">
<path fill-rule="evenodd" clip-rule="evenodd" d="M28.207 13.2955C27.5639 13.4483 26.5285 13.9419 25.8683 14.4108C25.3102 14.8068 25.2905 14.7976 25.2343 14.1129L25.1856 13.5191L23.7326 13.4735L22.2795 13.4281V25.1515V36.875H23.7718H25.2641V32.4333V27.9915L25.7833 28.3907C28.0645 30.1447 31.5625 30.0353 33.9418 28.1356C34.7445 27.4948 35.6606 26.0792 36.1024 24.7969C36.5334 23.5457 36.692 20.9023 36.4278 19.373C36.1803 17.9398 35.3843 16.2461 34.4907 15.2512C33.0158 13.6091 30.3633 12.7834 28.207 13.2955ZM45.5281 13.2379C45.0609 13.4157 44.0684 14.301 43.3198 15.2079L42.5562 16.1329L42.5105 14.8259L42.4649 13.5191L41.0119 13.4735L39.5588 13.4281V21.3512V29.2744H41.0511H42.5434V23.3493V17.4241L43.3427 16.5426C44.2283 15.5659 45.0147 15.206 45.6851 15.4707C45.9011 15.5561 46.6691 16.1673 47.3919 16.8288C48.5087 17.8513 48.7894 18.0319 49.262 18.0319C49.7071 18.0319 49.9382 17.9045 50.4206 17.3933C51.1724 16.5967 51.5807 15.8359 51.3703 15.6238C51.2701 15.5228 51.0862 15.5551 50.8418 15.7166C50.5047 15.9393 50.4198 15.9399 50.0003 15.7226C49.7437 15.5898 49.1803 15.1353 48.7483 14.7127C47.3102 13.3061 46.42 12.8984 45.5281 13.2379ZM57.7021 13.2851C54.0947 14.0149 51.8169 17.1699 51.8169 21.4364C51.8169 25.8258 54.3322 29.1044 58.0621 29.5766C60.0323 29.8258 61.7466 29.4684 63.2367 28.4976C65.2151 27.2087 66.3059 25.0417 66.5122 21.9906C66.8103 17.581 64.4052 13.9851 60.6971 13.2963C59.6468 13.1012 58.6294 13.0974 57.7021 13.2851ZM72.9761 13.2955C70.8213 13.8073 69.2356 15.6857 69.2547 17.7039C69.2748 19.8203 70.725 21.3689 73.4891 22.2256C74.2235 22.4531 75.2742 22.7806 75.824 22.9531C78.2847 23.7256 79.2053 25.2156 78.3378 27.0218C77.6993 28.3514 75.9984 29.1356 74.491 28.7951C72.9918 28.4564 71.9745 27.3167 71.4943 25.4377C71.2863 24.624 71.1628 24.3838 70.9803 24.4384C70.8482 24.478 70.2579 24.6303 69.6683 24.7768C68.6353 25.0338 68.6002 25.0585 68.6974 25.4567C69.029 26.8141 70.1402 28.1345 71.5507 28.8471C73.7393 29.9526 76.838 29.8944 78.6729 28.7129C81.1949 27.0891 81.7186 23.761 79.747 21.8884C78.9946 21.1738 77.8813 20.659 75.6668 20.0019C72.4123 19.036 71.447 18.2855 71.447 16.7205C71.447 15.7516 71.7632 15.1387 72.5651 14.5529C73.6914 13.7307 75.2802 13.7726 76.3173 14.6524C76.9052 15.1512 77.5274 16.3415 77.6701 17.2405C77.7725 17.8861 77.786 17.8983 78.2901 17.803C78.5735 17.7495 79.1595 17.5995 79.5925 17.47L80.3798 17.2342L80.1429 16.5335C79.3551 14.203 75.8408 12.6153 72.9761 13.2955ZM88.9952 13.3039C86.4558 13.7946 84.4442 15.7454 83.6299 18.507C83.4886 18.986 83.3333 20.0548 83.2847 20.8822C82.9577 26.4557 86.5988 30.2277 91.6847 29.584C93.769 29.3202 95.3006 28.4916 96.3385 27.0665C96.8532 26.3595 97.4495 25.1749 97.336 25.0848C97.3093 25.0637 96.7926 24.9258 96.1878 24.7784C95.583 24.631 94.9712 24.4752 94.8281 24.4321C94.6273 24.3718 94.5442 24.4959 94.4637 24.9765C94.297 25.9715 93.5408 27.4055 92.8534 28.0302C91.6803 29.0963 89.7907 29.1544 88.4373 28.1662C87.3608 27.3802 86.6482 25.4642 86.4415 22.8L86.3295 21.3572H92.0251H97.7207L97.6152 20.2774C97.4762 18.8563 97.1679 17.7137 96.6388 16.6596C95.3077 14.0074 92.2659 12.6721 88.9952 13.3039ZM60.9626 14.4203C61.7508 14.8574 62.5468 15.9806 62.8879 17.1371C63.784 20.1753 63.428 25.3676 62.1971 27.215C61.3253 28.5237 59.9145 29.1101 58.417 28.7863C56.2616 28.3204 55.2071 26.3413 55.007 22.3864C54.8176 18.6438 55.5683 15.7453 57.0043 14.6734C58.1151 13.8445 59.7371 13.7408 60.9626 14.4203ZM91.5973 14.0828C93.2455 14.5442 94.0551 16.1264 94.4486 19.655L94.5325 20.4071H90.4542H86.376L86.4616 19.655C86.7379 17.2293 87.4643 15.382 88.4212 14.6719C89.3319 13.9959 90.508 13.7778 91.5973 14.0828ZM31.073 14.5655C32.7305 15.5046 33.5808 18.38 33.3829 22.3771C33.1822 26.4274 32.0419 28.4023 29.7725 28.6301C28.2893 28.779 26.9517 28.3065 25.8532 27.2456L25.2641 26.6766V21.4243V16.1722L25.9484 15.5364C26.3246 15.1868 26.8018 14.809 27.0087 14.6969C28.311 13.9913 29.9651 13.9378 31.073 14.5655Z" fill="white"/>
</svg>