<svg xmlns="http://www.w3.org/2000/svg" width="80" height="50" viewBox="0 0 120 50" fill="none">
<path fill-rule="evenodd" clip-rule="evenodd" d="M55.8525 16.7856L55.8589 16.7861L55.8654 16.7865L55.8719 16.787C57.9721 16.9352 60.0724 17.0834 62.1728 17.2312C62.1741 17.2565 62.1755 17.2817 62.181 17.3098C59.9838 17.4099 57.7863 17.5097 55.5888 17.6095L55.5749 17.6101L55.5724 17.6102L55.5698 17.6103L55.5673 17.6105L55.561 17.6107L55.5547 17.611L55.5522 17.6111C53.3587 17.7107 51.1653 17.8103 48.9723 17.9103V17.965C53.0624 18.2554 57.1526 18.5445 61.2427 18.8335C61.2421 18.8468 61.2417 18.8598 61.2414 18.8728C61.241 18.8858 61.2407 18.8988 61.24 18.9121L48.0877 19.514C48.0883 19.5231 48.0887 19.5322 48.089 19.5414C48.0894 19.5505 48.0897 19.5596 48.0904 19.5687L60.42 20.44L60.4159 20.5158C58.2233 20.6147 56.031 20.714 53.8388 20.8132L53.8375 20.8133L53.8363 20.8133C51.6441 20.9126 49.4519 21.0118 47.2594 21.1107C47.2594 21.1212 47.2591 21.1318 47.2588 21.1423C47.2584 21.1528 47.2581 21.1633 47.2581 21.1739C49.3745 21.3239 51.4914 21.4737 53.6084 21.6234C55.5881 21.7634 57.5679 21.9034 59.5478 22.0438C59.5471 22.0557 59.5468 22.0673 59.5464 22.0788C59.5461 22.0904 59.5457 22.102 59.5451 22.1139C55.1178 22.3146 50.6892 22.5166 46.262 22.7186L46.2622 22.7301L46.2627 22.7421L46.2632 22.7576L46.2634 22.7678C50.3549 23.0582 54.4451 23.3472 58.5366 23.6363C58.5366 23.6503 58.5363 23.6643 58.5359 23.6784C58.5356 23.6924 58.5352 23.7064 58.5352 23.7204C57.4304 23.7709 56.3259 23.8218 55.2214 23.8726C54.1157 23.9235 53.0101 23.9744 51.904 24.0249V24.8303C52.9161 24.9022 53.9227 24.974 54.9267 25.0457C55.8826 25.114 56.8361 25.1821 57.7896 25.2498L57.7894 25.2638L57.7889 25.2817V25.2818V25.2818L57.7885 25.2963L57.7883 25.3029L57.7882 25.3158L57.2153 25.3422C55.4594 25.4232 53.7035 25.5042 51.9577 25.5851C51.9577 25.6615 51.9587 25.7332 51.9596 25.8015V25.8015V25.8016V25.8016C51.9616 25.948 51.9634 26.0794 51.9549 26.2095C51.9398 26.4466 52.0444 26.5182 52.2659 26.5322C53.5688 26.6108 54.8707 26.6983 56.1725 26.7858L56.1726 26.7858L56.1739 26.7859L56.6587 26.8184C56.7075 26.8224 56.7563 26.8371 56.8051 26.8519C56.8265 26.8583 56.8478 26.8648 56.8692 26.8704C56.8664 26.8788 56.864 26.8872 56.8616 26.8956L56.8578 26.9088L56.854 26.9209L52.0347 27.144V28.1668C53.18 28.2487 54.3033 28.3295 55.4247 28.4101L55.924 28.446V28.526C54.6459 28.5835 53.3679 28.6411 52.0829 28.7V29.8309C53.0227 29.9011 53.9351 29.9703 54.8461 30.0393L54.8474 30.0394L54.8504 30.0396L54.8516 30.0397L54.8541 30.0399L55.1137 30.0596C55.113 30.0701 55.112 30.0806 55.111 30.0911C55.1099 30.1017 55.1089 30.1122 55.1082 30.1227C54.6399 30.1447 54.1719 30.1664 53.7042 30.1881L53.7013 30.1882L53.6987 30.1883L53.6946 30.1885L53.6897 30.1888C53.1785 30.2125 52.6677 30.2361 52.1572 30.2602V31.1189C52.4141 31.1189 52.6684 31.1193 52.9208 31.1197H52.9212C53.504 31.1205 54.0767 31.1214 54.6487 31.1175C55.6552 31.1105 56.6618 31.1015 57.6684 31.0924L57.6691 31.0924L57.6698 31.0924L57.6705 31.0924L57.6712 31.0924L57.6719 31.0924L57.6726 31.0924L57.6732 31.0924L57.6739 31.0924L57.6746 31.0924L57.6752 31.0924L57.6759 31.0924L57.6765 31.0924L57.6772 31.0924L57.6778 31.0924L57.6785 31.0924L57.6792 31.0924L57.6798 31.0924L57.6805 31.0923L57.6811 31.0923L57.6818 31.0923C59.9071 31.0724 62.1326 31.0524 64.3575 31.0544C65.78 31.0558 67.1723 30.9211 68.5343 30.4861C70.3366 29.9094 71.9641 29.0437 73.2312 27.5733C74.0016 26.6795 74.5382 25.6525 74.8023 24.4978C75.1036 23.1831 74.5987 22.0915 73.7554 21.1416C73.5136 20.8701 73.2429 20.6255 72.9692 20.3782C72.8426 20.2638 72.7154 20.1488 72.5901 20.0303L72.6522 20L72.7012 19.9763L72.7014 19.9761C72.7348 19.96 72.7678 19.9439 72.8006 19.9279C74.3827 19.1548 75.7543 18.1222 76.7229 16.5998C77.4066 15.5265 77.7354 14.3886 77.4864 13.0837C77.0008 10.5385 75.16 9.7163 73.15 9.69385C72.4395 9.68651 71.7295 9.70806 71.0194 9.72961C70.5071 9.74515 69.9948 9.7607 69.4822 9.7654C68.1916 9.77743 66.9014 9.78396 65.6114 9.79048C64.6435 9.79538 63.6757 9.80028 62.7079 9.8075C62.5965 9.8089 62.441 9.82854 62.3819 9.9029C62.2652 10.0499 62.1695 10.2133 62.0669 10.3885C62.0255 10.4591 61.983 10.5317 61.9375 10.6058C63.2046 10.6802 64.4194 10.7518 65.6342 10.8233C65.5448 10.9019 65.4526 10.9229 65.359 10.9272C64.9683 10.9444 64.5776 10.9611 64.1869 10.9779L64.1868 10.9779C63.4 11.0117 62.6134 11.0454 61.8274 11.0829C61.738 11.0871 61.6128 11.1166 61.5674 11.1811C61.4135 11.4011 61.2708 11.6302 61.1178 11.8757L61.1174 11.8764C61.0626 11.9642 61.0066 12.0541 60.9483 12.1464C61.5831 12.1929 62.205 12.2381 62.8199 12.2828L62.8205 12.2828L62.8207 12.2828C63.5249 12.334 64.22 12.3845 64.9147 12.4355C64.7771 12.5028 64.645 12.5112 64.5116 12.5168C64.2209 12.5291 63.9302 12.5411 63.6395 12.553C62.7636 12.5891 61.8879 12.6252 61.013 12.6684C60.8562 12.6768 60.6402 12.6908 60.5562 12.7918C60.3899 12.9928 60.2528 13.2184 60.108 13.4567L60.108 13.4568L60.1079 13.4568C60.0515 13.5496 59.9939 13.6444 59.933 13.7403L60.3576 13.7709C61.5681 13.8581 62.735 13.9422 63.9007 14.0252C63.7948 14.0939 63.6889 14.1107 63.5816 14.1164C63.2562 14.1311 62.9309 14.1455 62.6056 14.1599L62.6052 14.1599L62.6048 14.1599L62.6044 14.1599L62.6041 14.1599L62.6037 14.1599L62.6033 14.16L62.6029 14.16L62.6025 14.16L62.6021 14.16L62.6017 14.16L62.6013 14.1601L62.6009 14.1601L62.6006 14.1601L62.6002 14.1601L62.5998 14.1601L62.5994 14.1601L62.599 14.1602L62.5986 14.1602L62.5982 14.1602L62.5978 14.1602L62.5977 14.1602C61.7155 14.1993 60.8335 14.2383 59.9509 14.2833C59.8051 14.2903 59.6056 14.3072 59.5299 14.4026C59.3741 14.5963 59.2445 14.811 59.1054 15.0414C59.048 15.1365 58.9891 15.2342 58.926 15.3342C59.5759 15.3809 60.2129 15.4265 60.843 15.4715L60.8504 15.472L60.8524 15.4722C61.6008 15.5257 62.3394 15.5785 63.078 15.6317L63.0739 15.7229C63.0315 15.7229 62.989 15.7225 62.9464 15.7221L62.9463 15.7221C62.8465 15.7212 62.7463 15.7204 62.646 15.7243C62.3112 15.7385 61.9764 15.756 61.6415 15.7734C60.8881 15.8126 60.1347 15.8519 59.3813 15.8548C58.7801 15.8576 58.3371 16.0133 58.106 16.6082C58.0998 16.6235 58.0817 16.6337 58.055 16.6486C58.0401 16.6569 58.0225 16.6667 58.0028 16.6798C57.9979 16.6293 57.9926 16.5812 57.9875 16.5347L57.9875 16.5347C57.9755 16.4248 57.9644 16.3239 57.9615 16.2224C57.9547 15.9895 57.8556 15.9263 57.6231 15.939C55.868 16.0305 54.113 16.1122 52.3571 16.194L51.3276 16.242C50.8763 16.2631 50.4237 16.2827 49.9711 16.3024C49.9711 16.3248 49.9725 16.3487 49.9738 16.3711C51.9319 16.509 53.8903 16.6472 55.8488 16.7854L55.8525 16.7856ZM62.3435 26.1122H62.3433H62.3432H62.343H62.3429H62.3427H62.3426H62.3424H62.3423H62.3421H62.342H62.3418H62.3417H62.3415H62.3414H62.3413H62.3411H62.341H62.3408H62.3406H62.3405C61.9782 26.1075 61.6147 26.1029 61.2496 26.1029C61.8233 24.9299 62.408 23.7359 62.9927 22.5419C63.0366 22.4525 63.079 22.3623 63.1215 22.2721C63.2284 22.0452 63.3353 21.8185 63.4632 21.6046C63.5279 21.4966 63.6902 21.3857 63.8099 21.3843C64.8995 21.3675 65.9891 21.3675 67.0788 21.3759C67.9056 21.3815 68.4091 21.8796 68.4614 22.713C68.5371 23.9183 67.907 25.0351 66.7458 25.5711C66.1886 25.8279 65.5682 26.0411 64.9656 26.079C64.0968 26.1346 63.2239 26.1235 62.3435 26.1122ZM65.4522 18.048L65.4521 18.048C65.4331 18.0398 65.4092 18.0297 65.3769 18.0183C65.5265 17.7473 65.675 17.4778 65.8228 17.2095L65.8235 17.2082L65.8237 17.2078L65.8244 17.2065L65.8247 17.2061L65.8252 17.2052C66.3279 16.2926 66.8231 15.3939 67.3264 14.4994C67.369 14.425 67.4984 14.3647 67.5905 14.3605C68.4353 14.324 69.2786 14.2903 70.1233 14.2791C70.891 14.2693 71.3271 14.7534 71.2817 15.5265C71.2143 16.6966 70.4219 17.6998 69.3158 18.0197C69.2731 18.031 69.2277 18.038 69.1837 18.038C67.9606 18.0492 66.7389 18.059 65.5159 18.0674C65.4978 18.0674 65.4803 18.06 65.4522 18.048ZM53.0011 39.8952C53.0055 39.7997 53.0098 39.7042 53.0141 39.5995C54.6072 40.5859 55.7835 40.5045 56.752 39.3708C57.6765 38.2904 57.7247 36.5843 56.8552 35.5165C56.4218 34.9848 55.8839 34.6368 55.1988 34.5246C54.3719 34.3899 53.6758 34.6677 52.9948 35.2612V32.8675H51.7222V40.1649H52.9893L52.9936 40.0647L53.0011 39.8952ZM54.5701 38.9821C53.6304 38.9751 52.9343 38.2946 52.9398 37.3868C52.9453 36.5015 53.6676 35.7957 54.5563 35.8084C55.4643 35.821 56.1921 36.5464 56.1811 37.4289C56.1701 38.2904 55.4478 38.9877 54.5701 38.9821ZM44.7482 36.7624C44.6664 37.052 44.5838 37.3413 44.5013 37.6307C44.2895 38.3732 44.0777 39.1157 43.8787 39.8618C43.8113 40.1116 43.715 40.2042 43.4522 40.2L43.4226 40.1994C43.0323 40.1921 42.8347 40.1884 42.7065 40.0923C42.575 39.9936 42.5165 39.7977 42.398 39.4009L42.397 39.3974C42.1129 38.4452 41.8266 37.4937 41.5402 36.5419L41.5395 36.5396L41.5382 36.5356C41.3855 36.0281 41.2328 35.5205 41.0804 35.0128C41.0546 34.9257 41.0312 34.837 41.0032 34.7309L41.0032 34.7308L40.9731 34.6171C41.0772 34.6171 41.1789 34.6161 41.2786 34.6151H41.2788H41.279H41.2792H41.2795H41.2797H41.2799H41.2801H41.2803H41.2803H41.2804H41.2804H41.2804H41.2804H41.2804H41.2804H41.2804H41.2805H41.2805H41.2805H41.2805H41.2805H41.2805H41.2805H41.2806H41.2806H41.2806H41.2806C41.554 34.6124 41.8129 34.6099 42.0695 34.6283C42.148 34.6339 42.2539 34.7672 42.2828 34.8626C42.4786 35.5023 42.6673 36.1449 42.856 36.7878C42.9285 37.0347 43.0009 37.2817 43.0739 37.5285C43.1069 37.6436 43.1454 37.7558 43.2486 37.8666C43.3213 37.5942 43.395 37.3221 43.4687 37.0501L43.4688 37.0497L43.4689 37.0493L43.469 37.049L43.4691 37.0486L43.4692 37.0482L43.4693 37.0478L43.4694 37.0474L43.4695 37.0471L43.4696 37.0467L43.4697 37.0463L43.4698 37.0459L43.4699 37.0455L43.47 37.0452L43.4701 37.0448L43.4702 37.0444L43.4703 37.044L43.4704 37.0436L43.4705 37.0433L43.4706 37.043C43.657 36.3549 43.8433 35.667 44.0135 34.9749C44.0837 34.6887 44.2006 34.5834 44.4868 34.6115C44.6028 34.6229 44.7298 34.6149 44.8554 34.607C45.0856 34.5924 45.3111 34.5782 45.4553 34.6845C45.6003 34.7913 45.642 35.0454 45.6833 35.2969C45.7001 35.3986 45.7167 35.4999 45.7401 35.5908C45.8629 36.0684 45.9834 36.547 46.1039 37.0254L46.1039 37.0257L46.1046 37.0281L46.1052 37.0306L46.1061 37.0345C46.1725 37.298 46.2388 37.5615 46.3055 37.8246C46.3071 37.83 46.3112 37.8342 46.3205 37.8437L46.3205 37.8437C46.3279 37.8512 46.3385 37.8619 46.3537 37.8793C46.367 37.8468 46.3806 37.8161 46.3937 37.7864C46.4197 37.7273 46.4441 37.6719 46.4624 37.6141C46.523 37.4224 46.5838 37.2307 46.6446 37.0391L46.6455 37.0364C46.8714 36.3242 47.0974 35.612 47.314 34.8963C47.3759 34.6915 47.4598 34.5961 47.6813 34.6115C47.8848 34.625 48.0896 34.6219 48.3099 34.6187H48.3099C48.4112 34.6172 48.5158 34.6157 48.6251 34.6157C48.6148 34.6592 48.6058 34.6997 48.5972 34.7379C48.5792 34.818 48.5635 34.8883 48.5439 34.9567C48.3994 35.4396 48.2545 35.9225 48.1096 36.4054L48.1092 36.4065L48.1089 36.4076L48.1086 36.4088L48.1082 36.4099L48.1079 36.4111L48.1074 36.4127L48.1072 36.4132L48.107 36.4138L48.1069 36.4144L48.1067 36.415L48.1065 36.4156L48.1063 36.4162L48.1062 36.4168L48.106 36.4174L48.1058 36.418L48.1056 36.4186L48.1053 36.4198L48.1052 36.42L48.1052 36.4202L48.1051 36.4204L48.105 36.4206L48.105 36.4207L48.1049 36.4209L48.1049 36.4211C47.7576 37.5785 47.4103 38.7359 47.0677 39.8955C47.0044 40.1102 46.9191 40.2042 46.6784 40.2L46.6447 40.1995C45.8405 40.1889 45.8386 40.1889 45.6025 39.3834C45.3791 38.6243 45.1536 37.8653 44.9279 37.1053L44.9274 37.1036L44.8252 36.7596C44.7963 36.7624 44.7729 36.7624 44.7482 36.7624ZM72.2087 40.1643V34.6446H70.921C70.9159 34.7626 70.9109 34.8696 70.9058 34.9765L70.9057 34.9781C70.9025 35.0447 70.8994 35.1113 70.8962 35.1806C69.8066 34.2742 68.3978 34.2672 67.4155 35.1483C66.3631 36.0898 66.1264 37.6753 66.8611 38.8875C67.2298 39.495 67.7292 39.9468 68.4047 40.1699C69.321 40.473 70.1464 40.2724 70.8935 39.6073L70.9265 40.1643H72.2087ZM69.3375 38.9829C68.4308 38.9647 67.721 38.2463 67.7443 37.3708C67.7677 36.4939 68.5175 35.7825 69.3953 35.8049C70.2991 35.8288 71.0311 36.5528 71.0132 37.4059C70.9939 38.2982 70.2469 39.0012 69.3375 38.9829ZM62.2862 35.213V34.6364H63.5519V40.1743H62.289V39.5724C61.5241 40.2683 60.7082 40.4676 59.7988 40.1814C59.1316 39.9709 58.6336 39.5359 58.2594 38.9466C57.4807 37.7189 57.7146 36.0886 58.8069 35.1233C59.7782 34.2646 61.2076 34.2842 62.2862 35.213ZM62.3702 37.3696C62.3633 36.5053 61.6162 35.7967 60.7206 35.8066C59.8291 35.8164 59.1055 36.5319 59.1 37.4075C59.0945 38.2872 59.8484 38.9986 60.7688 38.9817C61.6671 38.9663 62.377 38.2507 62.3702 37.3696ZM36.3588 37.9813H40.636C40.9882 36.8154 40.2824 35.0994 38.7911 34.6238C37.1856 34.1116 35.4934 35.077 35.1054 36.7172C34.712 38.3882 35.7273 39.9919 37.3548 40.2698C38.6673 40.4943 40.3196 39.5542 40.4338 38.5005C40.3685 38.5005 40.3032 38.5015 40.2381 38.5026C40.0916 38.505 39.9456 38.5074 39.8009 38.4977C39.4473 38.4738 39.1392 38.5229 38.8503 38.7811C38.67 38.9424 38.399 39.028 38.1555 39.0799C37.2723 39.2652 36.5046 38.7965 36.3588 37.9813ZM37.901 35.7055C38.7333 35.7168 39.351 36.2106 39.3854 36.9416C38.432 36.9416 37.502 36.9416 36.572 36.9402C36.507 36.9402 36.4421 36.9355 36.3771 36.9308L36.377 36.9308L36.3432 36.9283L36.312 36.9262C36.3711 36.2022 37.0411 35.6943 37.901 35.7055ZM90.3645 37.9743H86.0253C86.1505 38.4612 86.3954 38.8036 86.8247 38.9733C87.4451 39.2203 88.0642 39.1768 88.5925 38.7531C88.8539 38.544 89.1057 38.4795 89.4139 38.4963C89.5831 38.5051 89.7531 38.503 89.9237 38.5009C89.9985 38.5 90.0734 38.4991 90.1485 38.4991C89.9518 39.6047 88.3229 40.5167 87.0214 40.2642C85.4214 39.9541 84.4597 38.4514 84.7872 36.7775C85.0912 35.2299 86.6568 34.2225 88.2417 34.5564C89.6959 34.8637 90.6947 36.4478 90.3645 37.9743ZM89.0878 36.922C89.0383 36.2037 88.4384 35.7182 87.6075 35.7056C86.7462 35.6929 86.0707 36.2009 86.0102 36.922H89.0878ZM73.1267 34.6388V40.1669C73.5573 40.1669 73.9701 40.1669 74.4131 40.1641L74.413 40.084L74.4127 39.9954V39.9951C74.4124 39.8929 74.4122 39.798 74.4131 39.7025C74.4154 39.4276 74.4163 39.1527 74.4172 38.8777V38.8777V38.8777V38.8776V38.8776V38.8776V38.8776V38.8775V38.8775V38.8775V38.8774V38.8774V38.8774V38.8774V38.8773C74.4194 38.2007 74.4216 37.5239 74.4461 36.8486C74.4667 36.2832 74.7611 35.952 75.2316 35.8454C76.0337 35.6644 76.5689 36.0811 76.5854 36.9286C76.5981 37.6099 76.599 38.292 76.5999 38.9737V38.9738V38.9738V38.9739V38.974V38.9741V38.9741V38.9742V38.9743V38.9744V38.9744V38.9745V38.9746V38.9747V38.9747C76.6003 39.2557 76.6007 39.5367 76.6019 39.8175V40.1697H77.8869C77.8905 40.1461 77.8946 40.1254 77.8985 40.1065C77.9049 40.0749 77.9103 40.0482 77.9103 40.021C77.9099 39.7784 77.9103 39.5358 77.9107 39.2932V39.2928C77.9117 38.5955 77.9128 37.8981 77.8965 37.2008C77.8882 36.8079 77.8511 36.4052 77.7617 36.0236C77.4329 34.6205 75.8535 34.0354 74.7006 34.8731C74.6479 34.9124 74.5934 34.9491 74.5321 34.9903L74.532 34.9903L74.5317 34.9905L74.5296 34.9919C74.5019 35.0105 74.4729 35.0301 74.4419 35.0513C74.4301 34.964 74.4191 34.8869 74.4089 34.8153C74.4001 34.7533 74.3918 34.6954 74.3842 34.6388H73.1267ZM29.5722 34.6323H30.8324C30.8386 34.7127 30.8439 34.7887 30.8495 34.8697C30.854 34.9329 30.8586 34.9991 30.864 35.0728C30.9068 35.0422 30.9454 35.0152 30.9812 34.9902L30.9813 34.9901L30.9814 34.9901C31.0341 34.9532 31.0809 34.9205 31.1268 34.8862C32.2508 34.043 33.8247 34.6 34.1934 35.9736L34.2041 36.0131C34.2423 36.1535 34.2814 36.297 34.2814 36.4394C34.2868 37.3976 34.2863 38.3558 34.2858 39.3265C34.2857 39.6052 34.2856 39.885 34.2856 40.166H33.0501C33.0501 40.122 33.0503 40.078 33.0504 40.034V40.0339C33.0507 39.9462 33.051 39.8586 33.0501 39.7717C33.047 39.4903 33.0454 39.2087 33.0438 38.9272C33.0399 38.2233 33.036 37.5194 33.0075 36.8168C32.9813 36.1644 32.6154 35.8263 32.021 35.8066C31.3992 35.787 30.9672 36.1265 30.8957 36.7635C30.8531 37.1441 30.8525 37.5305 30.8519 37.9163C30.8517 38.0298 30.8515 38.1432 30.8503 38.2564C30.8455 38.6922 30.8467 39.1279 30.8478 39.5706C30.8484 39.7693 30.8489 39.9695 30.8489 40.1716H29.5722V34.6323ZM81.2626 40.2833C82.6934 40.4418 83.9494 39.6 84.2673 38.2376C84.1636 38.2398 84.0613 38.2388 83.9603 38.2378C83.4367 38.2325 82.9488 38.2276 82.4966 38.6852C81.9766 39.2071 81.0287 39.0598 80.4467 38.5336C79.9405 38.0762 79.7988 37.2975 80.1069 36.6675C80.5857 35.6882 82.0316 35.5212 82.8158 36.3532C82.8334 36.3722 82.8514 36.3938 82.8698 36.4159C82.9292 36.4873 82.9925 36.5633 83.0566 36.5665C83.3513 36.583 83.6474 36.5806 83.9489 36.5781H83.949H83.9492H83.9494H83.9496H83.9498H83.95H83.9502H83.9505H83.9507H83.9509H83.9511H83.9514C84.06 36.5772 84.1694 36.5763 84.2796 36.5763C83.9054 35.1999 82.5682 34.3132 81.2364 34.5082C79.719 34.7313 78.617 35.9786 78.65 37.4392C78.6816 38.8816 79.8235 40.1247 81.2626 40.2833ZM64.5218 32.858H65.7916V40.1709H64.5218V32.858ZM78.5786 12.0959C78.5772 13.1889 79.4687 14.0686 80.5817 14.07C81.6892 14.0714 82.5862 13.1875 82.5876 12.0945C82.589 11.0085 81.6796 10.1105 80.5803 10.1105C79.4797 10.1119 78.58 11.0029 78.5786 12.0959ZM78.9377 12.072C78.9487 11.1824 79.6833 10.4781 80.5955 10.4795C81.498 10.4823 82.2299 11.2091 82.2271 12.1001C82.2258 12.9812 81.4787 13.7178 80.5845 13.7206C79.6778 13.7234 78.9253 12.97 78.9377 12.072ZM57.7854 14.3843C57.7964 14.519 57.8063 14.6448 57.8162 14.7706C57.8286 14.9279 57.841 15.0852 57.8555 15.2598C55.6243 15.1034 53.4085 14.947 51.1927 14.7906L50.6837 14.7547C50.6837 14.7392 50.6837 14.7224 50.685 14.707C53.039 14.5989 55.3915 14.4923 57.7854 14.3843ZM47.2461 31.116C47.7868 31.1272 47.8322 31.0739 47.9986 30.4776C47.9739 30.4758 47.9495 30.4733 47.9252 30.4708L47.9252 30.4708C47.8739 30.4655 47.8235 30.4603 47.773 30.4622L47.4293 30.4747L47.4288 30.4747C46.8557 30.4956 46.2825 30.5164 45.7094 30.5422C44.2896 30.6053 42.8698 30.6712 41.45 30.7428C41.3817 30.7467 41.314 30.7799 41.2465 30.8131L41.2465 30.8131C41.2162 30.828 41.1859 30.8429 41.1556 30.855L41.1604 30.8711L41.1686 30.8994L41.1687 30.8996C41.1748 30.9205 41.1808 30.9411 41.1872 30.9617C41.793 30.9773 42.3989 30.9932 43.0047 31.0092H43.0047H43.0048H43.0048H43.0048H43.0049H43.0049H43.0049H43.005C44.4187 31.0464 45.8324 31.0836 47.2461 31.116ZM57.6404 12.8282C57.661 13.1102 57.6775 13.3319 57.6968 13.5845C55.6675 13.4428 53.6685 13.3025 51.6709 13.1622C51.6709 13.1525 51.6706 13.1429 51.6703 13.133C51.6699 13.1229 51.6696 13.1125 51.6696 13.1018C52.9878 13.041 54.3055 12.9807 55.6368 12.9199L57.6404 12.8282ZM46.1407 28.9696C45.0009 29.0219 43.8706 29.0738 42.7403 29.1252C42.7445 29.142 42.7486 29.1589 42.7513 29.1743L43.5923 29.235L43.5927 29.235L43.5931 29.235L43.5935 29.235L43.5939 29.2351L43.5942 29.2351L43.5946 29.2351C45.1829 29.3497 46.7704 29.4643 48.359 29.5728C48.4277 29.5784 48.5309 29.5279 48.5667 29.4704C48.6473 29.3403 48.7171 29.202 48.794 29.0498L48.7942 29.0496C48.8275 28.9835 48.8622 28.9149 48.8996 28.8432C47.9707 28.8856 47.0527 28.9277 46.1407 28.9696ZM46.997 27.3683L47.0117 27.3676L47.0132 27.3676L47.0148 27.3675L47.0172 27.3674L47.0205 27.3672C47.8961 27.3285 48.7724 27.2897 49.6503 27.2507C49.543 27.8723 49.3986 27.9803 48.8263 27.941C47.716 27.8637 46.6051 27.79 45.4945 27.7164C44.933 27.6792 44.3715 27.642 43.8102 27.6043C43.7611 27.6013 43.7126 27.5901 43.6638 27.5789L43.6638 27.5788C43.6429 27.574 43.6221 27.5692 43.6011 27.565C43.6039 27.5496 43.6052 27.5341 43.6066 27.5187C44.7366 27.4683 45.8662 27.4183 46.997 27.3683ZM47.3491 25.7906C46.3897 25.8346 45.4307 25.8785 44.4716 25.9222L44.4757 25.9713C45.0553 26.0123 45.635 26.053 46.2147 26.0937L46.2203 26.0941C47.3645 26.1744 48.5089 26.2547 49.6527 26.3375C50.2278 26.3782 50.3901 26.2505 50.4878 25.6472C49.4463 25.6945 48.4055 25.7422 47.3651 25.7899L47.3619 25.79L47.3582 25.7902L47.3539 25.7904L47.3491 25.7906ZM45.4317 24.3127C46.4293 24.2686 47.4265 24.2241 48.4318 24.1792C49.4077 24.1357 50.3912 24.0918 51.3901 24.0476C51.3506 24.1229 51.3162 24.1937 51.284 24.2601L51.284 24.2602C51.2142 24.404 51.1542 24.5275 51.0723 24.6341C51.0159 24.7084 50.8687 24.7491 50.7655 24.7421C49.9176 24.6895 49.0697 24.6298 48.2218 24.5701L48.2218 24.5701L48.2218 24.5701L48.2212 24.57C47.9384 24.5501 47.6557 24.5302 47.3729 24.5106C47.1138 24.4925 46.8548 24.4761 46.5959 24.4597C46.3337 24.4431 46.0717 24.4265 45.81 24.4082C45.7205 24.4023 45.6311 24.3902 45.542 24.3782C45.5038 24.373 45.4656 24.3679 45.4276 24.3633L45.4303 24.3298L45.4317 24.3127ZM55.9851 11.343C54.8367 11.3959 53.6927 11.4485 52.5481 11.5005V11.5552C54.2046 11.673 55.861 11.7909 57.5546 11.9102C57.533 11.7373 57.5145 11.5903 57.4951 11.4359L57.4748 11.2746L55.9851 11.343ZM57.346 9.85721L57.357 9.9462C57.3735 10.0806 57.3868 10.1887 57.4038 10.3371C56.6687 10.2936 55.9391 10.2508 55.2127 10.2081L55.2124 10.2081C54.415 10.1613 53.6213 10.1147 52.828 10.0677C52.8225 10.0557 52.817 10.0435 52.8115 10.0312L52.8115 10.0311C52.806 10.0189 52.8005 10.0066 52.795 9.99471C52.8154 9.98014 52.8357 9.96169 52.856 9.94323C52.9004 9.90303 52.9447 9.86282 52.989 9.86282C54.2305 9.85681 55.4721 9.85698 56.7205 9.85715L57.346 9.85721ZM80.1446 11.0349C80.0284 11.0354 79.9108 11.036 79.7914 11.036V13.163C79.8793 13.1575 79.9547 13.1531 80.0368 13.1484C80.0793 13.146 80.1236 13.1434 80.1724 13.1406V12.3015C80.4916 12.1879 80.6732 12.2903 80.7778 12.5695C80.7974 12.6213 80.8258 12.6694 80.854 12.7174C80.8832 12.7669 80.9123 12.8164 80.9319 12.8698C81.0392 13.1616 81.2345 13.2234 81.5344 13.1181C81.4516 12.9694 81.3712 12.8239 81.2912 12.6792C81.221 12.5522 81.1512 12.4259 81.0804 12.2987C81.5716 12.1163 81.694 11.9339 81.6239 11.5284C81.5647 11.1847 81.3694 11.0472 80.903 11.0374C80.6528 11.0325 80.4019 11.0337 80.1446 11.0349ZM80.43 11.9322C80.3489 11.9303 80.2656 11.9283 80.1793 11.9283V11.3671C80.2564 11.3671 80.3336 11.3656 80.4107 11.3641C80.6145 11.3602 80.818 11.3563 81.0185 11.3797C81.0983 11.3881 81.2235 11.5523 81.2153 11.6337C81.2043 11.7375 81.0901 11.9017 81.0034 11.9143C80.8198 11.9413 80.632 11.9369 80.43 11.9322Z" fill="white"/>
</svg>