<svg xmlns="http://www.w3.org/2000/svg" width="80" height="50" viewBox="0 0 120 50" fill="none">
<path d="M97.6562 17.1533C97.8009 17.1823 97.9747 17.2112 98.1194 17.2402C99.3356 17.5298 100.031 18.3116 100.32 19.4988C100.378 19.7015 100.378 19.9042 100.378 20.1358C100.378 24.3344 100.378 28.5041 100.378 32.7028C100.378 32.7607 100.378 32.7896 100.378 32.8476C98.9013 32.8476 97.4535 32.8476 95.9767 32.8476C95.9767 32.7896 95.9767 32.7317 95.9767 32.6738C95.9767 29.1991 95.9767 25.7533 95.9767 22.2786C95.9767 22.1048 95.9477 21.9311 95.9188 21.7573C95.7451 21.2072 95.2817 20.9176 94.7026 21.0045C93.9787 21.1203 93.4865 21.6705 93.4865 22.4233C93.4865 25.8402 93.4865 29.228 93.4865 32.6449C93.4865 32.7028 93.4865 32.7607 93.4865 32.8186C92.0387 32.8186 90.5909 32.8186 89.143 32.8186C89.143 27.7802 89.143 22.7129 89.143 17.6745C90.5909 17.6745 92.0387 17.6745 93.4865 17.6745C93.4865 17.9641 93.4865 18.2826 93.4865 18.6011C93.5444 18.5432 93.6023 18.5143 93.6313 18.4853C94.4999 17.8772 95.4555 17.4139 96.4979 17.2402C96.6427 17.2112 96.7875 17.2112 96.9612 17.1823C96.9902 17.1823 97.0191 17.1533 97.077 17.1533C97.2218 17.1533 97.4245 17.1533 97.6562 17.1533Z" fill="white"/>
<path d="M14.7871 17.6165C14.845 17.6165 14.9029 17.6165 14.9608 17.6165C17.8854 17.6165 20.781 17.6165 23.7056 17.6165C23.7346 17.6165 23.7925 17.6165 23.8504 17.6165C23.5898 17.7613 23.3581 17.8771 23.1265 18.0219C21.9103 18.7458 20.8679 19.6434 19.9413 20.6858C19.8255 20.8306 19.7097 20.9754 19.6228 21.1202C19.5649 21.1781 19.5359 21.207 19.449 21.207C17.9723 21.207 16.4666 21.207 14.9898 21.207C14.9319 21.207 14.874 21.207 14.845 21.207C14.7871 20.0488 14.7871 18.8326 14.7871 17.6165Z" fill="white"/>
<path d="M71.1054 17.6748C71.6846 20.9179 72.2347 24.1609 72.8138 27.433H72.8428C73.4509 24.1899 74.03 20.9468 74.6381 17.6748C75.7963 17.6748 76.9256 17.6748 78.0839 17.6748C78.0839 17.7037 78.0839 17.7327 78.0839 17.7327C77.8522 18.9199 77.6206 20.1071 77.4179 21.2943C77.1573 22.7131 76.8967 24.103 76.6361 25.5219C76.4044 26.796 76.1438 28.07 75.9122 29.3441C75.7095 30.4734 75.4778 31.5737 75.2751 32.703C75.2462 32.7899 75.2172 32.8188 75.1303 32.8188C73.3061 32.8188 71.4529 32.8188 69.6287 32.8188C69.5997 32.8188 69.5418 32.8188 69.5128 32.8188C68.731 27.7515 67.9492 22.7131 67.1674 17.6458C68.4704 17.6748 69.7735 17.6748 71.1054 17.6748Z" fill="white"/>
<path d="M87.0015 26.8825C86.9435 26.8825 86.9146 26.8825 86.8567 26.8825C85.7853 26.8825 84.7139 26.8825 83.6136 26.8825C83.4978 26.8825 83.4688 26.9114 83.4688 27.0273C83.4688 27.867 83.4688 28.7067 83.4688 29.5464C83.4688 29.6623 83.4978 29.6912 83.6136 29.6912C84.685 29.6912 85.7563 29.6912 86.8567 29.6912C86.9146 29.6912 86.9435 29.6912 87.0015 29.6912C87.0015 30.7336 87.0015 31.805 87.0015 32.8474C84.3664 32.8474 81.7025 32.8474 79.0385 32.8474C79.0385 27.8091 79.0385 22.7418 79.0385 17.7034C81.6735 17.7034 84.3375 17.7034 87.0015 17.7034C87.0015 18.8327 87.0015 19.933 87.0015 21.0623C86.9435 21.0623 86.9146 21.0623 86.8567 21.0623C85.7853 21.0623 84.7139 21.0623 83.6425 21.0623C83.5267 21.0623 83.4978 21.0913 83.4978 21.2071C83.4978 22.1047 83.4978 23.0024 83.4978 23.871C83.4978 23.9869 83.5267 24.0158 83.6425 24.0158C84.7139 24.0158 85.7853 24.0158 86.8856 24.0158C86.9435 24.0158 86.9725 24.0158 87.0304 24.0158C87.0015 24.9424 87.0015 25.898 87.0015 26.8825Z" fill="white"/>
<path d="M39.4583 17.6745C42.1223 17.6745 44.7573 17.6745 47.4212 17.6745C47.4212 18.8038 47.4212 19.9041 47.4212 21.0334C46.263 21.0334 45.1047 21.0334 43.9175 21.0334C43.9175 22.0179 43.9175 23.0024 43.9175 23.9869C45.0758 23.9869 46.234 23.9869 47.4212 23.9869C47.4212 24.9714 47.4212 25.927 47.4212 26.8825C46.263 26.8825 45.1047 26.8825 43.9175 26.8825C43.9175 27.8091 43.9175 28.7357 43.9175 29.6913C45.0758 29.6913 46.234 29.6913 47.4212 29.6913C47.4212 30.7627 47.4212 31.8051 47.4212 32.8475C47.3633 32.8475 47.3344 32.8475 47.2765 32.8475C44.7283 32.8475 42.1512 32.8475 39.6031 32.8475C39.4872 32.8475 39.4583 32.8186 39.4583 32.7027C39.4583 31.197 39.4583 29.6623 39.4583 28.1566C39.4583 25.6664 39.4583 23.1762 39.4583 20.7149C39.4583 19.7593 39.4583 18.8038 39.4583 17.8482C39.4583 17.7614 39.4583 17.7324 39.4583 17.6745Z" fill="white"/>
<path d="M66.1535 29.6913C66.1535 30.7627 66.1535 31.8051 66.1535 32.8475C63.5185 32.8475 60.8835 32.8475 58.2195 32.8475C58.2195 27.8091 58.2195 22.7418 58.2195 17.6745C60.8545 17.6745 63.4895 17.6745 66.1535 17.6745C66.1535 18.7748 66.1535 19.9041 66.1535 21.0334C66.0956 21.0334 66.0666 21.0334 66.0087 21.0334C64.9373 21.0334 63.866 21.0334 62.7946 21.0334C62.6498 21.0334 62.6498 21.0334 62.6498 21.1782C62.6498 22.0758 62.6498 22.9445 62.6498 23.8421C62.6498 23.8711 62.6498 23.929 62.6498 23.9869C63.8081 23.9869 64.9663 23.9869 66.1535 23.9869C66.1535 24.0448 66.1535 24.1028 66.1535 24.1317C66.1535 25.0004 66.1535 25.8691 66.1535 26.7378C66.1535 26.8536 66.1245 26.8825 66.0087 26.8825C64.9373 26.8825 63.866 26.8825 62.7946 26.8825C62.7367 26.8825 62.7077 26.8825 62.6498 26.8825C62.6498 26.9405 62.6498 26.9694 62.6498 26.9984C62.6498 27.8381 62.6498 28.7068 62.6498 29.5465C62.6498 29.6623 62.6788 29.6623 62.7946 29.6623C63.866 29.6623 64.9373 29.6623 66.0087 29.6623C66.0666 29.6913 66.0956 29.6913 66.1535 29.6913Z" fill="white"/>
<path d="M53.5003 17.6748C53.5003 17.7037 53.5003 17.7616 53.5003 17.7906C53.5003 18.3408 53.5003 18.9199 53.5003 19.4701C53.5003 22.829 53.5003 26.1589 53.5003 29.5178C53.5003 29.6626 53.5003 29.6626 53.6451 29.6626C54.7454 29.6626 55.8458 29.6626 56.9461 29.6626C57.004 29.6626 57.033 29.6626 57.0909 29.6626C57.0909 30.705 57.0909 31.7764 57.0909 32.8188C54.4269 32.8188 51.734 32.8188 49.07 32.8188C49.07 27.7515 49.07 22.7131 49.07 17.6458C50.5468 17.6748 52.0236 17.6748 53.5003 17.6748Z" fill="white"/>
<path d="M17.4218 32.7315C17.4508 32.2682 17.4797 31.8339 17.5087 31.3706C17.5666 30.7914 17.5956 30.2123 17.6535 29.6332C17.8272 27.809 18.1457 25.9847 18.6959 24.2184C19.1881 22.6258 20.0568 21.2649 21.244 20.1066C22.3154 19.0642 23.5316 18.2534 24.8925 17.6164C24.9215 17.5874 24.9504 17.5874 25.0083 17.5585C25.0083 17.6164 25.0083 17.6454 25.0083 17.6743C25.0083 18.9194 25.0083 20.1645 25.0083 21.4096C25.0083 21.4965 24.9794 21.5544 24.8925 21.5834C24.3423 21.9019 23.908 22.3652 23.4737 22.8575C22.605 23.8709 22.1417 25.0581 21.8811 26.3612C21.6784 27.3746 21.5336 28.3881 21.4757 29.4015C21.4178 30.2123 21.3888 31.052 21.3599 31.8628C21.3599 32.1234 21.3599 32.384 21.3599 32.6736C20.0858 32.7315 18.7538 32.7315 17.4218 32.7315Z" fill="white"/>
<path d="M36.476 23.2336C36.476 24.3629 36.476 25.4921 36.476 26.6504C33.9278 26.6504 31.3797 26.6504 28.8316 26.6504C28.8316 25.5211 28.8316 24.3918 28.8316 23.2336C31.3797 23.2336 33.9278 23.2336 36.476 23.2336Z" fill="#2A0006"/>
<path d="M105.213 30.9362C105.213 32.0075 104.344 32.8473 103.273 32.8473C102.23 32.8473 101.362 31.9786 101.362 30.9072C101.362 29.8358 102.23 28.9961 103.302 28.9961C104.373 29.025 105.213 29.8648 105.213 30.9362ZM104.865 30.9362C104.865 30.0675 104.17 29.3725 103.302 29.3725C102.433 29.3725 101.738 30.0675 101.738 30.9072C101.738 31.7759 102.433 32.4708 103.302 32.4708C104.17 32.4998 104.865 31.8048 104.865 30.9362Z" fill="white"/>
<path d="M102.808 30.9944C102.808 31.2839 102.808 31.5735 102.808 31.863C102.721 31.863 102.634 31.863 102.577 31.863C102.577 31.1971 102.577 30.56 102.577 29.8651C102.663 29.8651 102.721 29.8651 102.808 29.8651C103.127 29.8651 103.416 29.8651 103.735 29.894C103.995 29.923 104.14 30.0967 104.169 30.3573C104.198 30.6179 104.053 30.8206 103.822 30.9075C103.764 30.9364 103.706 30.9364 103.677 30.9364C103.793 31.0812 103.909 31.226 104.024 31.3708C104.14 31.5156 104.227 31.6893 104.343 31.863C104.227 31.863 104.14 31.863 104.053 31.863C104.024 31.863 103.995 31.8051 103.966 31.7762C103.851 31.6024 103.735 31.4287 103.619 31.255C103.503 31.0523 103.329 30.9364 103.069 30.9654C102.953 30.9944 102.895 30.9944 102.808 30.9944ZM102.808 30.0967C102.808 30.2994 102.808 30.5021 102.808 30.7048C102.808 30.7338 102.837 30.7627 102.866 30.7627C103.098 30.7627 103.329 30.7627 103.561 30.7338C103.735 30.7048 103.851 30.589 103.851 30.4152C103.851 30.2415 103.735 30.1257 103.561 30.0967C103.329 30.0967 103.069 30.0967 102.808 30.0967Z" fill="white"/>
</svg>