<svg xmlns="http://www.w3.org/2000/svg" width="80" height="50" viewBox="0 0 120 50" fill="none">
<path d="M56.5883 33.4186C55.971 32.977 55.5317 32.3295 55.3494 31.5927C55.075 30.5178 54.9515 29.4099 54.9823 28.3009V26.4316C54.9491 25.3045 55.0925 24.1791 55.4073 23.0963C55.6167 22.3501 56.0807 21.7008 56.7187 21.2608C57.426 20.847 58.2379 20.6465 59.0566 20.6836C60.0081 20.6836 60.7705 20.8793 61.3437 21.2705C61.9591 21.7224 62.4035 22.3694 62.6044 23.106C62.901 24.1887 63.0353 25.3095 63.0029 26.4316V28.3009C63.0346 29.4153 62.9036 30.5283 62.6141 31.6048C62.4218 32.3422 61.9764 32.9885 61.3558 33.4307C60.7729 33.8139 59.9856 34.0063 58.9938 34.0079C57.9698 34.0079 57.168 33.8114 56.5883 33.4186ZM59.8391 31.4044C60.0001 30.9874 60.0806 30.3023 60.0806 29.3491V25.3521C60.0806 24.4271 60.0009 23.7533 59.8391 23.3258C59.7887 23.1398 59.6777 22.9759 59.5238 22.86C59.3698 22.7441 59.1816 22.6828 58.989 22.6858C58.7995 22.6856 58.6153 22.7483 58.4654 22.8642C58.3154 22.98 58.2082 23.1424 58.1606 23.3258C57.9988 23.7533 57.9191 24.4271 57.9191 25.3521V29.3588C57.9191 30.3103 57.9996 30.9954 58.1606 31.414C58.2081 31.5985 58.317 31.7614 58.4692 31.8759C58.6215 31.9905 58.8082 32.0499 58.9986 32.0444C59.1899 32.046 59.3762 31.984 59.5283 31.8682C59.6805 31.7523 59.7898 31.5891 59.8391 31.4044Z" fill="white"/>
<path d="M101.152 28.33V28.9748C101.143 29.594 101.167 30.2131 101.225 30.8297C101.241 31.153 101.346 31.4656 101.529 31.7329C101.618 31.8315 101.729 31.9082 101.852 31.9572C101.976 32.0062 102.109 32.0261 102.241 32.0155C102.424 32.0329 102.607 31.9941 102.767 31.9043C102.927 31.8145 103.055 31.678 103.135 31.5131C103.296 31.1782 103.383 30.6187 103.396 29.8346L105.893 29.982C105.91 30.1351 105.917 30.2892 105.915 30.4432C105.915 31.6315 105.593 32.517 104.949 33.0999C104.297 33.6868 103.379 33.9814 102.188 33.9814C100.763 33.9814 99.7611 33.5346 99.1887 32.6386C98.6163 31.7426 98.3289 30.3587 98.3289 28.4846V26.2385C98.3289 24.3064 98.626 22.8976 99.2201 22.012C99.8142 21.1265 100.828 20.6869 102.261 20.6934C103.254 20.6934 104.017 20.8753 104.548 21.2392C105.112 21.6506 105.51 22.2503 105.671 22.9298C105.918 23.9745 106.027 25.0471 105.995 26.1202V28.3228L101.152 28.33ZM101.519 22.9177C101.342 23.1825 101.24 23.4906 101.225 23.8089C101.167 24.4335 101.143 25.0607 101.152 25.6879V26.6104H103.27V25.6879C103.28 25.0604 103.251 24.433 103.186 23.8089C103.167 23.4859 103.062 23.1738 102.881 22.9056C102.795 22.8139 102.688 22.7429 102.571 22.6977C102.453 22.6526 102.326 22.6345 102.2 22.6448C102.073 22.6344 101.946 22.6536 101.828 22.701C101.709 22.7483 101.604 22.8225 101.519 22.9177Z" fill="white"/>
<path d="M49.5362 28.0885L46.2419 16.194H49.128L50.2824 21.5845C50.5771 22.9145 50.7936 24.048 50.9321 24.985H51.0166C51.1148 24.3136 51.3322 23.1866 51.6687 21.6038L52.8642 16.1915H55.7382L52.4029 28.086V33.8051H49.5362V28.0885Z" fill="white"/>
<path d="M72.347 20.9348V33.805H70.0792L69.8377 32.2303H69.7749C69.1598 33.4186 68.2365 34.0135 67.0047 34.0151C66.1514 34.0151 65.5219 33.735 65.1161 33.1747C64.7104 32.6143 64.5075 31.7401 64.5075 30.5518V20.9348H67.4057V30.3779C67.3791 30.7957 67.4434 31.2143 67.594 31.6048C67.6511 31.7215 67.7414 31.8186 67.8536 31.8839C67.9658 31.9492 68.0948 31.9799 68.2244 31.9719C68.4848 31.9666 68.7374 31.8824 68.9489 31.7304C69.1714 31.5862 69.3495 31.383 69.4633 31.1435V20.9348H72.347Z" fill="white"/>
<path d="M87.1976 20.9348V33.805H84.9322L84.6907 32.2303H84.6304C84.0153 33.4186 83.0919 34.0135 81.8602 34.0151C81.0053 34.0151 80.3773 33.735 79.9716 33.1747C79.5658 32.6143 79.363 31.7401 79.363 30.5518V20.9348H82.2611V30.3779C82.2346 30.7957 82.2988 31.2143 82.4495 31.6048C82.5063 31.7217 82.5965 31.819 82.7088 31.8843C82.821 31.9497 82.9502 31.9802 83.0798 31.9719C83.3404 31.9673 83.5932 31.883 83.8044 31.7304C84.0281 31.5876 84.2065 31.384 84.3188 31.1435V20.9348H87.1976Z" fill="white"/>
<path d="M80.2131 18.5221H77.3391V33.805H74.5061V18.5221H71.6321V16.1939H80.2131V18.5221Z" fill="white"/>
<path d="M96.7808 22.9901C96.6069 22.1811 96.322 21.5918 95.9307 21.2295C95.4832 20.8452 94.9039 20.6495 94.315 20.6837C93.7845 20.6832 93.2658 20.8404 92.8249 21.1353C92.3705 21.429 92.0014 21.8371 91.755 22.3187H91.7356V15.5419H88.9437V33.8051H91.3371L91.6294 32.5975H91.6922C91.9186 33.032 92.2691 33.3893 92.6993 33.6239C93.1541 33.8788 93.668 34.0096 94.1894 34.0031C94.6437 34.0185 95.0923 33.8977 95.4774 33.6563C95.8626 33.4149 96.1668 33.0638 96.3509 32.6482C96.813 31.7482 97.0441 30.3394 97.0441 28.4218V26.3858C97.0705 25.248 96.9823 24.1103 96.7808 22.9901ZM94.1242 28.2382C94.1357 28.9742 94.097 29.7101 94.0083 30.4408C93.9774 30.845 93.8444 31.2347 93.6219 31.5735C93.5351 31.6815 93.4246 31.768 93.2989 31.8263C93.1732 31.8845 93.0358 31.9129 92.8973 31.9092C92.6661 31.9111 92.4383 31.8538 92.2356 31.7426C92.0306 31.6227 91.8633 31.4478 91.7525 31.2378V23.9369C91.8365 23.609 92.0105 23.3112 92.2549 23.0771C92.4599 22.8673 92.7393 22.7467 93.0326 22.7414C93.1662 22.7358 93.299 22.7646 93.4182 22.825C93.5375 22.8855 93.6392 22.9756 93.7136 23.0868C93.9137 23.4437 94.0286 23.8421 94.0493 24.2508C94.1223 25.0247 94.1537 25.8018 94.1435 26.579L94.1242 28.2382Z" fill="white"/>
<path fill-rule="evenodd" clip-rule="evenodd" d="M41.7774 16.2992C42.2326 16.7544 42.5603 17.321 42.7279 17.9425C43.3317 20.2297 43.3389 25.0044 43.3389 25.0044C43.3389 25.0044 43.3389 29.7791 42.7279 32.0662C42.5603 32.6877 42.2326 33.2544 41.7774 33.7095C41.3222 34.1647 40.7556 34.4925 40.1341 34.66C37.8469 35.2735 28.6695 35.2735 28.6695 35.2735C28.6695 35.2735 19.4944 35.2735 17.2073 34.66C16.5856 34.4929 16.0187 34.1653 15.5634 33.7101C15.1082 33.2548 14.7806 32.6879 14.6134 32.0662C14 29.7791 14 25.0044 14 25.0044C14 25.0044 14 20.2297 14.6134 17.9425C14.7791 17.319 15.106 16.7501 15.5614 16.2931C16.0167 15.8361 16.5844 15.507 17.2073 15.339C19.492 14.7256 28.6695 14.7256 28.6695 14.7256C28.6695 14.7256 37.8445 14.7256 40.1341 15.3487C40.7556 15.5163 41.3222 15.844 41.7774 16.2992ZM33.3596 25.0044L25.735 20.604V29.4047L33.3596 25.0044Z" fill="white"/>
</svg>