<svg xmlns="http://www.w3.org/2000/svg" width="80" height="50" viewBox="0 0 120 50" fill="none">
<path d="M63.2852 18.0169C63.0392 17.317 62.5975 16.8045 61.8327 16.6493C60.7773 16.4355 59.8613 16.6932 59.1261 17.4956C58.8919 17.7533 58.6607 18.014 58.4206 18.2834C58.3346 18.1047 58.2635 17.9554 58.1864 17.809C57.4038 16.3213 55.7319 16.0197 54.4601 17.1384C54.2111 17.358 53.971 17.5893 53.7042 17.8353C53.7042 17.4898 53.6953 17.1618 53.7071 16.8338C53.716 16.6581 53.6567 16.6112 53.4818 16.6142C52.9127 16.6259 52.3405 16.6347 51.7684 16.6112C51.4749 16.5995 51.383 16.6639 51.383 16.9773C51.3949 22.9133 51.3919 28.8492 51.3919 34.7852C51.3919 34.8613 51.4008 34.9404 51.389 35.0165C51.3623 35.2157 51.4305 35.2859 51.6439 35.2801C52.1923 35.2654 52.7407 35.2508 53.2892 35.283C53.6301 35.3035 53.7101 35.2039 53.7071 34.8701C53.6953 30.0499 53.6983 25.2267 53.7012 20.4036C53.7012 20.2864 53.6508 20.1488 53.7368 20.0492C54.1459 19.569 54.5342 19.0594 55.1271 18.7812C55.6044 18.5587 55.9957 18.7344 56.1558 19.2293C56.2625 19.5573 56.2951 19.897 56.2951 20.2425C56.2981 21.4783 56.2981 22.7141 56.2981 23.9499C56.2981 27.6251 56.301 31.2974 56.2921 34.9726C56.2921 35.2215 56.3514 35.2918 56.6064 35.2801C57.1311 35.2596 57.6587 35.2537 58.1834 35.2801C58.5214 35.2977 58.6281 35.2186 58.6281 34.8584C58.6133 30.1143 58.6192 25.3702 58.6192 20.6261C58.6192 19.853 59.3336 18.9599 60.1044 18.7666C60.6439 18.6319 60.9937 18.8281 61.1508 19.361C61.2664 19.7564 61.2724 20.1664 61.2724 20.5734C61.2724 23.2881 61.2724 26.0028 61.2724 28.7174C61.2724 30.8142 61.2753 32.911 61.2664 35.0077C61.2664 35.2449 61.3287 35.3006 61.5629 35.2947C62.1558 35.2772 62.7487 35.2801 63.3416 35.2947C63.555 35.3006 63.5995 35.2332 63.5995 35.0341C63.5935 30.1348 63.5965 25.2355 63.5876 20.3362C63.5906 19.5514 63.5491 18.7666 63.2852 18.0169Z" fill="white"/>
<path d="M28.991 16.6291C28.5315 16.6467 28.075 16.635 27.6155 16.635C27.0167 16.635 27.0196 16.635 27.0137 17.2119C27.0137 17.3027 27.0433 17.4022 26.9752 17.5018C26.7973 17.3495 26.6342 17.2002 26.4623 17.0655C25.1965 16.0961 23.4682 16.3948 22.6204 17.7331C22.1313 18.5004 21.9267 19.3614 21.9208 20.2516C21.906 24.1992 21.9089 28.1496 21.9208 32.0972C21.9238 32.841 22.069 33.5643 22.3921 34.2437C23.071 35.667 24.6036 36.0711 25.9198 35.1808C26.2904 34.929 26.6046 34.6186 26.9989 34.273C26.9989 34.9495 27.0018 35.5527 26.9989 36.156C26.9929 36.7065 26.9752 37.2571 26.821 37.793C26.5957 38.5808 26.0888 39.0669 25.2528 39.1752C24.8289 39.2309 24.402 39.225 23.9811 39.1489C23.7469 39.1049 23.6165 39.1342 23.5809 39.4154C23.5364 39.7756 23.4445 40.1299 23.3497 40.4813C23.2933 40.6892 23.3378 40.7829 23.5512 40.8708C24.3131 41.1841 25.1046 41.1812 25.8961 41.1109C27.3398 40.9792 28.3625 40.2763 28.8457 38.8912C29.1214 38.1005 29.2341 37.2835 29.237 36.4547C29.2459 29.9477 29.2459 23.4378 29.2459 16.9307C29.2459 16.919 29.2429 16.9073 29.2459 16.8985C29.2785 16.6906 29.2044 16.6233 28.991 16.6291ZM27.0256 26.0968C27.0256 27.9827 27.0256 29.8686 27.0256 31.7545C27.0256 32.5013 25.9584 33.4648 25.2232 33.4033C24.7667 33.3623 24.4791 33.128 24.3398 32.7092C24.239 32.4047 24.2034 32.0855 24.2034 31.7633C24.2004 27.971 24.2004 24.1757 24.2034 20.3834C24.2034 19.9734 24.2597 19.5693 24.4346 19.1915C24.6925 18.6263 25.2261 18.4038 25.7568 18.723C26.4801 19.1593 27.0315 19.7479 27.0285 20.6704C27.0256 22.4802 27.0256 24.287 27.0256 26.0968Z" fill="white"/>
<path d="M83.2147 16.713C82.6662 16.713 82.1178 16.7247 81.5694 16.7071C81.3352 16.6983 81.2492 16.7686 81.1959 16.9999C80.6445 19.3603 80.0783 21.7147 79.5151 24.0721C79.3965 24.57 79.3935 24.5553 78.8836 24.57C78.6435 24.5788 78.5902 24.5085 78.5931 24.2801C78.605 23.0999 78.599 21.9197 78.599 20.7366C78.599 17.0292 78.5931 13.3218 78.6079 9.6144C78.6079 9.30105 78.5131 9.2337 78.2196 9.24541C77.7067 9.26884 77.188 9.26884 76.6751 9.24541C76.3876 9.23077 76.3075 9.29813 76.3075 9.59683C76.3194 13.8226 76.3164 18.0483 76.3164 22.277C76.3164 26.5057 76.3194 30.7285 76.3105 34.9572C76.3105 35.2383 76.3816 35.3057 76.6573 35.294C77.1702 35.2705 77.689 35.2676 78.2018 35.294C78.5131 35.3115 78.6109 35.2442 78.6079 34.9103C78.5902 32.9131 78.599 30.9159 78.599 28.9187C78.599 28.2247 78.6079 27.5277 78.5931 26.8337C78.5902 26.6258 78.6524 26.5701 78.857 26.5818C79.1593 26.5994 79.4617 26.5818 79.7641 26.5877C80.3866 26.6023 80.7601 26.8776 80.9528 27.4662C81.0684 27.8147 81.0921 28.1778 81.0921 28.5439C81.0892 30.6963 81.0951 32.8487 81.0862 34.9982C81.0862 35.2237 81.1307 35.2998 81.3738 35.294C81.9666 35.2735 82.5595 35.2822 83.1524 35.291C83.3303 35.294 83.3777 35.2442 83.3747 35.0714C83.3659 32.6759 83.3688 30.2834 83.3599 27.8879C83.354 26.5994 82.8204 25.6096 81.6168 25.0297C81.4004 24.9273 81.4034 24.8072 81.4568 24.611C82.1386 22.1042 82.8145 19.5916 83.4904 17.0819C83.5911 16.713 83.5911 16.713 83.2147 16.713Z" fill="white"/>
<path d="M38.3033 18.7515C38.0721 17.8993 37.6837 17.1409 36.8685 16.684C35.0039 15.6415 32.745 16.4673 32.0424 18.4499C31.6808 19.4719 31.5918 20.5379 31.5829 21.6097C31.5711 23.0768 31.58 24.544 31.58 26.0111C31.577 26.0111 31.577 26.0111 31.574 26.0111C31.574 27.3026 31.574 28.594 31.574 29.8825C31.574 30.0495 31.577 30.2135 31.577 30.3804C31.5889 31.3321 31.6659 32.2751 31.9179 33.1946C32.3152 34.6501 33.1452 35.4319 34.6007 35.5813C36.5009 35.7746 37.8231 35.0805 38.3181 33.1536C38.5434 32.2692 38.6294 31.3731 38.6324 30.4682C38.6412 27.5017 38.6412 24.5323 38.6324 21.5657C38.6353 20.6199 38.5553 19.674 38.3033 18.7515ZM36.3379 31.7567C36.3379 32.1872 36.2756 32.6148 36.0918 33.0131C35.9169 33.3937 35.6412 33.6339 35.1966 33.6515C34.7401 33.669 34.4258 33.4582 34.2242 33.0775C34.0286 32.7114 33.9367 32.3102 33.9367 31.9002C33.9308 29.9148 33.9337 27.9293 33.9337 25.9438C33.9278 25.9438 33.9219 25.9438 33.9159 25.9438C33.9159 24.1457 33.9159 22.3476 33.9159 20.5496C33.9159 20.0312 33.9308 19.51 34.1501 19.0268C34.4051 18.4616 34.9476 18.2127 35.4901 18.403C35.8369 18.5231 36.0207 18.7925 36.1452 19.1117C36.2875 19.4748 36.3438 19.8585 36.3438 20.245C36.3438 24.0813 36.3468 27.9205 36.3379 31.7567Z" fill="white"/>
<path d="M45.0894 16.6573C44.7752 16.669 44.4609 16.6397 44.1497 16.6661C43.874 16.6895 43.7939 16.6104 43.7939 16.3293C43.8088 14.5752 43.7939 12.821 43.8088 11.0669C43.8117 10.815 43.7406 10.7506 43.4916 10.7594C42.955 10.7799 42.4155 10.7799 41.8819 10.7594C41.6003 10.7477 41.5084 10.8033 41.5113 11.1079C41.5291 12.862 41.5143 14.6162 41.5261 16.3703C41.5261 16.6016 41.4698 16.6778 41.2297 16.6631C40.8829 16.6426 40.536 16.6661 40.1892 16.6544C40.035 16.6514 39.9728 16.6866 39.9757 16.8535C39.9876 17.3718 39.9846 17.8902 39.9757 18.4085C39.9728 18.552 40.0172 18.6018 40.1655 18.5959C40.5005 18.5871 40.8384 18.6106 41.1734 18.5871C41.4431 18.5666 41.5291 18.634 41.5261 18.921C41.5113 20.8186 41.5173 22.7162 41.5173 24.6139C41.5173 28.0548 41.5202 31.4957 41.5113 34.9396C41.5113 35.2061 41.538 35.3291 41.8611 35.3086C42.3947 35.2763 42.9342 35.2851 43.4708 35.3056C43.7287 35.3144 43.8058 35.2529 43.8058 34.9864C43.7939 32.3069 43.7999 29.6244 43.7999 26.9449C43.7999 24.2654 43.8028 21.5829 43.7939 18.9034C43.7939 18.6691 43.8265 18.5696 44.0963 18.5901C44.4283 18.6164 44.7663 18.5901 45.1012 18.5988C45.2673 18.6047 45.3414 18.5637 45.3354 18.3821C45.3236 17.8872 45.3236 17.3894 45.3354 16.8945C45.3473 16.6983 45.2732 16.6514 45.0894 16.6573Z" fill="white"/>
<path d="M73.2695 9.2484C72.7211 9.27475 72.1727 9.27182 71.6243 9.2484C71.3515 9.23668 71.2745 9.29818 71.2745 9.58224C71.2863 13.808 71.2834 18.0337 71.2834 22.2624C71.2834 26.4999 71.2863 30.7373 71.2745 34.9748C71.2745 35.2589 71.3515 35.3204 71.6243 35.3087C72.1608 35.2852 72.7004 35.2794 73.234 35.3116C73.5571 35.3292 73.6104 35.2149 73.6075 34.925C73.5986 27.2993 73.6015 19.6737 73.6015 12.0509C73.6015 11.2339 73.5897 10.4168 73.6075 9.60274C73.6164 9.33332 73.563 9.23375 73.2695 9.2484Z" fill="white"/>
<path d="M91.0291 8.96481C90.4688 8.83303 89.8967 8.83595 89.3275 8.86817C87.9224 8.94724 87.0153 9.63249 86.5914 10.9562C86.2178 12.1158 86.2 13.3194 86.1852 14.523C86.1823 14.6782 86.2475 14.7016 86.3809 14.6987C86.9056 14.6929 87.4332 14.6899 87.9579 14.6987C88.1151 14.7016 88.1714 14.6577 88.1743 14.4966C88.1803 14.0544 88.1921 13.6152 88.2159 13.173C88.2455 12.6459 88.2929 12.1158 88.4827 11.6151C88.6902 11.0762 89.0785 10.7892 89.6744 10.7658C90.5163 10.7336 91.0943 11.1348 91.3522 12.0338C91.6961 13.2345 91.7376 14.4556 91.373 15.6534C91.0617 16.6725 90.7089 17.6857 90.3117 18.6755C89.3394 21.0886 88.7465 23.5631 88.874 26.1812C88.8769 26.7961 88.868 27.414 88.9214 28.029C88.9362 28.1959 88.9836 28.2545 89.1585 28.2516C89.5943 28.2399 90.0331 28.2369 90.4659 28.2516C90.6823 28.2604 90.7267 28.1784 90.7267 27.9851C90.7297 27.2676 90.7475 26.5501 90.7593 25.8356C90.786 24.2484 91.0172 22.7051 91.5894 21.2086C92.203 19.6039 92.7811 17.9874 93.3532 16.3679C93.9194 14.7661 93.9995 13.1291 93.5726 11.4862C93.2346 10.1772 92.4076 9.28986 91.0291 8.96481Z" fill="white"/>
<path d="M68.5928 16.8774C68.6165 16.6988 68.5365 16.6549 68.3645 16.6578C67.8043 16.6666 67.244 16.6754 66.6867 16.6549C66.3962 16.6432 66.2983 16.7017 66.2983 17.018C66.3132 20.0079 66.3072 22.9979 66.3072 25.9849C66.3072 28.9866 66.3102 31.9853 66.3013 34.987C66.3013 35.2476 66.3695 35.3179 66.6304 35.3062C67.1669 35.2857 67.7064 35.2769 68.24 35.3091C68.5513 35.3266 68.5958 35.2212 68.5958 34.943C68.5869 29.0188 68.5898 23.0975 68.5898 17.1732C68.5898 17.0766 68.5809 16.9741 68.5928 16.8774Z" fill="white"/>
<path d="M90.7085 32.1633C90.0266 32.175 89.3448 32.1721 88.66 32.1633C88.4762 32.1604 88.4081 32.2014 88.411 32.3976C88.4229 33.2791 88.4199 34.1634 88.411 35.0449C88.4081 35.2265 88.4496 35.2938 88.6482 35.2909C89.33 35.2792 90.0118 35.2763 90.6966 35.2909C90.9219 35.2968 90.9515 35.2118 90.9456 35.0215C90.9337 34.591 90.9426 34.1605 90.9426 33.73C90.9426 33.2878 90.9337 32.8486 90.9456 32.4064C90.9545 32.2277 90.9071 32.1604 90.7085 32.1633Z" fill="white"/>
<path d="M66.3113 11.4599C66.3113 11.6034 66.3587 11.6473 66.504 11.6473C67.1295 11.6415 67.755 11.6385 68.3805 11.6473C68.5672 11.6503 68.6058 11.5829 68.5998 11.4189C68.588 11.0997 68.5969 10.7805 68.5969 10.4613C68.5969 10.1421 68.588 9.8229 68.5998 9.5037C68.6058 9.33385 68.5791 9.24893 68.3716 9.25186C67.7579 9.2665 67.1443 9.26064 66.5277 9.25478C66.3824 9.25478 66.3083 9.26943 66.3113 9.44513C66.3202 10.1157 66.3172 10.7893 66.3113 11.4599Z" fill="white"/>
<path d="M96.5566 8.85058C95.7117 8.8535 95.0418 9.50948 95.0359 10.3324C95.0329 11.164 95.7236 11.8405 96.5714 11.8347C97.4252 11.8259 98.0981 11.1523 98.0892 10.3148C98.0803 9.48898 97.4074 8.84765 96.5566 8.85058ZM96.5803 11.5916C95.8778 11.5975 95.3501 11.085 95.3412 10.388C95.3323 9.66468 95.8481 9.12585 96.5536 9.12292C97.2592 9.11999 97.8076 9.66468 97.8046 10.3587C97.8046 11.0411 97.2621 11.5857 96.5803 11.5916Z" fill="white"/>
<path d="M97.0155 10.3624C97.2319 10.2921 97.2734 10.0754 97.2438 9.86453C97.2171 9.66539 97.0955 9.55704 96.8969 9.51311C96.642 9.45747 96.3841 9.48969 96.1291 9.47797C96.0224 9.47212 95.9987 9.53068 95.9987 9.62147C95.9987 10.0959 95.9987 10.5703 95.9987 11.0418C95.9987 11.1238 96.0017 11.194 96.1173 11.1911C96.2359 11.1853 96.227 11.1091 96.227 11.03C96.227 10.91 96.221 10.787 96.2299 10.6669C96.2359 10.5908 96.1825 10.4736 96.3218 10.459C96.4196 10.4473 96.5234 10.4356 96.5886 10.5439C96.6835 10.705 96.7932 10.8573 96.8851 11.0213C96.974 11.1823 97.0926 11.2292 97.2853 11.153C97.1726 10.9832 97.0629 10.8192 96.9532 10.6552C96.8673 10.5381 96.7606 10.4444 97.0155 10.3624ZM96.4552 10.2599C96.1766 10.3067 96.2774 10.0929 96.2536 9.96117C96.2032 9.69468 96.3752 9.70639 96.4671 9.7181C96.7546 9.73275 97.0096 9.71518 96.9859 10.0022C96.9592 10.3184 96.6598 10.2247 96.4552 10.2599Z" fill="white"/>
</svg>