<svg xmlns="http://www.w3.org/2000/svg" width="80" height="50" viewBox="0 0 120 50" fill="none">
<path fill-rule="evenodd" clip-rule="evenodd" d="M35.3423 11.3973C35.1362 11.6034 35.1287 11.6698 35.1814 12.8014C35.246 14.1873 35.4232 14.94 36.4127 18.0312C37.2311 20.5876 37.4485 21.3972 37.3419 21.4925C37.298 21.5316 37.1228 21.6101 36.9526 21.6669C36.6925 21.7535 36.6351 21.744 36.5927 21.6067C36.4636 21.189 34.8174 16.5494 34.551 15.8527C33.9777 14.3536 33.58 13.6565 32.9045 12.9672C32.55 12.6054 32.0891 12.2304 31.8803 12.1337C31.5122 11.9635 31.4926 11.9638 31.2428 12.1463C30.7785 12.4852 30.5988 13.0036 30.6038 13.9892C30.612 15.5902 31.1659 17.1329 32.3603 18.8804C32.7707 19.4809 33.5007 20.5459 33.9825 21.2472C34.4644 21.9485 34.8586 22.598 34.8588 22.6904C34.8591 22.8796 34.578 23.0617 34.2857 23.0617C34.179 23.0617 33.6575 22.6797 33.1267 22.2128C28.0203 17.7202 23.2483 16.4271 18.5287 18.2573C17.9893 18.4665 17.4817 18.651 17.4008 18.6674C17.2803 18.6917 17.2431 18.5105 17.1951 17.6668C17.0985 15.9684 16.8253 15.6687 15.6213 15.9406C14.1379 16.2756 12.6453 17.2872 12.0673 18.3492C11.5267 19.3426 11.6388 20.5373 12.3507 21.369C12.752 21.8378 13.2812 22.0699 14.1297 22.1491C14.4723 22.1811 14.7526 22.2354 14.7526 22.2699C14.7526 22.3042 14.3444 22.6666 13.8453 23.0751C10.0843 26.1546 7.82093 29.4593 8.06152 31.52C8.11036 31.9389 8.39774 32.2815 8.69993 32.2809C8.82253 32.2807 9.32166 31.9565 9.84855 31.5349C12.6938 29.258 15.9012 27.6428 18.7739 27.0404C21.6387 26.4396 24.8892 26.6896 27.651 27.723C31.5604 29.1857 34.9376 31.7504 37.8515 35.4689C39.858 38.0295 40.7027 38.7546 41.6789 38.7546C41.927 38.7546 42.2149 38.7092 42.3187 38.6536C42.7991 38.3965 42.9435 37.3977 42.6456 36.394C42.2992 35.2271 41.5432 34.0616 40.0099 32.3303C39.0127 31.2043 38.7828 30.8605 38.937 30.7256C38.9869 30.6821 39.4027 30.5494 39.8613 30.4307C41.6992 29.9551 43.0995 28.962 43.3886 27.9291C43.6881 26.8599 43.1478 25.6779 41.6521 24.1298C41.0879 23.5457 40.3211 22.8181 39.9481 22.513L39.27 21.9583L39.3325 20.0825C39.431 17.1244 39.1552 15.2014 38.4039 13.6074C37.8015 12.3293 36.8738 11.4654 35.8708 11.2486C35.6228 11.195 35.514 11.2256 35.3423 11.3973ZM49.3136 11.8169C49.0369 11.9486 48.7823 12.1023 48.7477 12.1583C48.6158 12.3718 48.4955 13.7903 48.3876 16.4059C48.2212 20.4382 48.5007 27.9545 48.8667 29.2898C49.0053 29.7954 49.7835 29.9911 50.4816 29.6958C50.7475 29.5833 50.8327 29.4589 51.0221 28.9055C51.1456 28.5443 51.4546 27.7976 51.7086 27.2463C52.9471 24.5579 54.0209 23.221 54.7247 23.4911C55.0054 23.5988 55.1383 24.181 55.2425 25.7589C55.3741 27.7546 55.583 28.4902 56.191 29.0982C57.2655 30.1726 59.0856 30.0358 60.4602 28.7772L61.0015 28.2815L61.4721 28.6591C63.5334 30.313 66.5495 30.1773 68.4579 28.3448C69.1398 27.6899 69.5054 27.0838 69.7236 26.2459C70.4681 23.3876 68.0493 20.6044 64.8267 20.6111C62.0126 20.617 59.7717 22.6559 59.7717 25.2104C59.7717 25.5734 59.8405 26.1024 59.9248 26.3859C60.0516 26.813 60.0558 26.9282 59.9493 27.0576C59.6869 27.3764 59.0473 27.7696 58.7913 27.7696C58.1848 27.7696 58.0564 27.2793 57.9185 24.4348C57.8204 22.4123 57.7001 21.8253 57.2629 21.2365C56.9131 20.7653 56.4211 20.5762 55.6965 20.6344C54.2306 20.7521 52.9442 21.979 51.5573 24.5819L51.0348 25.5627L51.088 24.8271C51.3316 21.4559 51.4489 13.1636 51.264 12.3798C51.0942 11.6599 50.1904 11.3991 49.3136 11.8169ZM102.444 19.2108C101.945 19.4666 101.7 20.0122 101.705 20.8549C101.709 21.6226 101.914 22.1262 102.416 22.6027L102.707 22.8792L102.517 23.3873C102.189 24.2608 101.348 25.6876 100.814 26.2747C99.9199 27.2578 98.7781 27.7696 97.4787 27.7696C96.3803 27.7696 95.642 27.425 95.2038 26.7077C94.8713 26.1636 94.9069 26.1105 95.4976 26.2699C95.8458 26.364 96.3629 26.3972 97.095 26.3727C98.0521 26.3406 98.2512 26.302 98.8121 26.0394C100.227 25.3774 100.828 24.183 100.431 22.82C100.212 22.067 99.5012 21.3398 98.6607 21.0091C97.9456 20.7279 96.5644 20.6302 95.7359 20.8022C94.9838 20.9583 93.9272 21.5002 93.3325 22.0349C91.3926 23.7791 91.3477 26.6343 93.2323 28.4148C94.318 29.4407 95.4826 29.8703 97.1895 29.8747C98.4016 29.8778 99.1786 29.6751 100.035 29.132C100.679 28.7235 101.59 27.8394 102.096 27.132C102.55 26.4975 103.544 24.5445 103.731 23.9197C103.833 23.5776 103.873 23.5421 104.098 23.5912C104.236 23.6216 104.68 23.6954 105.085 23.7551C106.251 23.9273 106.262 23.9309 106.262 24.1457C106.262 24.2543 106.151 24.563 106.014 24.8316C105.572 25.7057 105.183 27.0189 105.183 27.6421C105.183 29.5098 107.093 30.5014 108.945 29.5953C109.889 29.1334 111.06 27.7651 111.715 26.3595C112.102 25.5275 112.004 24.0537 111.555 23.9673C111.464 23.9497 111.285 24.1693 111.076 24.5549C110.585 25.4591 109.662 26.7849 109.234 27.2008C109.029 27.4005 108.698 27.6317 108.499 27.7146C108.17 27.8515 108.123 27.8508 107.979 27.7073C107.765 27.4932 107.825 27.2623 108.599 25.3175C109.14 23.9558 109.243 23.6029 109.248 23.0919C109.253 22.5315 109.228 22.4582 108.922 22.1424C108.522 21.7291 108.115 21.6257 106.576 21.5458C105.409 21.4852 104.535 21.3402 104.443 21.1917C104.413 21.1428 104.348 20.8547 104.299 20.5512C104.117 19.4317 103.243 18.8005 102.444 19.2108ZM71.1329 20.6175C70.8008 20.7459 70.7837 20.7965 70.6641 22.0064C70.1809 26.8961 70.3039 37.1368 70.8583 38.1728C70.9463 38.3371 71.7221 38.7128 72.0808 38.7647C72.443 38.8171 72.9794 38.6554 73.1913 38.43C73.3855 38.2232 73.4054 38.0706 73.4558 36.3962C73.4863 35.3837 73.4521 33.4194 73.3784 31.938C73.3058 30.4815 73.2587 29.2727 73.2736 29.252C73.2886 29.2311 73.5118 29.303 73.7697 29.4116C75.0451 29.9491 76.8932 29.8446 78.1481 29.164C78.8003 28.8102 79.6416 28.0322 80.0274 27.4263C81.5452 25.0417 80.3126 22.0086 77.3771 20.9046C76.9793 20.755 76.4847 20.6674 75.8505 20.6343C74.7911 20.5789 74.111 20.725 73.2332 21.1968L72.7183 21.4736V21.2039C72.7183 21.0556 72.6305 20.8549 72.5231 20.7577C72.2929 20.5493 71.5128 20.4707 71.1329 20.6175ZM81.8213 20.6569C81.6202 20.7705 81.5442 20.9047 81.5011 21.2227C81.1756 23.6196 81.0114 28.7948 81.1423 32.5265C81.2454 35.4659 81.3824 37.3627 81.5331 37.9383C81.6256 38.291 82.4586 38.7646 82.9996 38.7721C83.4337 38.778 83.9469 38.5423 84.0927 38.2696C84.2266 38.0196 84.2242 33.5639 84.0889 31.1681C84.0315 30.1512 83.9986 29.3055 84.0156 29.2887C84.0327 29.272 84.3736 29.3681 84.7734 29.5023C86.9575 30.2358 89.5605 29.3526 90.7701 27.4677C91.9179 25.6789 91.5761 23.5029 89.9078 21.9783C88.3286 20.5349 85.9086 20.1899 84.0668 21.1455C83.4612 21.4596 83.4091 21.457 83.4091 21.112C83.4091 20.9569 83.3403 20.7727 83.256 20.7028C83.0234 20.5096 82.1328 20.4812 81.8213 20.6569ZM76.4048 22.9412C77.0527 23.2899 77.6223 24.3589 77.6223 25.226C77.6223 26.1208 77.0165 27.177 76.3112 27.5116C75.5298 27.8824 74.1222 27.5761 73.6089 26.9236C72.6415 25.694 72.9623 23.6472 74.2248 22.9944C74.8067 22.6935 75.8949 22.6669 76.4048 22.9412ZM97.5721 22.8061C97.9972 22.9837 98.2193 23.3111 98.2193 23.7599C98.2193 24.5252 97.2503 24.97 95.7182 24.908L94.9336 24.8762L94.9594 24.5511C95.0585 23.2999 96.4806 22.3501 97.5721 22.8061ZM65.6617 22.9662C66.4445 23.3656 66.899 24.346 66.8107 25.4449C66.752 26.1769 66.4852 26.7418 65.9947 27.1724C65.5568 27.5568 65.274 27.6715 64.7635 27.6715C63.6761 27.6715 62.7141 26.494 62.7141 25.1629C62.7141 24.2987 63.3017 23.2861 64.0382 22.8812C64.366 22.701 65.2305 22.7463 65.6617 22.9662ZM87.3972 23.1153C88.3193 23.8456 88.6146 25.3752 88.0481 26.4869C87.6454 27.277 87.0337 27.6723 86.2179 27.6693C85.2373 27.6658 84.489 27.2409 84.0623 26.4455C83.7763 25.9124 83.7587 24.4579 84.032 23.9555C84.4854 23.1221 85.1996 22.7499 86.2692 22.7894C86.9368 22.814 87.0628 22.8504 87.3972 23.1153Z" fill="white"/>
</svg>