<svg xmlns="http://www.w3.org/2000/svg" width="80" height="50" viewBox="0 0 120 50" fill="none">
<path d="M106.626 28.387C106.865 30.5894 108.373 31.1819 110.121 31.1819C111.27 31.1819 112.251 31.3135 113.083 30.1285C113.334 29.7695 114.16 29.3386 114.843 29.7635C115.609 30.2422 115.549 31.122 115.082 31.7624C113.951 33.3124 112.197 33.7074 110.121 33.7074C106.889 33.7074 103.92 31.4691 103.92 27.7047C103.92 23.9164 106.027 20.942 110.216 20.942C114.053 20.942 116.105 23.5094 116.105 27.3696V27.5132C116.105 27.9082 115.836 28.387 115.447 28.387H106.626ZM113.598 26.1307C113.215 24.1857 112.018 23.4675 110.216 23.4675C108.373 23.4675 107.009 24.2096 106.626 26.1307H113.598ZM99.4079 29.961C99.4079 30.7809 99.9944 31.1579 100.904 31.1579C101.042 31.1579 101.191 31.1878 101.353 31.1579C101.928 31.0562 102.484 31.5409 102.61 32.1155C102.747 32.696 102.406 33.2586 101.838 33.4321C101.449 33.5518 100.994 33.7134 100.413 33.7074C98.4564 33.6895 96.7028 32.2771 96.7028 30.32V17.3331C96.7213 16.9809 96.8687 16.6477 97.1171 16.3971C97.3654 16.1466 97.6973 15.9962 98.0494 15.9746C98.4016 15.9946 98.7341 16.1435 98.9836 16.393C99.233 16.6424 99.3819 16.975 99.402 17.3272V29.961H99.4079ZM88.6115 33.7074C87.8353 33.7385 87.0624 33.5906 86.3525 33.2751C85.6427 32.9596 85.0149 32.485 84.5179 31.8881V32.1035C84.5179 32.7918 83.8476 33.3483 83.1594 33.3483C82.4771 33.3483 81.8068 32.7918 81.8068 32.1035V17.3331C81.8254 16.9799 81.9737 16.6459 82.2233 16.3952C82.4729 16.1445 82.8062 15.9948 83.1594 15.9746C83.5136 15.9933 83.8484 16.1425 84.0992 16.3933C84.35 16.6441 84.4992 16.9789 84.5179 17.3331V22.9169C85.0202 22.3278 85.6495 21.8602 86.3585 21.5492C87.0675 21.2382 87.8378 21.092 88.6115 21.1215C91.7235 21.1215 94.4406 23.665 94.4406 27.4055C94.4406 31.1639 91.7295 33.7074 88.6115 33.7074ZM88.3601 23.8745C86.5407 23.8745 84.5179 24.7961 84.5179 27.4833C84.5179 30.1704 86.5407 31.0921 88.3601 31.0921C90.3829 31.0921 91.9629 29.7156 91.9629 27.4833C91.985 27.004 91.907 26.5254 91.7338 26.0779C91.5607 25.6305 91.2962 25.2241 90.9572 24.8845C90.6182 24.545 90.2122 24.2798 89.765 24.1059C89.3179 23.932 88.8394 23.8532 88.3601 23.8745ZM78.6469 32.2172C78.6257 32.5696 78.4766 32.9021 78.2275 33.1523C77.9784 33.4025 77.6466 33.553 77.2943 33.5758C76.942 33.553 76.6102 33.4025 76.3611 33.1523C76.112 32.9021 75.9629 32.5696 75.9417 32.2172V26.5078C75.9417 24.7542 74.7687 23.7787 73.2366 23.7787C71.2916 23.7787 70.5255 25.0176 70.5255 27.6808V32.2172C70.5044 32.5696 70.3553 32.9021 70.1062 33.1523C69.8571 33.4025 69.5253 33.553 69.173 33.5758C68.8207 33.553 68.4889 33.4025 68.2398 33.1523C67.9907 32.9021 67.8416 32.5696 67.8204 32.2172V26.5078C67.8204 24.7542 66.8749 23.653 65.3428 23.653C63.4276 23.653 62.4042 25.0176 62.4042 27.6808V32.2172C62.3831 32.5696 62.234 32.9021 61.9849 33.1523C61.7358 33.4025 61.404 33.553 61.0517 33.5758C60.6994 33.553 60.3676 33.4025 60.1185 33.1523C59.8694 32.9021 59.7203 32.5696 59.6991 32.2172V22.7434C59.7217 22.392 59.8714 22.061 60.1204 21.812C60.3693 21.5631 60.7004 21.4134 61.0517 21.3908C61.403 21.4134 61.7341 21.5631 61.983 21.812C62.232 22.061 62.3817 22.392 62.4042 22.7434C63.2661 21.69 64.2894 21.1454 65.9951 21.1454C67.6888 21.1454 68.8498 21.8576 69.6159 23.2401C70.5734 21.9055 71.9619 21.1813 73.9249 21.1813C76.3906 21.1813 78.6528 23.1982 78.6528 25.9991V32.2232L78.6469 32.2172ZM53.8281 32.3369C52.8287 33.3783 52.1883 33.7134 50.0218 33.7134C47.1491 33.7134 45.258 31.8521 45.258 28.8538V22.7434C45.278 22.3912 45.4269 22.0586 45.6763 21.8092C45.9258 21.5597 46.2583 21.4108 46.6105 21.3908C46.9627 21.4108 47.2952 21.5597 47.5447 21.8092C47.7941 22.0586 47.943 22.3912 47.9631 22.7434V28.3511C47.9631 30.2961 48.8727 31.3195 50.5963 31.3195C52.0327 31.3195 53.2057 31.0801 53.8281 29.3326C53.8161 29.3326 53.8281 28.1655 53.8281 27.1781V22.7374C53.8483 22.3842 53.998 22.0509 54.2487 21.8013C54.4994 21.5517 54.8334 21.4034 55.1866 21.3848C55.5388 21.4048 55.8714 21.5538 56.1208 21.8032C56.3703 22.0526 56.5192 22.3852 56.5392 22.7374V32.3249C56.5392 33.0132 55.8749 33.5698 55.1866 33.5698C54.4984 33.5698 53.8281 33.0132 53.8281 32.3249V32.3369ZM37.1726 33.7134C36.3949 33.7447 35.6205 33.5963 34.9095 33.2797C34.1985 32.9632 33.5701 32.4869 33.073 31.8881V32.1035C33.073 32.7918 32.4087 33.3483 31.7205 33.3483C31.0322 33.3483 30.3679 32.7918 30.3679 32.1035V17.3331C30.3865 16.9799 30.5348 16.6459 30.7844 16.3952C31.034 16.1445 31.3673 15.9948 31.7205 15.9746C32.0736 15.9948 32.407 16.1445 32.6565 16.3952C32.9061 16.6459 33.0544 16.9799 33.073 17.3331V22.9169C33.576 22.327 34.2062 21.8589 34.9164 21.5479C35.6265 21.2369 36.3979 21.0911 37.1726 21.1215C40.2846 21.1215 43.0017 23.665 43.0017 27.4055C43.0017 31.1639 40.2846 33.7074 37.1726 33.7074V33.7134ZM36.9212 23.8745C35.0959 23.8745 33.073 24.7961 33.073 27.4833C33.073 30.1704 35.0959 31.0921 36.9212 31.0921C38.944 31.0921 40.518 29.7156 40.518 27.4833C40.5401 27.0045 40.4622 26.5264 40.2894 26.0794C40.1166 25.6324 39.8526 25.2263 39.5143 24.8868C39.176 24.5474 38.7707 24.2821 38.3243 24.1078C37.8778 23.9335 37.4 23.854 36.9212 23.8745ZM24.1737 24.3413C24.4071 24.7482 24.4071 25.251 24.1737 25.6579L19.7151 33.3663C19.5998 33.566 19.434 33.7319 19.2345 33.8474C19.0349 33.963 18.8085 34.0241 18.578 34.0246H9.66068C9.4301 34.0241 9.2037 33.963 9.00414 33.8474C8.80459 33.7319 8.63887 33.566 8.52358 33.3663L4.07093 25.6579C3.95537 25.4578 3.89453 25.2307 3.89453 24.9996C3.89453 24.7685 3.95537 24.5414 4.07093 24.3413L8.52358 16.6329C8.63887 16.4332 8.80459 16.2673 9.00414 16.1518C9.2037 16.0363 9.4301 15.9752 9.66068 15.9746H18.578C19.0448 15.9746 19.4757 16.226 19.7151 16.6329L24.1737 24.3413ZM18.6198 26.1307C19.2363 26.1307 19.739 25.622 19.739 24.9996C19.739 24.3772 19.2363 23.8745 18.6198 23.8745H9.62477C9.32558 23.8745 9.03863 23.9933 8.82707 24.2049C8.6155 24.4165 8.49665 24.7034 8.49665 25.0026C8.49665 25.3018 8.6155 25.5887 8.82707 25.8003C9.03863 26.0119 9.32558 26.1307 9.62477 26.1307H18.6139H18.6198ZM15.4838 29.961C16.0943 29.961 16.591 29.4582 16.591 28.8358C16.591 28.2134 16.0943 27.7047 15.4838 27.7047H12.7488C12.1384 27.7047 11.6416 28.2134 11.6416 28.8358C11.6416 29.4582 12.1384 29.961 12.7488 29.961H15.4779H15.4838ZM11.6416 20.0442C11.0252 20.0442 10.5225 20.547 10.5225 21.1694C10.5225 21.7918 11.0252 22.3005 11.6416 22.3005H16.597C17.2134 22.3005 17.7161 21.7918 17.7161 21.1694C17.7161 20.547 17.2134 20.0442 16.597 20.0442H11.6416Z" fill="white"/>
</svg>