<svg xmlns="http://www.w3.org/2000/svg" width="80" height="50" viewBox="0 0 120 50" fill="none">
<path d="M60.2694 10.746C60.8696 10.774 61.4429 11.0031 61.8969 11.3964C62.5156 11.9818 62.6779 12.9578 62.385 13.7388C61.2466 16.0808 58.5391 17.6451 56.689 18.1626C55.5822 18.4227 54.1829 18.4227 53.1737 18.0325C52.6851 18.3252 52.2729 19.2711 51.6763 18.878C50.8128 18.204 51.5603 17.1492 51.0618 16.4008C50.959 16.2467 50.7001 16.2354 50.57 15.9832C49.8861 14.4868 50.7327 13.0554 51.6763 11.9172C53.2496 10.163 57.7633 8.20843 60.2694 10.746ZM55.029 11.9167C54.1499 12.0793 53.1572 12.4616 52.6205 13.0879C52.0833 13.7138 51.7419 14.3242 52.0673 14.9746C53.2067 14.1291 53.7599 12.9579 55.0294 12.2424C55.029 12.1118 55.2242 12.0143 55.029 11.9167ZM60.335 12.2424C58.0887 12.0468 56.3961 13.7388 54.8012 15.3648C54.7036 15.625 54.1178 15.9177 54.5734 16.2104C56.722 16.4055 58.7725 15.7881 60.335 14.3562C60.791 13.9335 61.1155 13.3806 60.8886 12.7948C60.791 12.5676 60.5613 12.34 60.335 12.2424ZM79.7984 21.9359C80.8402 24.4734 81.7188 28.4739 79.7984 30.9139C79.2778 31.4993 78.3667 32.0389 77.7809 31.5969C75.6323 29.8733 74.7216 27.4008 73.387 25.1884C73.1918 25.0909 73.1918 25.3515 73.0941 25.449C72.606 27.6934 73.5172 30.6212 71.9878 32.3774C71.402 32.4749 70.854 32.1737 70.6531 31.5969C69.9042 29.2874 70.6847 26.88 70.88 24.5705C71.336 23.3993 71.5313 22.0334 72.5405 21.1549C74.168 21.8053 74.949 23.6274 75.8922 24.9612C76.5765 25.9694 77.1292 27.1081 77.9101 28.0186C78.5935 27.726 78.2572 26.8333 78.236 26.2946C77.9748 24.1803 77.389 22.2286 76.8354 20.2118C76.8038 19.6915 76.5109 18.813 77.0631 18.4878C78.5298 19.1386 79.1472 20.6671 79.7984 21.9359ZM69.9688 21.1549C69.9688 21.6432 69.5784 22.2531 69.252 22.3261C66.1276 22.8139 62.6449 22.5213 59.7157 23.4969C59.6181 23.8546 60.0412 23.9196 60.2689 24.0172C62.7746 24.4074 65.4118 24.505 67.8532 25.1234C69.144 25.4509 69.6114 26.978 69.709 28.2463C69.7689 29.2464 69.3841 30.4582 68.4069 31.1416C65.9989 32.6705 62.3209 32.605 59.8789 31.2071C58.9456 30.6839 58.0562 29.8412 57.9911 28.8001C57.9968 27.9734 58.3495 27.3225 58.9352 27.011C61.2791 26.0674 64.1757 26.5887 66.1941 27.7915C66.3234 28.4424 65.6188 28.407 65.2816 28.6375C63.0353 29.9388 61.3432 27.1745 59.2602 28.1817C58.9673 28.3768 58.7556 28.9212 59.0975 29.0928C61.6686 30.2315 64.5332 29.418 67.0718 28.7025C67.3647 28.605 67.7231 28.3123 67.7551 28.0196C67.6575 26.9785 66.4861 26.7513 65.7372 26.4586C63.5239 25.9058 61.0829 25.9058 58.7065 25.6781C58.2509 25.5805 57.6704 25.2634 57.5351 24.8976C57.2747 24.1171 57.2747 23.0435 57.8605 22.3931C60.8872 19.7254 65.4764 19.9535 69.3171 20.669C69.5779 20.7647 69.8708 20.8622 69.9688 21.1549ZM55.7453 22.3912C56.0382 25.5136 56.2009 28.4094 56.1358 31.6944C56.0707 32.1167 55.5826 32.2147 55.2572 32.3774C54.7366 32.4749 54.0636 32.3642 53.8575 32.0847C53.1091 30.8805 53.3694 29.2549 53.3043 27.791C53.4019 25.482 53.3694 22.977 54.0207 20.8297C54.1452 20.5177 54.5088 20.2443 54.8017 20.439C55.5826 20.8297 55.7128 21.6107 55.7453 22.3912ZM91.9078 21.9359C92.0643 22.1989 92.228 22.6052 91.9078 22.7814C90.443 23.4318 88.458 23.1391 86.7649 23.3343C86.3094 23.7245 85.951 24.3749 86.1132 24.9608C86.2768 25.0583 86.4226 25.2068 86.6022 25.1879C87.6431 25.2535 89.206 24.7001 89.8903 25.6758C90.0572 25.9661 89.8676 27.0501 89.4021 27.0746C88.1321 27.2382 86.0439 26.9153 85.4303 27.2382C84.6493 27.7585 84.714 28.7666 84.4211 29.5806C84.9747 29.9383 85.5543 29.5721 86.2108 29.4825C87.4162 29.2874 88.7509 28.9297 89.9544 29.1899C90.1822 29.6126 90.508 30.0684 90.2798 30.5887C88.2279 32.2152 85.5812 33.8822 82.7615 32.703C81.7032 32.2289 81.2316 30.6212 81.5901 29.2558C81.8174 28.2798 82.8261 27.3367 82.2083 26.2955C82.1107 25.8398 82.3715 25.45 82.762 25.3524C83.8358 25.3524 83.6076 24.0186 84.1612 23.4003C83.543 22.7173 81.981 22.7498 82.1437 21.3835C82.8926 20.9933 83.8042 21.1233 84.6493 20.9933C86.5697 20.6025 88.7178 20.3749 90.6722 20.6025C91.0612 20.6808 91.5824 21.4481 91.9078 21.9359ZM45.4271 14.5193C48.4308 16.973 52.3276 21.1554 51.8395 25.9694C51.2533 29.7757 47.2173 32.638 43.7996 33.549C40.4796 34.5247 36.3134 34.4271 32.9278 33.6466C32.7 34.265 32.4722 35.0125 31.7564 35.2731C31.3008 35.4357 30.7146 35.3381 30.3566 35.0454C29.3479 34.1019 30.1614 32.2803 28.6966 31.6954C25.8321 30.4916 22.7398 28.1167 21.2755 25.1894C21.0802 24.604 21.308 24.0186 21.666 23.5633C23.9122 21.7742 26.7437 21.0588 29.5757 20.5055C29.7384 20.5705 29.6733 20.3428 29.8034 20.2778C29.9661 18.3261 30.0312 16.3414 30.6495 14.5848C30.7905 14.3383 31.1376 14.2596 31.3659 14.4222C33.1561 15.7881 32.3095 18.3586 33.091 20.2123C36.5087 20.3749 39.9264 20.5375 42.6277 22.4572C43.5393 23.2051 43.7615 24.6337 43.4738 25.45C43.1866 26.2649 42.2372 26.8489 41.3582 26.9129C40.772 26.9129 39.6656 26.97 39.7307 26.5232C39.7957 26.0759 41.7218 25.3439 41.1304 24.7336C40.2801 23.8565 36.0258 23.3347 33.389 23.0095C33.0636 22.9445 32.7651 23.0421 32.7651 23.3998C32.7 25.8718 32.5048 28.604 32.9278 30.9794C32.9604 31.1425 33.1556 31.3376 33.3188 31.3692C37.973 32.1177 42.888 31.6944 46.5335 29.0273C48.2261 27.6619 48.7798 25.7413 48.4864 23.6274C47.0216 17.7398 40.8701 14.1936 35.8249 11.9167C30.9103 9.76989 25.4741 8.66372 19.648 8.95688C18.7203 9.02475 17.2503 9.34477 17.2395 9.6728C17.2287 10.0008 18.9047 9.89762 18.7038 10.5183C18.5034 11.1386 16.8 10.7705 16.2954 10.6159C15.7907 10.4613 15.8398 9.73737 15.9699 9.28208C17.2395 7.03769 20.7822 6.85624 22.3823 6.77753C31.2352 6.54941 39.7962 9.91883 45.4271 14.5193ZM29.478 23.2372C27.2318 23.2697 24.8559 23.4973 22.7728 24.2778C22.3498 24.4404 21.8287 24.8957 22.1541 25.449C23.0001 26.5873 24.2102 27.5219 25.344 28.1813C26.4777 28.8397 27.9807 29.6777 29.3479 29.8733C29.6733 27.7585 29.6733 25.6767 29.6407 23.4973C29.5101 23.4323 29.6403 23.3022 29.478 23.2372ZM96.7568 20.2769C96.6592 23.1066 94.022 24.8637 94.022 27.6934C94.1196 27.791 94.1856 27.9211 94.3148 27.857C96.4314 25.5471 98.514 22.2616 101.606 21.2859C102.421 21.2209 103.157 21.9283 103.462 22.4572C104.536 24.604 104.277 27.6293 102.779 29.581C101.234 31.4969 98.547 33.4194 95.4886 33.0937C94.2196 36.2167 93.3391 39.5022 92.851 42.9178C92.5906 43.6007 91.9728 42.9828 91.5824 42.8527C88.9461 40.771 91.1108 35.2599 91.2895 34.5567C91.4682 33.8554 92.1738 32.2011 92.6897 30.8159C91.4527 28.6045 92.2336 25.9364 93.2424 23.8871C94.0234 22.5208 95.0986 21.1544 96.3677 20.1138C96.529 20.1143 96.6592 20.1468 96.7568 20.2769ZM101.998 23.79C101.608 23.725 101.444 24.2458 101.12 24.3433C99.6227 26.0349 98.1249 27.7264 97.376 29.7432C98.3857 29.8733 99.2313 29.2229 100.111 28.8651C101.608 27.9216 102.552 26.361 102.454 24.5715C102.389 24.2778 102.128 24.0502 101.998 23.79Z" fill="white"/>
</svg>