<svg xmlns="http://www.w3.org/2000/svg" width="80" height="50" viewBox="0 0 120 50" fill="none">
<path fill-rule="evenodd" clip-rule="evenodd" d="M20.2925 35.5577V14.1475H25.0227V20.5434L26.427 19.8349C27.561 19.263 28.1583 19.1266 29.5295 19.1266C33.936 19.1266 37.0141 22.0327 37.3928 26.5505C37.7271 30.5392 36.024 33.7699 32.811 35.241C31.6387 35.7775 31.1903 35.8443 29.2616 35.7688C27.2446 35.6897 26.9555 35.6127 25.9139 34.8783L24.7737 34.0742V35.5577H20.2925ZM30.4322 31.0855C32.9076 29.9619 33.4172 26.5868 31.4061 24.6377C28.8957 22.2044 25.0261 23.977 25.0236 27.5617C25.0224 29.2798 25.7255 30.4693 27.1151 31.1004C28.4062 31.6869 29.1147 31.6837 30.4322 31.0855Z" fill="white"/>
<path d="M48.1756 17.052C48.1756 15.637 48.2543 14.4009 48.3504 14.3048C48.4462 14.2087 49.5386 14.1619 50.7777 14.201L53.0302 14.2719L53.1716 19.6245H55.3953V23.1099H53.1634L53.0302 35.4332H48.3001L48.1669 23.1099H45.935V19.6245H48.1756V17.052Z" fill="white"/>
<path fill-rule="evenodd" clip-rule="evenodd" d="M56.2853 27.7198C56.2557 24.0517 57.7689 21.3391 60.6473 19.9008C61.9605 19.2446 62.4764 19.1266 64.0321 19.1266C66.0561 19.1266 67.2554 19.512 68.2141 20.471L68.839 21.0956V19.6245H73.5691V35.5764L68.9672 35.4332L68.841 34.7098C68.7244 34.0431 68.6863 34.0201 68.3577 34.4167C67.112 35.9199 63.1212 36.3369 60.7479 35.2117C59.1304 34.4446 57.8289 33.0602 56.9817 31.2052C56.429 29.9945 56.2985 29.3423 56.2853 27.7198ZM67.3878 30.6291C69.3239 28.9999 69.2921 25.7334 67.3261 24.2937C65.9411 23.2794 63.5715 23.3424 62.4129 24.4241C61.3842 25.3849 61.0578 26.295 61.1726 27.8826C61.2625 29.1259 61.4006 29.466 62.1154 30.2032C63.6318 31.7678 65.8241 31.9449 67.3878 30.6291Z" fill="white"/>
<path d="M81.9769 20.706C82.2136 20.4107 82.7992 19.9349 83.2784 19.6486C83.9414 19.2528 84.5698 19.1283 85.9059 19.1276C88.2996 19.1263 89.9761 19.9427 90.9376 21.5781L91.6185 22.7365L91.7736 35.5769L87.1372 35.4332L87.0065 30.2051C86.9349 27.3297 86.7815 24.7779 86.6662 24.5344C86.3583 23.8851 85.6926 23.6078 84.4428 23.6078C83.0494 23.6078 82.3314 24.163 82.0274 25.475C81.9005 26.0227 81.7939 28.5195 81.7907 31.0237L81.7847 35.5764L77.179 35.4332L77.0475 19.6245H81.5357L81.5412 20.4336C81.5467 21.2415 81.5474 21.242 81.9769 20.706Z" fill="white"/>
<path d="M39.8356 35.4332L39.6931 30.5786H44.9571L44.8147 35.4332H39.8356Z" fill="white"/>
<path d="M93.8558 16.6318H95.0408V15.8904H91.7408V16.6318H92.9041V19.8737H93.8558V16.6318Z" fill="white"/>
<path d="M97.5761 18.6618L96.6948 15.8904H95.4448V19.8737H96.3966V18.9435L96.3044 17.0367L97.2616 19.8737H97.8907L98.8451 17.0394L98.7529 18.9435V19.8737H99.7074V15.8904H98.4547L97.5761 18.6618Z" fill="white"/>
</svg>