<svg xmlns="http://www.w3.org/2000/svg" width="80" height="50" viewBox="0 0 120 50" fill="none">
<path d="M31.5059 12.6504H15.1677C12.9175 12.6504 11.075 14.4885 11.075 16.7698V33.1982C11.075 35.4794 12.9175 37.3176 15.1677 37.3176H31.4896C33.7561 37.3176 35.5823 35.463 35.5823 33.1982V16.7698C35.5986 14.4885 33.7724 12.6504 31.5059 12.6504ZM31.1472 31.5406C31.1472 32.2627 30.5602 32.8371 29.859 32.8371H16.8308C16.1134 32.8371 15.5427 32.2463 15.5427 31.5406V18.4438C15.5427 17.7217 16.1297 17.1473 16.8308 17.1473H29.8427C30.5602 17.1473 31.1309 17.7381 31.1309 18.4438V31.5406H31.1472ZM20.7279 28.3402C20.3202 28.3402 19.9778 28.012 19.9778 27.5853V22.3663C19.9778 21.956 20.3039 21.6113 20.7279 21.6113H25.9294C26.337 21.6113 26.6794 21.9396 26.6794 22.3663V27.6017C26.6794 28.012 26.3533 28.3566 25.9294 28.3566L20.7279 28.3402ZM42.1046 27.9792H44.7787C44.9091 29.5055 45.9364 30.7035 48.0072 30.7035C49.866 30.7035 50.9911 29.7845 50.9911 28.3895C50.9911 27.0929 50.0943 26.5021 48.4964 26.1246L46.4255 25.6815C44.1754 25.1891 42.4796 23.7285 42.4796 21.3487C42.4796 18.7228 44.795 16.9175 47.8115 16.9175C51.0074 16.9175 53.0619 18.6079 53.2413 21.1025H50.6487C50.3389 19.9373 49.3769 19.248 47.8115 19.248C46.1647 19.248 45.0233 20.1507 45.0233 21.2995C45.0233 22.4483 46.0016 23.1376 47.6974 23.5151L49.7519 23.9582C52.0021 24.4506 53.5511 25.8292 53.5511 28.2253C53.5511 31.278 51.2683 33.0997 48.0235 33.0997C44.3547 33.0833 42.3328 31.081 42.1046 27.9792ZM63.1225 37.334V32.8699L63.3019 30.9169H63.1225C62.5029 32.3283 61.2147 33.0997 59.47 33.0997C56.6492 33.0997 54.5457 30.7856 54.5457 27.2406C54.5457 23.6956 56.6492 21.3816 59.47 21.3816C61.1984 21.3816 62.4214 22.2022 63.1225 23.4659H63.3019V21.5949H65.6173V37.3504H63.1225V37.334ZM63.2203 27.2242C63.2203 24.9594 61.8344 23.63 60.1549 23.63C58.4754 23.63 57.0894 24.9594 57.0894 27.2242C57.0894 29.4891 58.4754 30.8184 60.1549 30.8184C61.8344 30.8184 63.2203 29.4891 63.2203 27.2242ZM67.4761 28.3895V21.5785H69.9709V28.1597C69.9709 29.9486 70.8188 30.802 72.2537 30.802C73.9984 30.802 75.1398 29.5383 75.1398 27.5853V21.5785H77.6345V32.8535H75.3191V30.523H75.1398C74.5854 32.0165 73.395 33.0833 71.5362 33.0833C68.8621 33.0833 67.4761 31.36 67.4761 28.3895ZM79.1509 29.7188C79.1509 27.6017 80.6184 26.3708 83.2273 26.2231L86.3091 26.0261V25.1399C86.3091 24.0895 85.5427 23.4495 84.1894 23.4495C82.9338 23.4495 82.2001 24.0895 82.0044 24.9922H79.5097C79.7706 22.6945 81.662 21.3816 84.1894 21.3816C87.0592 21.3816 88.8039 22.6125 88.8039 24.9922V32.8699H86.4885V30.7856H86.3091C85.7873 32.1806 84.6949 33.0997 82.5914 33.0997C80.5695 33.0833 79.1509 31.7211 79.1509 29.7188ZM86.3091 28.3238V27.733L83.798 27.9135C82.4447 27.9956 81.8251 28.5043 81.8251 29.5219C81.8251 30.3753 82.5262 30.999 83.5045 30.999C85.2819 30.9826 86.3091 29.8501 86.3091 28.3238ZM90.6627 32.8699V21.5949H92.9781V23.7613H93.1575C93.4836 22.2842 94.6087 21.5949 96.2718 21.5949H97.4132V23.8433H95.9946C94.3804 23.8433 93.1738 24.8937 93.1738 26.9124V32.8535L90.6627 32.8699ZM108.827 27.6837H100.316C100.446 29.7517 101.897 30.9169 103.495 30.9169C104.849 30.9169 105.696 30.3589 106.186 29.4398H108.664C107.979 31.7375 105.99 33.0669 103.479 33.0669C100.169 33.0669 97.8535 30.5723 97.8535 27.2078C97.8535 23.8433 100.234 21.3487 103.495 21.3487C106.773 21.3487 108.925 23.6136 108.925 26.4364C108.909 27.0109 108.86 27.2899 108.827 27.6837ZM106.43 25.9441C106.349 24.3849 105.044 23.3182 103.479 23.3182C101.995 23.3182 100.74 24.2701 100.43 25.9441H106.43Z" fill="white"/>
</svg>