<svg xmlns="http://www.w3.org/2000/svg" width="80" height="50" viewBox="0 0 120 50" fill="none">
<path d="M19.8594 36.7509C20.3547 35.6869 20.795 34.7329 21.2537 33.7606C24.3908 27.0277 27.5279 20.3131 30.665 13.5802C30.7751 13.3234 30.9035 13.25 31.1787 13.25C33.2335 13.2683 35.3065 13.25 37.3613 13.25C58.1103 13.25 78.8411 13.25 99.5902 13.25C99.7553 13.25 99.902 13.25 100.141 13.25C100.03 13.5068 99.9571 13.7086 99.8653 13.9104C96.3796 21.3772 92.8939 28.8623 89.4082 36.329C89.2615 36.6409 89.0964 36.7326 88.7661 36.7326C65.9623 36.7326 43.1585 36.7326 20.3547 36.7143C20.2263 36.7509 20.0795 36.7509 19.8594 36.7509ZM34.481 18.3318C32.4446 22.7164 30.4449 26.9726 28.4635 31.2289C28.5553 31.2656 28.592 31.2839 28.6287 31.2839C29.7661 31.2839 30.9035 31.3022 32.041 31.2656C32.1694 31.2656 32.3529 31.0821 32.4262 30.9537C33.1417 29.4677 33.8389 27.9633 34.536 26.459C34.6094 26.2939 34.7011 26.1287 34.8112 25.8902C35.7101 27.8166 36.5724 29.6695 37.4897 31.6325C38.407 29.6695 39.2692 27.8166 40.1682 25.9086C40.2599 26.092 40.3333 26.2205 40.3883 26.3305C40.9937 27.6147 41.6542 28.8806 42.1678 30.2015C42.4981 31.0821 42.9751 31.394 43.8924 31.2839C44.7363 31.1922 45.5985 31.2656 46.5341 31.2656C44.5161 26.936 42.5348 22.6797 40.5351 18.4235C40.4984 18.4235 40.4617 18.4235 40.425 18.4235C39.4527 20.4966 38.4803 22.5697 37.4713 24.7345C36.4807 22.6063 35.5083 20.5149 34.481 18.3318ZM72.4567 18.4419C72.31 18.4235 72.2366 18.4052 72.1632 18.4052C70.4571 18.4052 68.7509 18.3685 67.0447 18.4052C62.3482 18.5152 59.2661 23.4686 61.2475 27.7432C62.6417 30.7519 66.0357 32.2562 69.1728 31.2656C72.31 30.2932 74.273 27.1011 73.7226 23.8722C73.6859 23.6521 73.6492 23.5053 73.3557 23.5053C71.6128 23.5236 69.8516 23.5053 68.1088 23.5236C67.9987 23.5236 67.8336 23.5787 67.7969 23.6521C67.4483 24.3675 67.1181 25.083 66.7512 25.8719C67.9804 25.8719 69.1178 25.8719 70.2553 25.8719C70.2369 26.0003 70.2369 26.0554 70.2186 26.1287C70.1819 26.2388 70.1452 26.3672 70.0901 26.459C69.448 27.5781 68.4941 28.2202 67.1732 28.2018C65.8706 28.1835 64.8799 27.5597 64.3112 26.4039C63.2655 24.3492 64.6965 21.9092 67.0264 21.7991C68.1822 21.7441 69.3563 21.7624 70.5121 21.7991C70.8607 21.7991 71.0074 21.6891 71.1542 21.3772C71.5395 20.5149 71.9431 19.6527 72.3467 18.7904C72.365 18.6987 72.4017 18.607 72.4567 18.4419ZM59.3028 25.0647C59.3395 21.4689 56.4042 18.4602 52.8451 18.4235C49.1759 18.3868 46.1856 21.2855 46.1489 24.9179C46.1122 28.5687 49.0108 31.5591 52.6433 31.5958C56.2758 31.6325 59.2661 28.6971 59.3028 25.0647ZM88.2892 25.028C88.2892 21.3772 85.3538 18.4419 81.703 18.4235C78.0889 18.4235 75.1352 21.3588 75.1352 24.9913C75.1352 28.6421 78.0706 31.5958 81.703 31.5958C85.3355 31.5958 88.2892 28.6605 88.2892 25.028Z" fill="white"/>
<path d="M55.925 25.0093C55.925 26.7888 54.5124 28.2015 52.7328 28.2198C50.9533 28.2382 49.504 26.7888 49.504 25.0093C49.504 23.2298 50.9533 21.7988 52.6961 21.7988C54.494 21.7804 55.925 23.2114 55.925 25.0093Z" fill="white"/>
<path d="M78.5063 24.991C78.5246 23.1931 79.9556 21.7804 81.7535 21.7988C83.5147 21.7988 84.9456 23.2664 84.9273 25.0276C84.909 26.8255 83.478 28.2382 81.6801 28.2198C79.9006 28.2015 78.4879 26.7705 78.5063 24.991Z" fill="white"/>
</svg>