<svg width="70" height="70" viewBox="0 0 70 70" fill="none" xmlns="http://www.w3.org/2000/svg">
                  <path opacity="0.5" d="M11.6641 30.6257V8.02148H58.3307V30.6257C58.3307 39.5627 58.3307 44.0312 55.4018 46.8076C52.4729 49.584 47.7588 49.584 38.3307 49.584H37.1849H32.8099H31.6641C22.236 49.584 17.5219 49.584 14.593 46.8076C11.6641 44.0312 11.6641 39.5627 11.6641 30.6257Z" fill="#FF56A5"></path>
                  <path d="M45.2968 26.3378C46.1511 25.4835 46.1511 24.0985 45.2968 23.2442C44.4425 22.3899 43.0575 22.3899 42.2032 23.2442L38.4323 27.0152C38.2279 27.2195 38.0622 27.3851 37.9167 27.526C37.7711 27.3851 37.6054 27.2195 37.4011 27.0152L35.6213 25.2354C35.1985 24.8122 34.7413 24.3547 34.3034 24.0205C33.7902 23.629 33.056 23.2076 32.0833 23.2076C31.1107 23.2076 30.3764 23.629 29.8633 24.0205C29.4253 24.3548 28.968 24.8124 28.5452 25.2356L24.7032 29.0776C23.8489 29.9318 23.8489 31.3169 24.7032 32.1711C25.5575 33.0254 26.9425 33.0254 27.7968 32.1711L31.5677 28.4002C31.7721 28.1959 31.9378 28.0303 32.0833 27.8894C32.2289 28.0303 32.3946 28.1959 32.5989 28.4002L34.3785 30.1798C34.8014 30.603 35.2586 31.0606 35.6966 31.3948C36.2098 31.7863 36.944 32.2078 37.9167 32.2078C38.8893 32.2078 39.6236 31.7863 40.1367 31.3948C40.5747 31.0606 41.032 30.603 41.4548 30.1798L45.2968 26.3378Z" fill="#FF56A5"></path>
                  <path d="M5.83594 3.64648C4.62781 3.64648 3.64844 4.62586 3.64844 5.83398C3.64844 7.04211 4.62781 8.02148 5.83594 8.02148H11.6693H58.3359H64.1693C65.3774 8.02148 66.3568 7.04211 66.3568 5.83398C66.3568 4.62586 65.3774 3.64648 64.1693 3.64648H5.83594Z" fill="#FF56A5"></path>
                  <path d="M32.8104 49.584V59.8987L28.1863 62.2108C27.1057 62.751 26.6677 64.065 27.208 65.1456C27.7483 66.2262 29.0622 66.6642 30.1428 66.1239L34.9979 63.6964L39.8529 66.1239C40.9335 66.6642 42.2475 66.2262 42.7878 65.1456C43.3281 64.065 42.8901 62.751 41.8095 62.2108L37.1854 59.8987V49.584H32.8104Z" fill="#FF56A5"></path>
                </svg>