<svg width="70" height="70" viewBox="0 0 70 70" fill="none" xmlns="http://www.w3.org/2000/svg">
                                <path opacity="0.5" fill-rule="evenodd" clip-rule="evenodd" d="M46.6641 32.084H11.6641V46.6673C11.6641 54.9169 11.6641 59.0417 14.2269 61.6045C16.7897 64.1673 20.9145 64.1673 29.1641 64.1673H40.8307C49.0803 64.1673 53.2051 64.1673 55.7679 61.6045C58.3307 59.0417 58.3307 54.9169 58.3307 46.6673V43.7507C58.3307 38.2509 58.3307 35.5011 56.6222 33.7925C54.9136 32.084 52.1638 32.084 46.6641 32.084Z" fill="#c1df09"></path>
                                <path d="M40.8359 48.1243C40.8359 46.8928 39.6774 46.0623 37.3604 44.4011C35.0117 42.7173 33.8373 41.8754 32.9616 42.4936C32.0859 43.1118 32.0859 44.7826 32.0859 48.1243C32.0859 51.4661 32.0859 53.1369 32.9616 53.7551C33.8373 54.3733 35.0117 53.5314 37.3604 51.8476C39.6774 50.1864 40.8359 49.3559 40.8359 48.1243Z" fill="#c1df09"></path>
                                <path d="M38.8398 23.9171L40.5909 9.23477L26.8512 12.9163L26.7318 13.7458L24.9699 28.5182L38.7327 24.8305L38.8398 23.9171Z" fill="#c1df09"></path>
                                <path d="M10.1561 21.9191C9.5493 24.1838 10.2548 26.8168 11.6659 32.083L20.4136 29.739L20.5274 28.8239L22.2786 14.1415L21.9779 14.2221C16.7117 15.6332 14.0786 16.3387 12.4208 17.9966C11.3347 19.0826 10.5536 20.4355 10.1561 21.9191Z" fill="#c1df09"></path>
                                <path d="M53.2208 20.9484L43.2823 23.6114L45.0441 8.83903L45.2052 8.04488C45.581 7.96991 45.9025 7.92366 46.2085 7.9036C49.74 7.67213 53.0632 9.59076 54.6284 12.7648C55.0096 13.5378 55.2727 14.5196 55.7988 16.4832C55.9742 17.1377 56.0619 17.465 56.0807 17.7516C56.1578 18.9288 55.5183 20.0365 54.4603 20.5582C54.2026 20.6853 53.8753 20.773 53.2208 20.9484Z" fill="#c1df09"></path>
                            </svg>