<svg width="259" height="240" viewBox="0 0 259 240" fill="none" xmlns="http://www.w3.org/2000/svg">
                <path d="M166.862 195.768C166.852 195.207 166.896 195.289 166.727 195.289C166.763 195.451 166.808 195.611 166.862 195.768Z" fill="#FFE497"></path>
                <path d="M151.636 173.839C151.717 173.904 151.778 173.99 151.811 174.088C151.845 174.186 151.849 174.292 151.825 174.393C151.48 175.739 151.123 177.842 152.561 178.698C153.818 179.449 156.158 178.634 157.267 177.605C157.342 177.536 157.437 177.491 157.538 177.477C158.214 175.306 159.303 173.286 160.745 171.527C160.769 170.577 160.87 169.797 160.87 169.797C159.943 170.214 158.924 170.382 157.913 170.285C155.483 169.671 153.801 166.299 155.511 162.652C155.92 161.583 156.543 160.608 157.342 159.788C158.141 158.968 159.098 158.319 160.157 157.881C160.61 157.73 161.092 157.679 161.567 157.732C162.043 157.785 162.501 157.94 162.911 158.187C165.209 159.59 163.804 163.418 163.804 163.418C165.145 162.686 165.899 162.571 166.249 162.813L166.104 154.983C166.041 154.938 165.99 154.879 165.954 154.811C165.918 154.742 165.899 154.666 165.899 154.589C165.233 137.413 165.44 137.003 164.477 135.414C164.034 134.693 163.427 134.086 162.705 133.643C161.984 133.2 161.168 132.933 160.324 132.865C160.174 132.898 136.549 137.446 132.779 139.282L131.461 140.02C129.467 141.266 127.835 143.015 126.729 145.092C125.624 147.168 125.084 149.499 125.164 151.85V219.473C139.686 217.51 153.822 213.331 167.077 207.082L166.908 197.991C166.265 197.216 165.834 196.289 165.655 195.298L157.276 195.348C156.763 195.348 156.717 194.684 156.748 194.82C156.506 192.629 156.302 190.433 156.229 188.231C149.846 190.158 140.671 183.101 143.413 173.751C143.623 173.035 144.169 171.377 144.845 171.034C145.544 170.669 146.127 171.18 151.636 173.839Z" fill="#FFE497"></path>
                <path d="M164.305 166.224C166.226 171.36 165.399 170.413 166.395 170.753L166.277 164.416C166.136 164.864 165.88 165.267 165.533 165.585C165.187 165.902 164.763 166.122 164.305 166.224Z" fill="#FFE497"></path>
                <path d="M166.247 162.812C165.89 162.57 165.136 162.685 163.802 163.417C166.119 157.102 159.132 154.918 155.508 162.651C153.801 166.296 155.478 169.67 157.911 170.284C158.922 170.382 159.941 170.214 160.867 169.796C160.867 169.796 160.767 170.577 160.742 171.526C160.717 172.549 160.742 174.73 161.761 174.901C163.292 175.157 166.226 173.625 166.226 172.476C165.763 170.344 165.123 168.254 164.313 166.228C165.915 166.063 167.034 163.343 166.247 162.812Z" fill="#CC6666"></path>
                <path d="M128.043 3.0422C126.112 1.79194 123.847 1.15561 121.548 1.21694C119.248 1.27827 117.021 2.03439 115.159 3.3858C99.0669 15.0885 87.4226 35.4775 80.6172 54.4976C85.763 56.293 116.889 65.8811 163.632 53.6488C156.575 34.1126 145.626 13.7494 128.043 3.0422Z" fill="#333276"></path>
                <path d="M67.921 149.186C67.6725 161.609 67.1727 194.835 72.9663 205.842C79.1768 217.644 106.83 224.082 124.103 220.238V159.333C119.562 159.79 91.2774 161.994 67.921 149.186Z" fill="#333276"></path>
                <path d="M134.913 68.885C134.951 68.9548 134.974 69.032 134.98 69.1114C134.986 69.1908 134.975 69.2706 134.948 69.3454C134.921 69.4202 134.878 69.4884 134.822 69.5453C134.766 69.6022 134.699 69.6466 134.625 69.6754C117.522 76.0693 117.9 101.411 134.996 107.399C135.083 107.427 135.16 107.479 135.22 107.547C135.28 107.616 135.32 107.7 135.336 107.79C148.013 111.966 160.916 102.086 160.916 88.2636C160.916 74.2182 147.637 64.3531 134.913 68.885ZM150.687 75.2273C150.528 75.5313 150.276 75.7773 149.969 75.9302C149.662 76.083 149.314 76.1349 148.975 76.0785C148.637 76.0221 148.325 75.8602 148.084 75.616C147.842 75.3717 147.685 75.0575 147.633 74.7183C147.58 74.379 147.637 74.032 147.794 73.7266C147.95 73.4213 148.2 73.1732 148.506 73.0178C148.812 72.8624 149.159 72.8077 149.498 72.8613C149.837 72.9149 150.15 73.0742 150.394 73.3165C150.679 73.5362 150.868 73.8573 150.923 74.2131C150.978 74.569 150.893 74.9321 150.687 75.2273ZM154.511 99.8604C153.859 100.706 153.017 99.2329 153.217 98.9817C157.084 93.9676 157.64 83.6352 152.83 77.0784C152.423 76.5284 153.904 75.7067 154.304 76.2499C159.08 82.7647 159.633 93.203 154.511 99.8604Z" fill="#FFE497"></path>
                <path d="M253.768 161.582C250.877 159.234 247.187 158.1 243.476 158.421C242.002 154.823 239.589 151.687 236.489 149.341C233.389 146.994 229.717 145.523 225.854 145.08C225.466 142.511 224.356 140.106 222.654 138.143C220.952 136.181 218.728 134.742 216.24 133.994C216.572 114.189 189.566 108.477 181.574 126.207C181.302 126.822 182.207 127.36 182.486 126.74C190.251 109.509 215.895 115.73 215.182 134.384C215.183 134.499 215.221 134.611 215.291 134.703C215.361 134.795 215.459 134.861 215.569 134.893C217.997 135.556 220.174 136.922 221.829 138.818C223.483 140.714 224.541 143.056 224.87 145.551C224.875 145.69 224.933 145.821 225.031 145.919C225.129 146.017 225.261 146.074 225.399 146.08C229.193 146.453 232.81 147.867 235.85 150.167C238.891 152.466 241.237 155.561 242.629 159.109C242.662 159.22 242.729 159.317 242.821 159.387C242.913 159.457 243.025 159.495 243.14 159.498C257.067 157.968 263.397 175.815 252.231 183.48C249.534 185.322 246.256 186.115 243.015 185.709C242.336 185.626 242.348 186.683 243.015 186.764C257.204 188.49 264.704 170.487 253.768 161.582Z" fill="#3B0016"></path>
                <path d="M231.367 189.464C232.302 188.002 232.807 186.306 232.822 184.571C232.837 182.836 232.363 181.131 231.453 179.654C230.544 178.176 229.235 176.985 227.679 176.217C226.123 175.449 224.382 175.135 222.656 175.312C224.943 163.489 215.06 156.99 208.172 160.538C207.567 160.849 208.102 161.76 208.705 161.45C214.993 158.21 224.131 164.615 221.491 175.77C221.47 175.859 221.473 175.953 221.498 176.041C221.524 176.129 221.571 176.209 221.636 176.274C221.7 176.339 221.781 176.387 221.869 176.412C221.957 176.438 222.05 176.441 222.14 176.42C223.804 176.136 225.516 176.371 227.042 177.093C228.569 177.815 229.836 178.989 230.673 180.456C231.509 181.922 231.875 183.611 231.719 185.292C231.563 186.974 230.894 188.567 229.802 189.855C229.48 190.229 229.778 190.907 230.315 190.737C231.382 190.39 232.527 190.36 233.611 190.649C234.695 190.939 235.671 191.537 236.422 192.371C237.173 193.205 237.666 194.238 237.842 195.346C238.017 196.454 237.868 197.589 237.411 198.614C237.14 199.23 238.044 199.769 238.323 199.149C238.842 198.049 239.058 196.83 238.947 195.619C238.837 194.408 238.404 193.248 237.695 192.26C236.985 191.272 236.024 190.491 234.911 190C233.799 189.508 232.575 189.323 231.367 189.464Z" fill="#3B0016"></path>
                <path d="M224.226 179.87C224.086 179.87 223.952 179.926 223.853 180.025C223.754 180.124 223.698 180.259 223.698 180.399C223.698 180.539 223.754 180.673 223.853 180.772C223.952 180.871 224.086 180.927 224.226 180.927C226.399 180.753 227.039 183.206 227.309 185.353C227.316 185.489 227.375 185.617 227.473 185.71C227.572 185.804 227.702 185.856 227.838 185.856C227.974 185.856 228.105 185.804 228.203 185.71C228.302 185.617 228.36 185.489 228.367 185.353C228.309 184.006 227.929 182.693 227.26 181.522C226.941 181.007 226.494 180.584 225.962 180.295C225.43 180.005 224.832 179.859 224.226 179.87ZM253.204 174.352C253.741 172.266 253.466 170.054 252.434 168.163C251.402 166.272 249.691 164.844 247.645 164.167C247.512 164.136 247.373 164.158 247.255 164.228C247.138 164.298 247.052 164.41 247.016 164.541C246.979 164.673 246.995 164.814 247.06 164.934C247.124 165.054 247.233 165.145 247.363 165.187C249.141 165.784 250.627 167.032 251.521 168.68C252.416 170.328 252.653 172.254 252.185 174.07C252.148 174.205 252.166 174.349 252.235 174.471C252.304 174.593 252.418 174.683 252.553 174.721C252.689 174.758 252.833 174.74 252.955 174.671C253.077 174.602 253.167 174.488 253.204 174.352ZM199.705 121.741C199.026 121.774 199.026 122.828 199.705 122.798C201.367 122.76 202.984 123.339 204.244 124.423C205.504 125.507 206.318 127.02 206.528 128.669C206.589 129.34 207.645 129.348 207.583 128.669C207.369 126.74 206.443 124.961 204.986 123.679C203.528 122.398 201.645 121.707 199.705 121.741ZM185.15 108.587C187.774 104.604 191.437 101.414 195.743 99.3628C196.357 99.0708 195.822 98.1595 195.211 98.4515C190.744 100.591 186.947 103.911 184.231 108.053C183.859 108.624 184.778 109.153 185.15 108.587ZM193.049 108.243C195.192 106.38 197.695 104.975 200.403 104.117C201.049 103.914 200.774 102.895 200.123 103.099C197.242 104.011 194.58 105.507 192.302 107.492C191.788 107.943 192.537 108.689 193.049 108.243ZM63.7367 138.675C60.4055 137.667 56.8696 137.54 53.4747 138.307C50.0798 139.074 46.9419 140.709 44.3677 143.052C41.7935 145.394 39.871 148.364 38.7882 151.672C37.7053 154.98 37.4991 158.512 38.1897 161.923C35.7229 163.179 33.6399 165.075 32.1597 167.414C8.36597 160.088 -9.36798 189.214 7.61087 207.061C6.28855 209.428 5.58768 212.091 5.57374 214.802C5.57374 214.942 5.6294 215.076 5.72847 215.175C5.82755 215.275 5.96192 215.33 6.10203 215.33C6.24215 215.33 6.37652 215.275 6.4756 215.175C6.57467 215.076 6.63033 214.942 6.63033 214.802C6.64035 212.144 7.35902 209.536 8.71228 207.248C8.76863 207.147 8.79098 207.03 8.77607 206.915C8.76117 206.8 8.70978 206.692 8.62944 206.608C-8.17422 189.516 9.17268 161.02 32.2494 168.537C32.3617 168.567 32.4806 168.559 32.5881 168.515C32.6957 168.471 32.786 168.394 32.8456 168.294C34.3095 165.846 36.4659 163.887 39.0425 162.663C39.1413 162.603 39.2182 162.512 39.2619 162.405C39.3057 162.298 39.314 162.179 39.2856 162.067C38.5679 158.815 38.7135 155.432 39.7081 152.254C40.7027 149.076 42.5116 146.214 44.9551 143.952C47.3986 141.689 50.3916 140.106 53.6367 139.358C56.8818 138.611 60.2659 138.726 63.4529 139.691C63.5845 139.72 63.7221 139.697 63.8375 139.627C63.9529 139.558 64.0374 139.447 64.0736 139.317C64.1099 139.187 64.0952 139.049 64.0326 138.929C63.9699 138.81 63.8641 138.719 63.7367 138.675ZM58.5515 172.979C47.8117 170.73 41.0213 176.869 41.3214 184.405C39.5003 184.266 37.6716 184.546 35.975 185.222C34.2783 185.898 32.7586 186.953 31.532 188.306C30.3054 189.659 29.4044 191.275 28.8976 193.029C28.3909 194.784 28.292 196.631 28.6083 198.43C28.7197 199.098 29.7383 198.816 29.6269 198.149C29.3536 196.502 29.4609 194.815 29.9405 193.216C30.4202 191.617 31.2594 190.149 32.394 188.925C33.5286 187.7 34.9284 186.752 36.4862 186.152C38.044 185.552 39.7184 185.317 41.3812 185.464C41.517 185.448 41.335 185.902 41.885 187.55C42.0982 188.193 43.1195 187.917 42.9036 187.269C42.2577 185.341 42.198 183.264 42.7323 181.302C43.2665 179.34 44.3706 177.58 45.905 176.246C50.6461 172.152 60.336 173.186 62.0432 176.364C62.365 176.963 63.2777 176.43 62.9558 175.831C62.4751 175.063 61.8315 174.409 61.0705 173.916C60.3095 173.423 59.4496 173.104 58.5515 172.979Z" fill="#3B0016"></path>
                <path d="M14.0556 176.053C12.2311 176.867 10.6952 178.214 9.64884 179.917C8.6025 181.619 8.0945 183.597 8.19135 185.593C8.23481 186.272 9.29005 186.272 9.24795 185.593C9.15428 183.782 9.61549 181.986 10.57 180.444C11.5244 178.903 12.9267 177.689 14.5893 176.965C15.2127 176.7 14.6749 175.789 14.0556 176.053ZM46.3266 168.723C46.4624 169.388 47.4836 169.107 47.3451 168.442C47.1973 167.758 47.2386 167.048 47.4647 166.386C47.6908 165.724 48.0931 165.137 48.6283 164.687C49.1634 164.236 49.8112 163.941 50.5019 163.832C51.1926 163.722 51.9 163.803 52.548 164.066C53.0219 164.243 53.3194 163.659 53.1442 163.291C49.5262 155.574 55.8984 148.634 61.9908 150.546C62.6399 150.751 62.9197 149.731 62.2719 149.528C55.8889 147.525 48.6706 154.217 51.8146 162.803C51.0275 162.683 50.223 162.758 49.4713 163.02C48.7196 163.283 48.0436 163.725 47.5023 164.309C46.961 164.893 46.5709 165.601 46.3659 166.37C46.161 167.139 46.1475 167.947 46.3266 168.723ZM43.4067 128.124C48.6445 126.878 54.1109 126.964 59.3072 128.373C59.441 128.406 59.5826 128.386 59.7016 128.316C59.8207 128.246 59.9078 128.133 59.9443 128C59.9808 127.867 59.9639 127.725 59.8971 127.604C59.8303 127.484 59.719 127.394 59.587 127.354C54.2066 125.898 48.5474 125.813 43.1255 127.106C42.4641 127.263 42.7453 128.282 43.4067 128.124ZM37.5614 136.088C41.0174 134.116 44.9604 133.162 48.9354 133.335C49.6145 133.365 49.6145 132.309 48.9354 132.279C44.7728 132.105 40.6456 133.109 37.0277 135.175C36.9067 135.246 36.8187 135.362 36.7832 135.498C36.7477 135.633 36.7675 135.778 36.8382 135.899C36.909 136.02 37.025 136.108 37.1606 136.143C37.2962 136.179 37.4404 136.159 37.5614 136.088ZM95.939 221.938C87.9969 218.225 78.9411 223.037 77.4187 230.265C73.2235 228.763 67.8211 231.52 66.2946 238.652C66.1588 239.315 67.1705 239.603 67.3131 238.934C68.7228 232.35 73.5006 229.9 77.2462 231.315C77.0129 232.982 77.4085 234.676 78.3558 236.068C78.751 236.611 79.6677 236.087 79.2684 235.536C74.8533 229.451 84.8624 217.909 95.4066 222.844C96.0191 223.136 96.5555 222.226 95.939 221.938ZM105.435 223.43C104.298 223.144 103.098 223.267 102.043 223.776C100.988 224.286 100.145 225.15 99.6625 226.218C99.1798 227.285 99.0876 228.489 99.4019 229.617C99.7162 230.746 100.417 231.729 101.382 232.393C101.939 232.786 102.469 231.872 101.915 231.48C101.164 230.949 100.623 230.172 100.385 229.284C100.147 228.396 100.227 227.452 100.612 226.617C100.997 225.782 101.662 225.108 102.491 224.711C103.321 224.315 104.263 224.221 105.155 224.447C105.815 224.61 106.096 223.591 105.435 223.43Z" fill="#3B0016"></path>
                <path d="M85.5203 225.458C84.6222 226.074 83.8735 226.884 83.3292 227.828C82.7849 228.771 82.4589 229.825 82.375 230.911C82.375 231.051 82.4307 231.185 82.5297 231.284C82.6288 231.383 82.7632 231.439 82.9033 231.439C83.0434 231.439 83.1778 231.383 83.2769 231.284C83.3759 231.185 83.4316 231.051 83.4316 230.911C83.5077 230.008 83.782 229.132 84.2351 228.347C84.6881 227.562 85.3088 226.887 86.0527 226.369C86.1708 226.296 86.2563 226.18 86.2917 226.046C86.3271 225.912 86.3096 225.769 86.2428 225.647C86.1715 225.527 86.0556 225.439 85.9204 225.404C85.7851 225.369 85.6414 225.388 85.5203 225.458Z" fill="#3B0016"></path>
                <path d="M83.9037 188.936L60.0611 189.503L65.7963 192.15C66.7022 192.24 63.9317 192.343 90.0817 190.853L83.9037 188.936ZM58.0878 189.753C57.1371 192.435 46.2833 223.324 46.2344 223.46L54.0407 229.313C54.6478 227.531 52.1054 235.504 65.4242 193.147C65.3373 193.113 66.1236 193.461 58.0878 189.753Z" fill="#F76559"></path>
                <path d="M204.134 133.173C202.438 132.13 202.848 132.408 179.508 131.543C177.928 90.9634 163.732 21.6192 127.704 1.61321C125.753 0.547836 123.548 0.0336436 121.327 0.125754C119.106 0.217864 116.951 0.912804 115.095 2.13607C112.583 3.88799 110.223 5.84733 108.039 7.99352C86.0749 28.7234 75.0377 61.228 70.5085 91.2105C66.8837 115.208 65.9901 163.352 67.4487 183.592C67.4976 184.271 68.5542 184.271 68.5053 183.592C67.1065 164.455 68.1658 123.864 69.7031 106.766C73.0264 69.7799 85.6349 24.8542 115.153 3.38552C117.015 2.03351 119.243 1.27706 121.543 1.21573C123.844 1.15439 126.108 1.79106 128.04 3.04192C163.698 24.7551 176.149 89.972 178.455 131.508L172.664 131.293C171.985 131.269 171.985 132.325 172.664 132.35C202.935 133.459 202.216 133.254 203.554 134.056C204.233 134.468 204.794 135.05 205.18 135.745C205.565 136.44 205.763 137.224 205.754 138.019C205.754 138.347 204.951 202.043 204.95 202.12C204.942 202.775 204.794 203.42 204.514 204.012C204.234 204.603 203.83 205.128 203.329 205.549C202.828 205.97 202.243 206.278 201.612 206.452C200.981 206.626 200.32 206.662 199.674 206.557L177.652 204.579C176.973 204.517 176.973 205.575 177.652 205.635L199.789 207.625C200.566 207.713 201.353 207.637 202.099 207.402C202.845 207.167 203.534 206.779 204.12 206.261C204.707 205.744 205.178 205.109 205.505 204.398C205.831 203.687 206.004 202.916 206.013 202.134C206.013 201.998 206.817 138.138 206.819 138.001C206.821 137.034 206.576 136.082 206.106 135.237C205.636 134.392 204.957 133.681 204.134 133.173Z" fill="#1D1D1B"></path>
                <path d="M165.328 134.78C164.783 133.924 164.044 133.207 163.171 132.688C162.298 132.169 161.316 131.862 160.303 131.793C159.495 131.769 158.687 131.864 157.907 132.075C134.726 137.388 133.304 137.243 129.993 139.72C128.309 140.978 126.915 142.582 125.905 144.425C124.895 146.267 124.292 148.305 124.137 150.401C124.067 151.395 124.103 221.012 124.103 221.012C124.103 221.153 124.158 221.287 124.257 221.386C124.357 221.485 124.491 221.541 124.631 221.541C124.771 221.541 124.906 221.485 125.005 221.386C125.104 221.287 125.159 221.153 125.159 221.012V151.845C125.083 149.494 125.624 147.165 126.729 145.089C127.834 143.013 129.464 141.263 131.457 140.015C134.149 138.31 133.766 138.697 157.955 133.148C158.468 133.008 158.992 132.909 159.52 132.851C160.5 132.786 161.48 132.99 162.352 133.441C163.225 133.892 163.958 134.573 164.472 135.409C165.975 137.893 165.402 154.467 166.102 154.978C166.177 155.042 166.269 155.084 166.367 155.097C166.464 155.111 166.564 155.096 166.654 155.054C166.743 155.013 166.819 154.946 166.872 154.863C166.926 154.78 166.954 154.683 166.953 154.584C166.255 136.941 166.511 136.649 165.328 134.78ZM169.76 133.693C169.718 133.014 168.663 133.014 168.705 133.693L169.952 153.964C169.993 154.643 171.051 154.643 171.009 153.964C170.927 152.646 169.872 135.469 169.76 133.693Z" fill="#1D1D1B"></path>
                <path d="M211.803 199.469L205.264 190.982C204.992 190.7 204.626 190.528 204.235 190.5C203.845 190.471 203.457 190.587 203.147 190.826L199.923 193.313C198.171 191.392 195.955 189.956 193.487 189.141C194.111 189.559 194.776 190.14 194.791 190.73C196.38 191.577 197.827 192.668 199.079 193.963L192.749 198.844C191.704 197.36 189.32 193.851 189.308 192.035C188.928 191.813 188.671 191.648 188.671 191.648C188.671 191.648 189.437 193.549 188.69 193.956C189.538 195.923 190.617 197.782 191.903 199.495L189.26 201.532C188.953 201.768 188.743 202.109 188.669 202.489C188.596 202.87 188.664 203.264 188.861 203.598L195.213 211.625C195.32 211.807 195.463 211.966 195.633 212.092C195.802 212.218 195.995 212.309 196.2 212.359C196.405 212.41 196.619 212.419 196.827 212.386C197.036 212.353 197.236 212.279 197.416 212.168L211.492 201.919C211.693 201.794 211.864 201.626 211.992 201.427C212.12 201.228 212.202 201.003 212.231 200.768C212.261 200.533 212.238 200.295 212.164 200.07C212.09 199.845 211.967 199.64 211.803 199.469Z" fill="#D1A9FF"></path>
                <path d="M195.013 188.944C195.366 188.288 194.432 186.509 189.038 186.364C188.569 188.457 187.332 190.299 185.572 191.524C188.109 195.43 189.744 194.329 188.665 191.66C191.716 193.631 192.555 193.209 192.719 192.96C193.344 192.024 192.096 190.62 192.096 190.62C192.096 190.62 193.913 191.918 194.435 191.453C195.544 190.464 193.779 189.208 192.446 188.56C192.74 188.683 194.676 189.569 195.013 188.944ZM151.856 169.541C152.933 170.326 152.127 172.28 151.3 173.395C151.12 173.642 150.924 173.485 151.584 173.795C151.603 173.807 151.621 173.821 151.637 173.837C152.203 173.048 154.814 169.324 153.916 168.829C153.238 168.455 152.354 169.089 151.856 169.541ZM151.046 170.383C150.422 170.618 149.849 170.97 149.358 171.421C148.815 171.855 148.16 171.089 148.642 170.653C149.373 169.988 150.693 169.039 151.61 169.4C152.607 165.597 150.606 165.785 148.719 168.857C149.27 166.14 147.768 164.265 145.188 170.867L145.308 170.925C146.057 171.096 146.77 171.397 147.415 171.815L150.333 173.194C150.32 173.137 150.318 173.077 150.328 173.019C150.338 172.961 150.36 172.906 150.392 172.856C151.033 171.976 151.744 170.274 151.046 170.383Z" fill="#CC6666"></path>
                <path d="M173.77 194.818H173.486C172.545 195.405 171.837 195.265 166.73 195.29C166.926 196.26 167.43 197.141 168.168 197.801C168.905 198.462 169.836 198.867 170.821 198.956C170.957 198.994 171.071 199.083 171.14 199.205C171.21 199.327 171.227 199.471 171.19 199.606C171.153 199.741 171.063 199.856 170.942 199.925C170.82 199.994 170.675 200.012 170.54 199.975C169.331 199.823 168.202 199.286 167.321 198.443C166.441 197.6 165.855 196.496 165.651 195.294L157.272 195.344C157.136 195.339 157.007 195.284 156.91 195.189C156.813 195.094 156.755 194.966 156.748 194.831C154.747 194.937 147.513 195.781 144.661 202.436C141.333 210.199 153.947 220.594 153.947 220.594C153.947 220.594 160.184 220.458 161.986 219.207C161.986 219.207 153.53 208.258 156.025 204.1C158.004 200.803 160.634 200.259 163.503 201.689C162.452 200.544 161.379 199.413 160.227 198.374C159.72 197.918 160.47 197.173 160.973 197.627C169.929 205.705 181.576 223.974 181.495 224.661C182.944 224.775 187.04 224.925 188.737 223.227L173.77 194.818Z" fill="#3B0016"></path>
                <path d="M156.23 188.231C156.346 191.732 156.785 194.973 156.752 194.835C156.76 194.971 156.818 195.099 156.915 195.194C157.012 195.289 157.141 195.344 157.277 195.349L165.656 195.298C165.857 196.502 166.442 197.608 167.323 198.451C168.204 199.295 169.334 199.831 170.545 199.98C170.68 200.017 170.825 199.999 170.947 199.93C171.068 199.861 171.158 199.746 171.195 199.611C171.232 199.476 171.214 199.332 171.145 199.21C171.076 199.088 170.961 198.999 170.826 198.961C169.841 198.871 168.91 198.466 168.173 197.805C167.436 197.145 166.932 196.264 166.734 195.294L171.791 195.263C172.318 195.304 172.846 195.188 173.307 194.928C173.768 194.669 174.142 194.278 174.38 193.806C174.857 192.744 174.677 192.706 172.127 183.385C176.169 186.31 180.355 189.029 184.669 191.534C184.805 191.625 184.965 191.672 185.128 191.669C185.291 191.666 185.45 191.613 185.582 191.518C187.379 190.264 188.63 188.373 189.08 186.229C189.105 186.139 189.106 186.044 189.082 185.953C189.058 185.863 189.011 185.781 188.945 185.714C184.487 182.022 171.39 171.945 165.8 170.577C166.04 171.384 166.156 171.935 166.126 171.799C166.305 171.892 173.26 174.192 187.974 186.279C187.554 188.002 186.539 189.52 185.107 190.566C180.736 188.318 169.353 180.182 165.448 177.313C164.898 176.906 164.371 177.828 164.915 178.226C165.05 178.325 169.514 181.537 170.769 182.424C170.892 182.868 173.404 191.975 173.506 192.422C173.591 192.771 173.543 193.139 173.371 193.454C173.2 193.769 172.917 194.009 172.578 194.128C172.25 194.241 172.902 194.19 157.752 194.288C156.982 187.157 156.618 179.933 160.381 173.818C161.075 172.696 160.679 173.831 160.743 171.526C160.642 171.607 160.551 171.698 160.471 171.798C159.183 173.513 158.189 175.43 157.529 177.471C156.77 178.051 155.919 178.499 155.011 178.796C152.517 179.475 150.811 178.335 151.823 174.387C151.85 174.274 151.841 174.157 151.797 174.05C151.754 173.943 151.678 173.852 151.581 173.79C150.918 173.479 151.11 173.655 151.297 173.391C153.554 170.34 151.99 167.604 148.639 170.649C148.547 170.746 148.495 170.875 148.494 171.009C148.494 171.143 148.544 171.272 148.636 171.37C148.727 171.468 148.852 171.527 148.986 171.536C149.12 171.545 149.252 171.502 149.355 171.416C149.792 171.042 150.272 170.719 150.784 170.455C151.149 170.33 151.455 170.208 151.232 171.226C151.066 171.76 150.813 172.262 150.484 172.712C150.348 172.897 150.289 172.984 150.326 173.197C145.971 171.138 145.512 170.675 144.843 171.024C144.175 171.373 143.621 173.042 143.411 173.74C140.665 183.119 149.898 190.14 156.23 188.231ZM145.867 183.05C144.752 181.437 144.109 179.544 144.013 177.585C143.917 175.626 144.371 173.679 145.324 171.965C145.271 171.996 145.365 171.988 145.46 172.025C145.893 172.196 146.303 172.464 146.726 172.663L150.708 174.546C150.318 176.335 150.268 178.57 152.029 179.611C152.844 179.967 153.737 180.105 154.621 180.009C155.505 179.914 156.349 179.59 157.069 179.068C156.433 181.71 156.142 184.423 156.204 187.139C152.614 188.359 148.05 186.127 145.867 183.05ZM134.997 107.401C117.843 101.395 117.567 76.0567 134.626 69.6778C135.255 69.4442 134.969 68.427 134.347 68.6592C116.148 75.4592 116.656 102.094 134.717 108.42C135.367 108.647 135.612 107.616 134.997 107.401ZM93.1571 190.704C84.7492 188.094 84.206 187.917 84.0335 187.889C83.861 187.86 71.3055 188.182 57.7748 188.501C57.6626 188.514 57.5559 188.556 57.4662 188.625C57.3764 188.693 57.3071 188.785 57.2655 188.89C57.218 189.025 45.2736 223.013 45.1038 223.507C44.934 224.002 44.858 223.742 54.0781 230.654C54.2791 230.803 53.3189 230.901 65.0881 228.835C65.1765 228.811 65.2572 228.764 65.322 228.7C65.3868 228.635 65.4335 228.554 65.4575 228.466C65.7291 227.616 74.3204 200.128 74.4005 199.863L93.3283 200.474C93.4679 200.473 93.6015 200.417 93.7003 200.318C93.799 200.219 93.8551 200.086 93.8566 199.946C93.5238 190.689 93.6922 190.87 93.1571 190.704ZM83.899 188.939L90.077 190.856C61.2433 192.501 68.0759 192.153 65.7916 192.153L60.0564 189.506L83.899 188.939ZM54.0428 229.315L46.2364 223.461C46.2867 223.319 57.1406 192.415 58.0899 189.755C68.4833 194.552 64.4865 192.774 65.4236 193.15C53.9844 229.533 54.753 227.233 54.0428 229.315ZM64.5136 227.87L55.1143 229.528C67.6087 189.736 66.1148 194.474 66.4815 193.411L73.3915 199.491C63.745 230.489 64.9211 226.506 64.5136 227.868V227.87ZM74.1982 198.806L67.8219 193.189C67.9578 193.181 92.0218 191.808 92.508 191.773C92.5922 194.132 92.7796 199.217 92.7796 199.4L74.1982 198.806ZM181.498 224.669C181.582 223.96 169.954 205.741 160.976 197.634C160.474 197.181 159.723 197.925 160.231 198.381C164.522 202.252 172.929 212.112 180.523 224.887C180.582 224.979 180.668 225.05 180.769 225.091C180.87 225.133 180.981 225.142 181.087 225.118C181.193 225.094 181.29 225.038 181.363 224.958C181.437 224.878 181.484 224.777 181.498 224.669ZM187.72 225.337C185.515 225.887 183.251 226.161 180.979 226.152C180.979 226.152 175.711 225.597 175.157 226.287C174.603 226.977 175.711 230.306 188.048 228.921C191.658 228.512 190.17 224.705 187.72 225.337ZM160.691 220.759C158.487 221.309 156.223 221.583 153.951 221.573C153.951 221.573 148.683 221.021 148.129 221.709C147.574 222.398 148.683 225.729 161.02 224.341C164.629 223.937 163.138 220.131 160.691 220.759ZM162.905 158.187C165.202 159.59 163.798 163.419 163.798 163.419C166.605 161.888 166.861 163.036 166.222 164.566C166.077 164.986 165.823 165.36 165.488 165.651C165.152 165.943 164.745 166.14 164.309 166.224C164.309 166.224 164.431 166.55 164.613 167.054C171.624 167.71 172.26 163.942 172.384 162.941C172.52 161.831 169.335 161.762 169.335 161.762C173.681 159.401 172.988 156.687 169.199 157.951C169.199 157.951 172.527 156.287 171.626 155.109C170.726 153.93 165.596 154.277 162.892 155.244C162.265 155.445 161.691 155.787 161.217 156.243C160.742 156.7 160.378 157.26 160.153 157.879C160.607 157.729 161.088 157.679 161.563 157.732C162.037 157.786 162.495 157.941 162.905 158.187ZM159.788 160.765C160.399 161.071 160.077 161.477 160.495 161.716C160.616 161.786 160.76 161.805 160.895 161.77C161.031 161.734 161.147 161.647 161.218 161.527C161.483 161.02 160.843 159.886 160.068 159.742C159.932 159.705 159.787 159.724 159.665 159.793C159.543 159.863 159.453 159.978 159.416 160.114C159.379 160.249 159.398 160.394 159.467 160.516C159.537 160.638 159.652 160.728 159.788 160.765ZM158.29 163.69C159.082 163.69 159.082 162.23 158.29 162.23C157.498 162.23 157.499 163.69 158.29 163.69ZM155.265 167.106C157.13 167.771 160.349 166.112 159.475 165.236C158.878 164.636 157.869 166.537 155.944 166.186C155.593 166.121 155.056 165.9 154.901 166.458C154.868 166.592 154.888 166.734 154.955 166.854C155.023 166.974 155.134 167.064 155.265 167.106ZM203.603 192.637L203.035 202.648L190.703 202.419C190.568 202.426 190.441 202.484 190.347 202.583C190.254 202.681 190.202 202.811 190.202 202.947C190.202 203.082 190.254 203.212 190.347 203.311C190.441 203.409 190.568 203.467 190.703 203.474L203.532 203.715C203.671 203.711 203.803 203.654 203.901 203.556C204 203.457 204.056 203.325 204.06 203.186L204.659 192.637C204.697 191.966 203.642 191.959 203.603 192.637Z" fill="#1D1D1B"></path>
              </svg>