<svg xmlns="http://www.w3.org/2000/svg" width="48" height="48" fill="none"><circle cx="24" cy="24" r="23" fill="#FCCD03" stroke="#0F0F0F" stroke-width="2"/><path stroke="#0F0F0F" stroke-width="2" d="M37.901 24c0 7.953-6.224 14.4-13.901 14.4-7.678 0-13.902-6.447-13.902-14.4M8 24h4.197M40 24h-4.197"/><path fill="#0F0F0F" stroke="#0F0F0F" d="M19.5 14.4c0 1.276-.216 2.408-.547 3.202-.166.398-.35.687-.53.87-.178.18-.32.228-.423.228-.102 0-.244-.048-.422-.228-.18-.183-.365-.472-.53-.87-.331-.794-.548-1.926-.548-3.202s.217-2.408.547-3.202c.166-.398.351-.688.53-.87.179-.18.321-.228.423-.228.102 0 .244.047.422.228.18.182.365.472.53.87.332.794.548 1.926.548 3.202ZM31.5 14.4c0 1.276-.216 2.408-.547 3.202-.166.398-.35.687-.53.87-.178.18-.32.228-.423.228-.102 0-.244-.048-.422-.228-.18-.183-.365-.472-.53-.87-.331-.794-.548-1.926-.548-3.202s.217-2.408.547-3.202c.166-.398.351-.688.53-.87.179-.18.321-.228.423-.228.102 0 .244.047.422.228.18.182.365.472.53.87.332.794.548 1.926.548 3.202Z"/></svg>