<svg width="264" height="265" viewBox="0 0 264 265" fill="none" xmlns="http://www.w3.org/2000/svg">
                <path d="M197.82 66.9473C233.978 103.15 233.978 161.846 197.82 198.049C161.662 234.251 103.038 234.251 66.8799 198.049C30.7218 161.846 30.7218 103.15 66.8799 66.9473C103.038 30.7446 161.662 30.7446 197.82 66.9473Z" fill="#E9045C" stroke="black"></path>
                <path d="M211.292 132.496C211.292 176.152 175.946 211.541 132.345 211.541C88.7448 211.541 53.3984 176.152 53.3984 132.496C53.3984 88.8401 88.7448 53.4512 132.345 53.4512C175.946 53.4512 211.292 88.8401 211.292 132.496Z" fill="#EEDCE8" stroke="black"></path>
                <path d="M132.348 216.024C86.3465 216.024 48.9219 178.553 48.9219 132.494C48.9219 86.4355 86.3465 48.9648 132.348 48.9648C178.349 48.9648 215.774 86.4355 215.774 132.494C215.774 178.553 178.348 216.024 132.348 216.024ZM132.348 52.9496C88.5405 52.9496 52.9009 88.6331 52.9009 132.494C52.9009 176.356 88.5405 212.039 132.348 212.039C176.155 212.039 211.795 176.356 211.795 132.494C211.795 88.6331 176.155 52.9496 132.348 52.9496Z" fill="#E9045C"></path>
                <path d="M166.243 98.5652C184.963 117.308 184.963 147.696 166.243 166.439C147.524 185.181 117.173 185.181 98.4533 166.439C79.7336 147.696 79.7336 117.308 98.4533 98.5652C117.173 79.8224 147.524 79.8224 166.243 98.5652Z" fill="#EEDCE8" stroke="black"></path>
                <path d="M132.352 184.978C103.451 184.978 79.9375 161.437 79.9375 132.5C79.9375 103.562 103.45 80.0215 132.352 80.0215C161.254 80.0215 184.766 103.563 184.766 132.5C184.766 161.436 161.254 184.978 132.352 184.978ZM132.352 87.9893C107.839 87.9893 87.8964 107.957 87.8964 132.5C87.8964 157.042 107.839 177.011 132.352 177.011C156.865 177.011 176.807 157.043 176.807 132.5C176.807 107.956 156.865 87.9893 132.352 87.9893Z" fill="#E9045C"></path>
                <path d="M145.619 145.781C152.948 138.444 152.948 126.548 145.619 119.211C138.291 111.873 126.41 111.874 119.081 119.211C111.753 126.548 111.753 138.444 119.081 145.781C126.41 153.119 138.291 153.119 145.619 145.781Z" fill="black"></path>
                <path d="M132.354 155.267C119.813 155.267 109.609 145.051 109.609 132.495C109.609 119.938 119.813 109.723 132.354 109.723C144.895 109.723 155.098 119.938 155.098 132.495C155.098 145.051 144.895 155.267 132.354 155.267ZM132.354 117.69C124.201 117.69 117.567 124.332 117.567 132.495C117.567 140.658 124.201 147.299 132.354 147.299C140.507 147.299 147.14 140.658 147.14 132.495C147.14 124.332 140.507 117.69 132.354 117.69Z" fill="#E9045C"></path>
                <path d="M146.328 118.746L148.305 120.725L223.149 45.788L221.173 43.8089L146.328 118.746Z" fill="#8218EA"></path>
                <path d="M147.725 113.972C148.859 112.836 154.205 118.189 153.071 119.324L133.244 134.93C132.512 135.507 131.562 134.556 132.138 133.823L147.725 113.972Z" fill="#7226ED"></path>
                <path d="M223.102 45.8301L233.171 46.8321L219.349 60.6717C214.819 65.2066 208.498 67.4675 202.125 66.8333L223.102 45.8301Z" fill="#FF56A5"></path>
                <path d="M221.129 43.8508L220.128 33.7695L206.306 47.6091C201.776 52.144 199.518 58.473 200.152 64.854L221.129 43.8508Z" fill="#FF56A5"></path>
                <path d="M58.9475 248.695C58.9475 248.695 58.4466 251.385 58.1884 254.049C58.087 255.09 58.8816 256.003 59.9249 256.057C63.4707 256.238 71.0544 256.599 73.7778 256.503C74.1877 256.488 74.4589 256.071 74.3107 255.689C74.1868 255.369 73.9442 255.108 73.634 254.961L61.1571 249.074L58.9475 248.695Z" fill="#1D1D1B"></path>
                <path d="M58.579 247.106L58.9299 250.332C58.9299 250.332 61.1153 251.377 62.6256 250.238L61.7504 246.639L58.5781 247.106H58.579Z" fill="url(#paint0_linear_3726_1350)"></path>
                <path d="M59.4413 186.529C59.268 187.369 58.1563 228.512 62.3736 246.995C62.442 247.297 62.2869 247.605 62.0001 247.719C61.3234 247.988 59.9985 248.375 58.4154 248.413C57.9249 248.426 57.4882 248.102 57.3547 247.629C56.1399 243.339 50.3265 221.845 49.7364 201.359C49.077 178.469 49.7442 200.58 49.7442 200.58L50.3932 186.441L59.4422 186.53L59.4413 186.529Z" fill="#8E2BD6"></path>
                <path d="M44.5224 249.963C44.5224 249.963 43.753 251.315 42.9861 254.923C42.8475 255.574 43.2972 256.203 43.9583 256.275C45.1281 256.401 46.9296 256.567 48.3741 256.57C49.0395 256.572 49.5646 255.997 49.491 255.334C49.3437 254.014 48.8662 251.845 47.342 250.143L44.5216 249.963H44.5224Z" fill="#1D1D1B"></path>
                <path d="M43.8984 245.808L44.7442 250.69C44.7442 250.69 45.6202 251.355 47.3697 250.896L46.9936 245.648L43.8984 245.808Z" fill="url(#paint1_linear_3726_1350)"></path>
                <path d="M42.0407 187.625C38.241 209.301 42.3084 241.293 43.7234 247.56C43.8101 247.944 44.1159 248.241 44.5024 248.308C45.1592 248.424 46.2424 248.523 47.3142 248.222C47.6834 248.119 47.9451 247.789 47.9641 247.405C48.2102 242.352 48.1496 211.311 51.6147 199.078C51.7906 198.457 52.1745 197.919 52.7031 197.551L59.2452 192.987L59.8145 185.516L42.0407 187.624V187.625Z" fill="#AC47F5"></path>
                <path d="M65.3247 146.707C54.5583 146.426 42.649 149.321 42.649 149.321C39.2609 168.041 41.7027 189.694 41.7027 189.694C50.0178 191.963 59.4549 188.526 59.4549 188.526C60.915 180.701 67.5898 158.705 67.5898 158.705C72.8573 158.102 77.2054 156.623 80.7937 154.649C78.1014 151.463 76.8562 147.43 76.3216 145.049C72.5029 146.197 68.6452 146.793 65.3238 146.706L65.3247 146.707Z" fill="url(#paint2_linear_3726_1350)"></path>
                <path d="M97.0155 131.208C97.0125 131.226 97.0091 131.247 97.0052 131.269C96.9857 131.384 96.955 131.554 96.9109 131.773C96.8227 132.212 96.6806 132.85 96.4657 133.64C96.0357 135.221 95.3147 137.411 94.1515 139.845C91.8447 144.672 87.8036 150.446 80.8519 154.333C78.3699 151.317 77.1643 147.571 76.6161 145.223C80.8423 143.928 85.0114 141.96 88.3463 139.487C91.6931 137.005 94.2233 133.997 95.0991 130.628C95.1218 130.621 95.1476 130.614 95.1763 130.607C95.302 130.576 95.4796 130.546 95.6854 130.551C96.0696 130.562 96.563 130.696 97.0155 131.208Z" fill="#EEDCE8" stroke="black" stroke-width="0.5"></path>
                <path d="M95.1133 126.67L95.3135 126.82C96.4126 125.35 98.029 123.689 99.3777 122.39C100.051 121.742 100.655 121.186 101.09 120.793C101.305 120.599 101.478 120.445 101.599 120.338C101.743 120.557 101.742 120.752 101.708 120.898C101.685 120.998 101.644 121.083 101.608 121.144C101.591 121.174 101.575 121.196 101.564 121.211C101.56 121.216 101.557 121.221 101.555 121.223L99.4776 123.349L99.3489 123.481L99.4365 123.643C99.5455 123.844 99.6601 124.037 99.7723 124.225C99.7816 124.24 99.7908 124.256 99.8001 124.271C99.9032 124.443 100.004 124.611 100.099 124.783C100.306 125.155 100.485 125.537 100.597 125.982C100.76 126.632 100.65 127.33 100.313 127.927C99.9461 128.574 99.4488 129.41 98.9827 130.06C98.5687 130.637 98.0739 130.922 97.6848 131.063C97.4896 131.135 97.3208 131.17 97.2025 131.187C97.1434 131.195 97.0973 131.2 97.0671 131.202C97.052 131.203 97.0409 131.203 97.0342 131.203L97.0276 131.203L97.0275 131.203H97.0272L97.0269 131.203L96.6898 131.203L96.7748 131.482C96.7671 131.489 96.7561 131.497 96.7405 131.507C96.6698 131.553 96.5458 131.596 96.389 131.594C96.1004 131.59 95.6852 131.43 95.3548 130.816C95.347 130.649 95.3251 130.395 95.2999 130.102C95.2967 130.065 95.2935 130.028 95.2902 129.99C95.2573 129.607 95.2199 129.158 95.1961 128.714C95.1722 128.268 95.1624 127.835 95.1833 127.482C95.1937 127.305 95.2115 127.155 95.237 127.036C95.2637 126.912 95.2939 126.846 95.3137 126.82L95.1133 126.67ZM95.1133 126.67C97.3367 123.695 101.628 119.98 101.628 119.98L95.1072 130.882C95.1027 130.727 95.0793 130.455 95.0505 130.121C94.952 128.976 94.7906 127.103 95.1133 126.67ZM96.7904 131.464C96.791 131.464 96.79 131.466 96.7861 131.471C96.7879 131.466 96.7899 131.464 96.7904 131.464ZM101.551 121.228C101.551 121.228 101.551 121.228 101.551 121.228L101.551 121.228Z" fill="#EEDCE8" stroke="black" stroke-width="0.5"></path>
                <path d="M97.7483 129.404C97.7477 129.407 97.7472 129.409 97.7466 129.412L96.5219 128.025L97.0502 126.643L98.7574 125.222C98.8325 125.282 98.8722 125.342 98.888 125.405C98.9124 125.501 98.8993 125.681 98.7018 125.996C98.5747 126.199 98.4496 126.555 98.3351 126.942C98.2175 127.34 98.102 127.802 98.0006 128.241C97.899 128.679 97.811 129.097 97.7483 129.404Z" fill="#EEDCE8" stroke="black" stroke-width="0.5"></path>
                <path d="M46.6791 159.797L42.649 149.318C42.649 149.318 32.5264 156.064 30.7891 164.723C32.6885 164.881 36.1415 165.409 39.5096 167.153C40.2921 163.064 46.6791 159.797 46.6791 159.797Z" fill="url(#paint3_linear_3726_1350)"></path>
                <path d="M40.0595 170.637L40.0596 170.637C41.051 172.086 42.541 172.749 44.1838 172.938C45.821 173.127 47.627 172.848 49.2953 172.402C50.9664 171.956 52.5161 171.337 53.6466 170.83C54.2123 170.577 54.674 170.351 54.9948 170.189C55.1042 170.133 55.1973 170.085 55.2725 170.046L56.5198 172.427C56.5132 172.431 56.5064 172.436 56.4995 172.441C56.3655 172.53 56.1677 172.659 55.9133 172.82C55.4043 173.142 54.6692 173.588 53.7664 174.086C51.9595 175.082 49.487 176.281 46.8152 177.097C44.1403 177.913 41.2872 178.34 38.7095 177.817C36.1447 177.297 33.8369 175.833 32.2338 172.829L32.2338 172.829C30.7971 170.138 30.5378 167.49 30.9944 164.996C32.8824 165.172 36.087 165.704 39.2348 167.296C39.0723 168.377 39.2866 169.506 40.0595 170.637Z" fill="#EEDCE8" stroke="black" stroke-width="0.5"></path>
                <path d="M59.3677 147.474L59.3678 147.474C59.7317 147.248 59.9793 146.877 60.038 146.457L59.3677 147.474ZM59.3677 147.474C55.399 149.941 52.154 148.456 51.2639 147.952C51.2208 147.927 51.1991 147.873 51.2175 147.821C51.2175 147.821 51.2175 147.821 51.2175 147.821L54.6783 138.101L61.1903 138.164L60.038 146.457L59.3677 147.474Z" fill="#EEDCE8" stroke="black" stroke-width="0.5"></path>
                <path d="M56.2106 138.797L53.5601 131.45L61.9122 129.035C61.9306 129.071 61.9516 129.113 61.9748 129.16C62.0742 129.359 62.2158 129.647 62.3842 130.002C62.7212 130.711 63.1649 131.687 63.5925 132.75C64.0204 133.815 64.4302 134.962 64.7011 136.018C64.9743 137.082 65.0974 138.02 64.9799 138.679C64.8657 139.32 64.5239 139.779 64.0117 140.086C63.4913 140.397 62.7836 140.555 61.9437 140.555C60.2856 140.554 58.1849 139.935 56.2106 138.797Z" fill="#EEDCE8" stroke="black" stroke-width="0.5"></path>
                <path d="M56.2224 135.207C56.3888 135.135 56.4512 134.933 56.3541 134.78C56.0569 134.316 55.5006 133.371 55.3282 132.546C55.3282 132.546 54.6558 132.106 57.0595 131.554C59.4623 131.002 63.0471 130.144 63.8182 128.108C64.5704 126.123 62.6926 121.093 59.5827 125.057C59.4649 125.208 59.2353 125.208 59.12 125.056C58.6226 124.395 57.3116 123.02 55.4659 123.828C53.739 124.585 53.5328 125.844 53.5501 126.481C53.5553 126.669 53.3872 126.813 53.2035 126.775C52.3352 126.601 50.2504 126.439 49.2557 128.572C48.4368 130.33 48.9489 131.334 49.4186 131.827C49.5711 131.987 49.5009 132.247 49.2895 132.31C48.7158 132.48 47.9741 132.958 48.0347 134.299C48.1197 136.153 50.1906 136.01 50.7807 135.931C50.8778 135.918 50.9748 135.952 51.0389 136.025C51.5389 136.59 53.7927 138.989 56.2536 139.299C56.4668 139.326 56.634 139.117 56.5664 138.912L55.5301 135.798C55.4815 135.653 55.5526 135.496 55.6921 135.435L56.2233 135.206L56.2224 135.207Z" fill="#1D1D1B"></path>
                <path d="M57.0945 136.9C56.5318 137.044 55.7802 136.989 55.1461 136.745C54.3938 136.456 53.9444 135.964 54.0254 135.369C54.0465 135.213 54.0946 135.127 54.1422 135.077C54.189 135.028 54.2554 134.994 54.3531 134.979C54.5632 134.946 54.8631 135.013 55.2007 135.146C55.5289 135.275 55.8552 135.453 56.1022 135.6C56.225 135.673 56.3267 135.738 56.3975 135.784C56.4234 135.801 56.4452 135.816 56.4622 135.827L57.0945 136.9Z" fill="#EEDCE8" stroke="black" stroke-width="0.5"></path>
                <path d="M53.0562 179.633L59.2405 158.009C59.3106 157.763 59.5195 157.585 59.7734 157.555C60.8938 157.424 64.1406 157.057 67.89 156.74C72.4054 156.357 77.6495 156.047 80.7828 156.311C81.2282 156.348 81.4977 156.82 81.2992 157.221C79.5177 160.831 72.1879 175.513 68.5173 180.323C68.396 180.483 68.208 180.576 68.0069 180.574L53.6575 180.44C53.2399 180.436 52.9409 180.035 53.0562 179.633Z" fill="black"></path>
                <path d="M54.5496 174.408C54.5496 174.408 53.6882 170.862 54.0357 169.603C54.3832 168.345 55.0565 166.727 57.3007 167.086C59.545 167.445 62.1922 168.392 62.1922 168.392C62.1922 168.392 62.0587 170.031 60.3526 169.502L61.4106 170.322C61.4106 170.322 61.2598 171.635 59.8188 170.934L60.8023 172.021C60.8023 172.021 60.1836 173.098 59.1239 172.408C58.0641 171.716 57.5555 174.836 54.5496 174.409V174.408Z" fill="url(#paint4_linear_3726_1350)"></path>
                <path d="M67.4766 163.196C67.4766 164.2 68.2894 165.014 69.2919 165.014C70.2945 165.014 71.1072 164.2 71.1072 163.196C71.1072 162.193 70.2945 161.379 69.2919 161.379C68.2894 161.379 67.4766 162.193 67.4766 163.196Z" fill="#E9045C"></path>
                <path d="M59.9401 164.393L61.1992 160.117C61.3534 159.592 61.7754 159.197 62.2997 159.088C66.2466 158.264 77.0485 158.088 77.1569 158.087L77.1499 157.604C76.7045 157.61 66.1929 157.781 62.2009 158.615C61.5025 158.761 60.941 159.284 60.7356 159.981L59.4766 164.257L59.9393 164.394L59.9401 164.393Z" fill="#E9045C"></path>
                <defs>
                  <linearGradient id="paint0_linear_3726_1350" x1="58.5271" y1="248.576" x2="62.603" y2="248.614" gradientUnits="userSpaceOnUse">
                    <stop stop-color="#FEBBBA"></stop>
                    <stop offset="1" stop-color="#FF928E"></stop>
                  </linearGradient>
                  <linearGradient id="paint1_linear_3726_1350" x1="43.8387" y1="248.226" x2="47.3584" y2="248.259" gradientUnits="userSpaceOnUse">
                    <stop stop-color="#FEBBBA"></stop>
                    <stop offset="1" stop-color="#FF928E"></stop>
                  </linearGradient>
                  <linearGradient id="paint2_linear_3726_1350" x1="-1171.45" y1="-743.599" x2="-1129.83" y2="-712.858" gradientUnits="userSpaceOnUse">
                    <stop stop-color="#FF928E"></stop>
                    <stop offset="1" stop-color="#FE7062"></stop>
                  </linearGradient>
                  <linearGradient id="paint3_linear_3726_1350" x1="-1174.39" y1="-739.622" x2="-1132.77" y2="-708.881" gradientUnits="userSpaceOnUse">
                    <stop stop-color="#FF928E"></stop>
                    <stop offset="1" stop-color="#FE7062"></stop>
                  </linearGradient>
                  <linearGradient id="paint4_linear_3726_1350" x1="53.9534" y1="170.742" x2="62.1931" y2="170.742" gradientUnits="userSpaceOnUse">
                    <stop stop-color="#FEBBBA"></stop>
                    <stop offset="1" stop-color="#FF928E"></stop>
                  </linearGradient>
                </defs>
              </svg>