<svg xmlns="http://www.w3.org/2000/svg" width="90" height="90" fill="none"><g stroke="#fff" stroke-linecap="round" stroke-linejoin="round" stroke-width="5.625"><path d="M82.5 44.587v3.338c0 13.35-3.338 16.65-16.65 16.65h-41.7c-13.312 0-16.65-3.338-16.65-16.65V24.15C7.5 10.838 10.838 7.5 24.15 7.5H30M45 64.578v17.925M7.5 48.75h75M28.125 82.5h33.75"/><path d="M66.977 35.137h-17.85c-5.175 0-6.9-3.45-6.9-6.9v-13.2c0-4.125 3.375-7.5 7.5-7.5h17.25c3.825 0 6.9 3.075 6.9 6.9v13.8c0 3.825-3.075 6.9-6.9 6.9Z"/><path d="m78.412 29.701-4.537-3.187v-10.35l4.537-3.188c2.25-1.537 4.088-.6 4.088 2.138V27.6c0 2.738-1.838 3.675-4.088 2.1Z"/></g></svg>