<svg xmlns="http://www.w3.org/2000/svg" width="90" height="90" fill="none"><g stroke="#fff" stroke-linecap="round" stroke-linejoin="round" stroke-width="5.625"><path d="M82.5 56.25v-22.5C82.5 15 75 7.5 56.25 7.5h-22.5C15 7.5 7.5 15 7.5 33.75v22.5C7.5 75 15 82.5 33.75 82.5h22.5C75 82.5 82.5 75 82.5 56.25ZM9.445 26.66h71.1M31.945 7.91v18.225M58.055 7.91v16.538"/><path stroke-miterlimit="10" d="M36.563 54.187v-4.5c0-5.775 4.087-8.137 9.075-5.25l3.9 2.25 3.9 2.25c4.987 2.888 4.987 7.613 0 10.5l-3.9 2.25-3.9 2.25c-4.988 2.888-9.075.525-9.075-5.25v-4.5 0Z"/></g></svg>