<svg xmlns="http://www.w3.org/2000/svg" width="90" height="90" fill="none"><path fill="#fff" fill-rule="evenodd" d="M44.788 4.688h.424c6.891 0 12.35 0 16.622.574 4.396.59 7.955 1.836 10.761 4.643 2.807 2.806 4.052 6.365 4.643 10.761.575 4.272.575 9.73.575 16.622v15.424c0 6.891 0 12.35-.575 16.622-.59 4.396-1.836 7.955-4.643 10.761-2.806 2.807-6.365 4.052-10.761 4.643-4.272.575-9.73.575-16.623.575h-.422c-6.892 0-12.35 0-16.623-.575-4.396-.59-7.955-1.836-10.761-4.643-2.807-2.806-4.052-6.365-4.643-10.761-.575-4.272-.575-9.73-.575-16.622V37.288c0-6.891 0-12.35.575-16.622.59-4.396 1.836-7.955 4.643-10.761 2.806-2.807 6.365-4.052 10.761-4.643 4.272-.575 9.73-.575 16.622-.574Zm-15.872 6.149c-3.773.507-5.947 1.458-7.534 3.045-1.587 1.587-2.538 3.76-3.045 7.534-.518 3.853-.524 8.933-.524 16.084v15c0 7.15.006 12.23.524 16.084.507 3.773 1.458 5.947 3.045 7.534 1.587 1.587 3.76 2.538 7.534 3.045 3.853.519 8.933.525 16.084.525 7.15 0 12.23-.007 16.084-.525 3.773-.507 5.947-1.458 7.534-3.045 1.587-1.587 2.538-3.76 3.045-7.534.519-3.853.525-8.933.525-16.084v-15c0-7.15-.007-12.23-.525-16.084-.507-3.773-1.458-5.947-3.045-7.534-1.587-1.587-3.76-2.538-7.534-3.045-3.853-.518-8.933-.524-16.084-.524-7.15 0-12.23.005-16.084.524Zm2.021 7.913a2.813 2.813 0 0 1 2.813-2.813h22.5a2.813 2.813 0 0 1 0 5.626h-22.5a2.813 2.813 0 0 1-2.813-2.813ZM45 59.063a4.688 4.688 0 1 0 0 9.375 4.688 4.688 0 0 0 0-9.376ZM34.687 63.75c0-5.695 4.618-10.313 10.313-10.313s10.313 4.618 10.313 10.313S50.694 74.063 45 74.063 34.687 69.445 34.687 63.75Z" clip-rule="evenodd"/></svg>