<svg xmlns="http://www.w3.org/2000/svg" width="90" height="90" fill="none"><path fill="#fff" fill-rule="evenodd" d="M41.055 4.688h7.89c3.37 0 6.179 0 8.41.3 2.354.316 4.479 1.012 6.187 2.72 1.708 1.708 2.404 3.833 2.72 6.188.24 1.781.288 3.932.298 6.443 2.793.526 5.182 1.516 7.134 3.467 2.257 2.258 3.228 5.1 3.681 8.475.438 3.251.438 7.385.438 12.513v4.317c0 4.382 0 7.886-.295 10.74-.306 2.95-.944 5.443-2.366 7.743-1.421 2.3-3.365 3.986-5.868 5.579-2.42 1.54-5.555 3.107-9.474 5.067l-.136.067-.634.317c-5.966 2.986-9.826 4.918-14.04 4.918-4.214 0-8.074-1.932-14.04-4.918l-.634-.317-.136-.067c-3.92-1.96-7.053-3.527-9.474-5.067-2.503-1.593-4.447-3.279-5.868-5.579-1.422-2.3-2.06-4.793-2.366-7.744-.295-2.853-.294-6.357-.294-10.74v-4.316c0-5.128 0-9.262.436-12.513.454-3.375 1.425-6.217 3.682-8.475 1.952-1.951 4.341-2.941 7.134-3.467.01-2.51.058-4.662.297-6.443.317-2.355 1.013-4.48 2.721-6.188 1.708-1.708 3.834-2.404 6.188-2.72 2.23-.3 5.04-.3 8.409-.3ZM29.069 19.784c2.395-.097 5.129-.096 8.225-.096h15.412c3.096 0 5.83 0 8.225.096-.015-2.184-.066-3.824-.243-5.139-.233-1.73-.635-2.47-1.123-2.96-.49-.488-1.23-.89-2.96-1.123-1.812-.243-4.24-.25-7.855-.25h-7.5c-3.615 0-6.043.007-7.855.25-1.73.233-2.47.635-2.96 1.123-.488.49-.89 1.23-1.123 2.96-.177 1.315-.228 2.955-.243 5.139Zm-3.538 5.915c-2.752.37-4.21 1.047-5.247 2.085-1.038 1.038-1.715 2.495-2.085 5.247-.38 2.832-.387 6.586-.387 11.969v3.959c0 4.568.004 7.782.266 10.313.255 2.465.736 4.04 1.555 5.365.818 1.324 2.012 2.46 4.103 3.79 2.146 1.366 5.02 2.806 9.105 4.85 6.837 3.417 9.438 4.64 12.159 4.64s5.322-1.223 12.159-4.64c4.086-2.044 6.959-3.484 9.105-4.85 2.091-1.33 3.285-2.466 4.103-3.79.819-1.325 1.3-2.9 1.555-5.365.262-2.531.266-5.745.266-10.313V45c0-5.383-.007-9.137-.387-11.97-.37-2.751-1.047-4.208-2.085-5.246-1.038-1.038-2.495-1.715-5.246-2.085-2.833-.38-6.587-.387-11.97-.387h-15c-5.383 0-9.137.006-11.97.387ZM45 41.38c-.218.378-.46.812-.746 1.325l-.369.661-.084.152c-.294.539-.782 1.43-1.595 2.048-.83.63-1.829.847-2.413.974l-.162.036-.716.162c-.657.148-1.192.27-1.65.385.298.366.685.82 1.188 1.409l.488.57c.034.041.072.084.112.13.405.467 1.058 1.22 1.36 2.191.3.96.196 1.95.131 2.574l-.018.175-.074.761c-.068.706-.121 1.27-.157 1.728.391-.172.836-.377 1.364-.62l.67-.308.151-.071c.539-.254 1.475-.696 2.52-.696s1.981.442 2.52.696l.15.07.671.31c.528.242.973.447 1.364.62a95.116 95.116 0 0 0-.157-1.729l-.074-.761a24.516 24.516 0 0 0-.018-.175c-.065-.624-.168-1.613.13-2.574.303-.971.956-1.724 1.361-2.19l.112-.13.488-.571c.503-.588.89-1.043 1.187-1.41a75.627 75.627 0 0 0-1.65-.384l-.715-.162-.162-.036c-.584-.127-1.583-.344-2.413-.974-.813-.617-1.301-1.509-1.595-2.047l-.084-.153-.369-.661A106.06 106.06 0 0 0 45 41.379Zm-3.7-4.63c.646-.843 1.819-2.062 3.7-2.062 1.881 0 3.054 1.219 3.7 2.062.616.804 1.236 1.918 1.872 3.06l.087.156.369.661c.085.154.153.274.212.378l.37.084.716.162.176.04c1.23.278 2.451.554 3.389.924 1.035.408 2.44 1.202 2.98 2.942.532 1.709-.14 3.157-.725 4.087-.542.861-1.366 1.824-2.21 2.81l-.114.134-.488.57-.309.364.047.508.074.76.017.175c.128 1.32.252 2.595.207 3.615-.048 1.07-.305 2.69-1.756 3.791-1.498 1.137-3.152.89-4.201.589-.967-.277-2.109-.803-3.26-1.333l-.164-.076-.67-.309a57.082 57.082 0 0 0-.319-.146l-.318.146-.67.309-.166.076c-1.15.53-2.292 1.056-3.259 1.333-1.049.3-2.703.548-4.2-.589-1.452-1.102-1.71-2.721-1.757-3.79-.045-1.02.079-2.296.207-3.616l.017-.174.074-.761.047-.508a38.64 38.64 0 0 0-.31-.364l-.487-.57-.115-.134c-.843-.986-1.667-1.949-2.21-2.81-.585-.93-1.256-2.378-.724-4.087.54-1.74 1.945-2.534 2.98-2.942.938-.37 2.16-.646 3.389-.924l.176-.04.716-.162.37-.084c.06-.104.127-.224.212-.378l.369-.661.087-.156c.636-1.142 1.256-2.256 1.873-3.06Z" clip-rule="evenodd"/></svg>