<svg xmlns="http://www.w3.org/2000/svg" width="90" height="90" fill="none"><path fill="#fff" fill-rule="evenodd" d="M15.938 22.5c0-9.838 7.974-17.813 17.812-17.813 9.838 0 17.813 7.975 17.813 17.813S43.587 40.313 33.75 40.313 15.937 32.337 15.937 22.5ZM33.75 10.312c-6.731 0-12.188 5.457-12.188 12.188 0 6.731 5.457 12.188 12.188 12.188 6.731 0 12.188-5.457 12.188-12.188 0-6.731-5.457-12.188-12.188-12.188ZM13.793 50.702c5.248-3 12.31-4.764 19.957-4.764 7.648 0 14.71 1.765 19.957 4.764 5.168 2.953 9.105 7.461 9.105 13.048s-3.937 10.095-9.105 13.049c-5.248 2.998-12.31 4.763-19.957 4.763-7.648 0-14.71-1.765-19.957-4.763-5.168-2.954-9.105-7.462-9.105-13.049s3.937-10.095 9.105-13.048Zm2.79 4.883c-4.332 2.476-6.27 5.468-6.27 8.165 0 2.697 1.938 5.689 6.27 8.165 4.254 2.43 10.317 4.022 17.167 4.022 6.85 0 12.913-1.592 17.166-4.022 4.333-2.476 6.272-5.468 6.272-8.165 0-2.697-1.94-5.689-6.272-8.165-4.253-2.43-10.316-4.023-17.166-4.023s-12.913 1.593-17.166 4.023ZM58.839 27.926c2.702-1.196 5.84-.97 8.661.87 2.82-1.84 5.96-2.066 8.662-.87 3.206 1.419 5.4 4.696 5.4 8.448 0 3.556-1.553 6.233-3.414 8.263-1.453 1.583-3.25 2.92-4.669 3.977-.304.226-.592.44-.855.64l-.007.007c-.558.425-1.279.976-2.04 1.406-.764.432-1.823.895-3.077.895s-2.313-.462-3.078-.895c-.76-.43-1.481-.98-2.039-1.406l-.007-.006c-.263-.2-.55-.414-.855-.64-1.419-1.057-3.216-2.395-4.669-3.978-1.861-2.03-3.414-4.707-3.414-8.263 0-3.752 2.194-7.029 5.4-8.448Zm.224 8.448c0-1.545.899-2.794 2.052-3.304.998-.442 2.588-.487 4.39 1.326a2.812 2.812 0 0 0 3.99 0c1.802-1.813 3.392-1.768 4.39-1.326 1.153.51 2.052 1.76 2.052 3.304 0 1.74-.707 3.122-1.934 4.46-1.058 1.153-2.32 2.096-3.714 3.138-.35.263-.71.532-1.077.811-.61.465-1.032.777-1.404.988-.15.085-.25.129-.308.15a2.257 2.257 0 0 1-.308-.15c-.372-.21-.794-.523-1.404-.988-.367-.28-.726-.548-1.077-.81-1.395-1.043-2.656-1.986-3.714-3.139-1.227-1.338-1.934-2.72-1.934-4.46Z" clip-rule="evenodd"/></svg>