<svg xmlns="http://www.w3.org/2000/svg" width="90" height="90" fill="none"><path stroke="#fff" stroke-linecap="round" stroke-linejoin="round" stroke-width="5.625" d="M82.5 56.25v-22.5C82.5 15 75 7.5 56.25 7.5h-22.5C15 7.5 7.5 15 7.5 33.75v22.5C7.5 75 15 82.5 33.75 82.5h22.5C75 82.5 82.5 75 82.5 56.25ZM9.46 26.66h71.1M31.96 7.91v18.225M58.04 7.91v16.538"/><path stroke="#fff" stroke-linecap="round" stroke-linejoin="round" stroke-miterlimit="10" stroke-width="4.688" d="M58.125 47.813a5.625 5.625 0 1 0 0-11.25 5.625 5.625 0 0 0 0 11.25ZM31.875 47.813a5.625 5.625 0 1 0 0-11.25 5.625 5.625 0 0 0 0 11.25ZM31.5 57.379h27c1.875 0 3.375 1.222 3.375 2.75 0 7.608-7.538 13.75-16.875 13.75s-16.875-6.142-16.875-13.75c0-1.528 1.5-2.75 3.375-2.75Z"/></svg>