<svg xmlns="http://www.w3.org/2000/svg" width="90" height="90" fill="none"><path fill="#fff" fill-rule="evenodd" d="M37.288 4.688h15.424c6.891 0 12.35 0 16.622.574 4.396.59 7.955 1.836 10.761 4.643 2.807 2.806 4.052 6.365 4.643 10.761.575 4.272.575 9.73.575 16.622v4.168c0 2.484 0 4.735-.05 6.765a2.823 2.823 0 0 1-.038 1.226c-.061 1.665-.168 3.17-.35 4.522-.453 3.375-1.424 6.218-3.681 8.475-2.258 2.257-5.1 3.228-8.475 3.681-3.251.438-7.385.438-12.513.438H47.812v13.124H60a2.813 2.813 0 0 1 0 5.626H30a2.813 2.813 0 0 1 0-5.626h12.188V66.564H29.794c-5.128 0-9.262 0-12.513-.438-3.375-.453-6.217-1.424-8.475-3.681-2.257-2.258-3.228-5.1-3.682-8.475-.181-1.352-.287-2.857-.35-4.522a2.819 2.819 0 0 1-.037-1.226c-.05-2.03-.05-4.28-.05-6.765v-4.168c0-6.891 0-12.35.575-16.622.59-4.396 1.836-7.955 4.643-10.761 2.806-2.807 6.365-4.052 10.761-4.643 4.272-.575 9.73-.575 16.622-.574ZM10.525 51.562c.047.587.104 1.138.174 1.658.37 2.751 1.047 4.208 2.085 5.246 1.038 1.038 2.495 1.715 5.246 2.085 2.833.38 6.587.386 11.97.386h30c5.383 0 9.137-.005 11.97-.386 2.751-.37 4.208-1.047 5.246-2.085 1.038-1.038 1.715-2.495 2.085-5.246.07-.52.127-1.071.174-1.657h-68.95Zm69.149-5.624H10.326a513.846 513.846 0 0 1-.014-4.688V37.5c0-7.15.007-12.23.525-16.084.507-3.773 1.458-5.947 3.045-7.534 1.587-1.587 3.76-2.538 7.534-3.045 3.853-.518 8.933-.524 16.084-.524h15c7.15 0 12.23.005 16.084.524 3.773.507 5.947 1.458 7.534 3.045 1.587 1.587 2.538 3.76 3.045 7.534.519 3.853.525 8.933.525 16.084v3.75c0 1.721-.001 3.276-.014 4.688Z" clip-rule="evenodd"/></svg>