<svg xmlns="http://www.w3.org/2000/svg" width="90" height="90" fill="none"><path fill="#fff" fill-rule="evenodd" d="M27.235 12.227a8.439 8.439 0 0 1 8.39-7.54h18.75a8.439 8.439 0 0 1 8.39 7.54c2.862.058 5.336.206 7.449.594 2.842.522 5.261 1.517 7.23 3.485 2.257 2.258 3.228 5.1 3.681 8.475.438 3.251.438 7.385.438 12.513v22.912c0 5.128 0 9.262-.438 12.513-.453 3.376-1.424 6.218-3.681 8.475-2.258 2.257-5.1 3.228-8.475 3.681-3.251.438-7.385.438-12.513.438H33.544c-5.128 0-9.262 0-12.513-.438-3.375-.453-6.217-1.424-8.475-3.681-2.257-2.258-3.228-5.1-3.682-8.475-.437-3.251-.437-7.385-.437-12.513V37.294c0-5.128 0-9.262.437-12.513.454-3.375 1.425-6.217 3.682-8.475 1.969-1.968 4.388-2.963 7.23-3.485 2.113-.388 4.587-.536 7.449-.594Zm.009 5.626c-2.694.058-4.769.193-6.441.5-2.126.39-3.356 1.018-4.27 1.93-1.037 1.039-1.714 2.496-2.084 5.247-.38 2.833-.386 6.587-.386 11.97V60c0 5.383.005 9.137.386 11.97.37 2.751 1.047 4.208 2.085 5.246 1.038 1.038 2.495 1.715 5.247 2.085 2.832.38 6.586.386 11.969.386h22.5c5.383 0 9.137-.005 11.97-.386 2.751-.37 4.208-1.047 5.246-2.085 1.038-1.038 1.715-2.495 2.085-5.246.38-2.833.386-6.587.386-11.97V37.5c0-5.383-.005-9.137-.386-11.97-.37-2.751-1.047-4.208-2.085-5.246-.913-.913-2.143-1.54-4.268-1.93-1.673-.308-3.748-.443-6.442-.5a8.439 8.439 0 0 1-8.381 7.459h-18.75a8.439 8.439 0 0 1-8.381-7.46Zm8.381-7.54a2.813 2.813 0 0 0-2.813 2.812v3.75a2.813 2.813 0 0 0 2.813 2.813h18.75a2.813 2.813 0 0 0 2.813-2.813v-3.75a2.813 2.813 0 0 0-2.813-2.813h-18.75ZM23.437 39.374a2.813 2.813 0 0 1 2.813-2.813h1.875a2.813 2.813 0 0 1 0 5.626H26.25a2.813 2.813 0 0 1-2.813-2.813Zm13.125 0a2.813 2.813 0 0 1 2.813-2.813H63.75a2.813 2.813 0 0 1 0 5.626H39.375a2.813 2.813 0 0 1-2.813-2.813ZM23.438 52.5a2.813 2.813 0 0 1 2.812-2.813h1.875a2.813 2.813 0 0 1 0 5.626H26.25a2.813 2.813 0 0 1-2.813-2.813Zm13.125 0a2.813 2.813 0 0 1 2.812-2.813H63.75a2.813 2.813 0 0 1 0 5.626H39.375a2.813 2.813 0 0 1-2.813-2.813ZM23.437 65.625a2.813 2.813 0 0 1 2.813-2.813h1.875a2.813 2.813 0 0 1 0 5.626H26.25a2.813 2.813 0 0 1-2.813-2.813Zm13.125 0a2.813 2.813 0 0 1 2.813-2.813H63.75a2.813 2.813 0 0 1 0 5.626H39.375a2.813 2.813 0 0 1-2.813-2.813Z" clip-rule="evenodd"/></svg>