<svg xmlns="http://www.w3.org/2000/svg" width="90" height="90" fill="none"><path fill="#fff" fill-rule="evenodd" d="M21.135 15.58c-6.202 2.963-10.823 10.065-10.823 18.616 0 15.85 11.246 24.945 21.89 33.553a448.07 448.07 0 0 1 3.193 2.6c1.974 1.626 3.733 3.053 5.428 4.088 1.7 1.039 3.048 1.5 4.177 1.5 1.214 0 2.583-.52 4.226-1.532-5.108-3.93-10.788-9.377-10.788-17.933 0-5.9 3.512-10.978 8.523-13.156 4.536-1.97 10.005-1.465 14.914 2.299 3.05-2.341 6.344-3.444 9.552-3.428A13.62 13.62 0 0 1 78.1 43.97c1.008-2.95 1.588-6.182 1.588-9.774 0-8.55-4.62-15.653-10.822-18.617-5.986-2.86-14.064-2.136-21.796 6.263a2.812 2.812 0 0 1-4.138 0c-7.732-8.4-15.81-9.124-21.796-6.263Zm61.448 32.416a14.431 14.431 0 0 1 2.73 8.476c0 5.693-2.512 10-5.662 13.371-2.497 2.674-5.566 4.918-8.168 6.822-.579.423-1.134.83-1.655 1.22-1.046.783-2.247 1.68-3.484 2.367-1.238.688-2.759 1.31-4.469 1.31-1.71 0-3.23-.622-4.47-1.31-1.195-.664-2.36-1.526-3.38-2.29-2.646 1.903-5.71 3.6-9.025 3.6-2.621 0-5.023-1.05-7.11-2.325-2.09-1.277-4.152-2.965-6.072-4.548-1.017-.839-2.088-1.698-3.194-2.585C18.19 63.732 4.688 52.898 4.688 34.196c0-10.518 5.691-19.71 14.021-23.692C26.617 6.724 36.347 7.882 45 15.947c8.653-8.065 18.383-9.222 26.29-5.443 8.33 3.982 14.022 13.174 14.022 23.692 0 5.14-1.016 9.706-2.73 13.8Zm-33.38.48c-2.98 1.294-5.14 4.362-5.14 7.996 0 7.06 5.508 11.244 11.606 15.71.545.4 1.093.801 1.626 1.201 1.096.821 1.996 1.482 2.842 1.952.844.468 1.386.602 1.738.602.352 0 .894-.134 1.738-.602.846-.47 1.746-1.13 2.842-1.952.625-.468 1.253-.929 1.878-1.387 2.578-1.89 5.109-3.745 7.208-5.993 2.513-2.69 4.147-5.69 4.147-9.53 0-2.387-.93-4.53-2.42-6.09-1.522-1.596-3.606-2.56-5.869-2.571-2.232-.011-4.889.906-7.548 3.532a2.813 2.813 0 0 1-3.952 0c-3.908-3.86-7.859-4.102-10.696-2.869Z" clip-rule="evenodd"/></svg>